<svg width="35" height="42" viewBox="0 0 35 42" fill="none" xmlns="http://www.w3.org/2000/svg">
<g filter="url(#filter0_d_118_4)">
<path fill-rule="evenodd" clip-rule="evenodd" d="M6.47194 15.1501C9.34377 18.6782 14.566 17.8273 17.0826 21.8535C18.3671 23.9085 18.0902 26.4827 19.1987 27.755C20.796 29.5885 23.2495 29.3908 23.2495 29.3908C27.7341 28.5124 29.3585 23.4946 29.9253 19.5763C30.0119 18.9778 30.0738 18.4049 30.1175 17.8764C30.1637 17.3168 30.1894 16.8069 30.2023 16.3689C30.3073 12.8084 28.9172 9.47308 28.056 7.83733C27.1948 6.20158 25.3919 3.72664 22.7658 2.44897C19.7827 0.997611 16.3371 0.845288 14.7247 1.10188C13.1123 1.35847 7.70467 2.61755 6.10918 6.52231C5.46494 8.09899 5.00683 9.61527 5.00008 11.0768C5.033 11.3816 5.0557 11.7284 5.07111 12.0822C5.10129 12.2826 5.14145 12.4821 5.19232 12.6804C5.40802 13.5217 5.81624 14.3446 6.47194 15.1501ZM14.8456 3.56589C20.2884 2.60197 23.5407 4.87256 26.1818 8.92218C29.1909 13.536 28.3952 27.5725 22.5844 27.6211C18.8282 27.6525 19.6526 22.1566 17.0826 19.2499C13.7108 15.4364 7.43674 16.5854 6.86492 11.3918C6.34345 6.65562 9.99723 4.42453 14.8456 3.56589Z" fill="#FF7B8B"/>
<path fill-rule="evenodd" clip-rule="evenodd" d="M26.1818 8.92218C23.5407 4.87256 20.2884 2.60197 14.8456 3.56589C9.99723 4.42453 6.34345 6.65562 6.86492 11.3918C7.43674 16.5854 13.7108 15.4364 17.0826 19.2499C19.6526 22.1566 18.8282 27.6525 22.5844 27.6211C28.3952 27.5725 29.1909 13.536 26.1818 8.92218ZM14.3015 10.2108C14.2605 8.85588 15.8081 8.28731 17.0826 8.38258C18.2298 8.46834 19.51 8.99129 19.4708 10.2108C19.4325 11.4017 18.2031 11.8294 17.0826 11.9107C15.8321 12.0014 14.3416 11.54 14.3015 10.2108Z" fill="#FF7B8B"/>
<path fill-rule="evenodd" clip-rule="evenodd" d="M26.1818 8.92218C23.5407 4.87256 20.2884 2.60197 14.8456 3.56589C9.99723 4.42453 6.34345 6.65562 6.86492 11.3918C7.43674 16.5854 13.7108 15.4364 17.0826 19.2499C19.6526 22.1566 18.8282 27.6525 22.5844 27.6211C28.3952 27.5725 29.1909 13.536 26.1818 8.92218ZM14.3015 10.2108C14.2605 8.85588 15.8081 8.28731 17.0826 8.38258C18.2298 8.46834 19.51 8.99129 19.4708 10.2108C19.4325 11.4017 18.2031 11.8294 17.0826 11.9107C15.8321 12.0014 14.3416 11.54 14.3015 10.2108Z" fill="#FF4755"/>
<path d="M17.0826 8.38258C15.8081 8.28731 14.2605 8.85588 14.3015 10.2108C16.3744 11.1093 17.508 11.1372 19.4708 10.2108C19.51 8.99129 18.2298 8.46834 17.0826 8.38258Z" fill="#FFFDF7"/>
<path d="M17.0826 11.9107C18.2031 11.8294 19.4325 11.4017 19.4708 10.2108C17.508 11.1372 16.3744 11.1093 14.3015 10.2108C14.3416 11.54 15.8321 12.0014 17.0826 11.9107Z" fill="#E5D6BE"/>
<path d="M17.0826 21.8535C14.566 17.8273 9.34377 18.6782 6.47194 15.1501C5.81624 14.3446 5.40802 13.5217 5.19232 12.6804C5.14145 12.4821 5.10129 12.2826 5.07111 12.0822C5.12348 13.2839 5.09184 14.5671 5.09184 14.5671C7.89417 21.3724 12.2156 19.2499 15.6316 22.8421C18.2313 26.8834 17.8759 30.5077 20.2567 31.6944C21.5567 32.1981 24.8099 32.1588 26.1213 31.0492C26.7819 30.4176 27.3728 29.6307 27.8444 28.6852C30.2455 23.8718 30.2023 16.3689 30.2023 16.3689C30.1894 16.8069 30.1637 17.3168 30.1175 17.8764C30.0738 18.4049 30.0119 18.9778 29.9253 19.5763C29.3585 23.4946 27.7341 28.5124 23.2495 29.3908C23.2495 29.3908 20.796 29.5885 19.1987 27.755C18.0902 26.4827 18.3671 23.9085 17.0826 21.8535Z" fill="#994E37"/>
<path d="M5.68596 17.4273C7.41978 21.5711 11.7956 20.6026 14.8456 23.7779C17.7768 26.8294 16.7592 32.3862 20.8311 32.951C22.5394 33.1879 24.5322 32.5683 26.1213 31.0492C24.8099 32.1588 21.5567 32.1981 20.2567 31.6944C17.8759 30.5077 18.2313 26.8834 15.6316 22.8421C12.2156 19.2499 7.89417 21.3724 5.09184 14.5671C5.09184 14.5671 5.24728 16.3789 5.68596 17.4273Z" fill="#8C4534"/>
<path d="M30.2023 16.3689C30.3073 12.8084 28.9172 9.47308 28.056 7.83733C27.1948 6.20158 25.3919 3.72664 22.7658 2.44897C19.7827 0.99761 16.3371 0.845288 14.7247 1.10188C13.1123 1.35847 7.70467 2.61755 6.10918 6.52231C5.46494 8.09899 5.00683 9.61527 5.00008 11.0768M30.2023 16.3689C30.1894 16.8069 30.1637 17.3168 30.1175 17.8764C30.0738 18.4049 30.0119 18.9778 29.9253 19.5763C29.3585 23.4946 27.7341 28.5124 23.2495 29.3908C23.2495 29.3908 20.796 29.5885 19.1987 27.755C18.0902 26.4827 18.3671 23.9085 17.0826 21.8535C14.566 17.8273 9.34377 18.6782 6.47194 15.1501C5.81624 14.3446 5.40802 13.5217 5.19232 12.6804C5.05714 12.1532 4.99757 11.6188 5.00008 11.0768M30.2023 16.3689C30.2023 16.3689 30.2455 23.8718 27.8444 28.6852C26.2382 31.9052 23.2495 33.2864 20.8311 32.951C16.7592 32.3862 17.7768 26.8294 14.8456 23.7779C11.7956 20.6026 7.41978 21.5711 5.68596 17.4273C4.73131 15.1458 5.26793 13.5568 5.00008 11.0768M14.3015 10.2108C14.2605 8.85588 15.8081 8.28731 17.0826 8.38258C18.2298 8.46834 19.51 8.99129 19.4708 10.2108C19.4325 11.4017 18.2031 11.8294 17.0826 11.9107C15.8321 12.0014 14.3416 11.54 14.3015 10.2108Z" stroke="#0A2342" stroke-width="0.5"/>
</g>
<defs>
<filter id="filter0_d_118_4" x="0.75" y="0.750061" width="33.708" height="40.5" filterUnits="userSpaceOnUse" color-interpolation-filters="sRGB">
<feFlood flood-opacity="0" result="BackgroundImageFix"/>
<feColorMatrix in="SourceAlpha" type="matrix" values="0 0 0 0 0 0 0 0 0 0 0 0 0 0 0 0 0 0 127 0" result="hardAlpha"/>
<feOffset dy="4"/>
<feGaussianBlur stdDeviation="2"/>
<feComposite in2="hardAlpha" operator="out"/>
<feColorMatrix type="matrix" values="0 0 0 0 0 0 0 0 0 0 0 0 0 0 0 0 0 0 0.25 0"/>
<feBlend mode="normal" in2="BackgroundImageFix" result="effect1_dropShadow_118_4"/>
<feBlend mode="normal" in="SourceGraphic" in2="effect1_dropShadow_118_4" result="shape"/>
</filter>
</defs>
</svg>
