<svg width="74" height="74" viewBox="0 0 74 74" fill="none" xmlns="http://www.w3.org/2000/svg">
<g filter="url(#filter0_d_87_4)">
<path d="M6 47.75V42M6 24.75V30.5M68 47.75V42M68 24.75V30.5M37 63.75V58M37 40.75V46.5M6 30.5V36.25V42M6 30.5V42M6 30.5L37 14.75M6 30.5L17.0428 36.3895M6 42L37 58M6 42L17.0428 36.3895M37 58V52.25V46.5M37 58V46.5M37 58L68 42M37 46.5L17.0428 36.3895M37 46.5L56.9571 36.3895M68 42V36.25V30.5M68 42L56.9571 36.3895M68 30.5L37 14.75M68 30.5L56.9571 36.3895M37 14.75V20.5V26.25M37 14.75V9M37 26.25L17.0428 36.3895M37 26.25L56.9571 36.3895M37 26.25V32" stroke="#FFFDF7" stroke-width="4" stroke-linecap="round" stroke-linejoin="round" shape-rendering="crispEdges"/>
</g>
<defs>
<filter id="filter0_d_87_4" x="0" y="7" width="74" height="66.75" filterUnits="userSpaceOnUse" color-interpolation-filters="sRGB">
<feFlood flood-opacity="0" result="BackgroundImageFix"/>
<feColorMatrix in="SourceAlpha" type="matrix" values="0 0 0 0 0 0 0 0 0 0 0 0 0 0 0 0 0 0 127 0" result="hardAlpha"/>
<feOffset dy="4"/>
<feGaussianBlur stdDeviation="2"/>
<feComposite in2="hardAlpha" operator="out"/>
<feColorMatrix type="matrix" values="0 0 0 0 0 0 0 0 0 0 0 0 0 0 0 0 0 0 0.25 0"/>
<feBlend mode="normal" in2="BackgroundImageFix" result="effect1_dropShadow_87_4"/>
<feBlend mode="normal" in="SourceGraphic" in2="effect1_dropShadow_87_4" result="shape"/>
</filter>
</defs>
</svg>
