<svg width="50" height="50" viewBox="0 0 50 50" fill="none" xmlns="http://www.w3.org/2000/svg">
<path d="M7.19355 8.54286C7.19355 8.54286 6.95368 9.86475 6.57419 10.6C5.70884 12.2766 3.9843 11.8683 2.85806 13.3429C1.66863 14.9001 1 18.1429 1 18.1429M7.19355 8.54286H12.7677M7.19355 8.54286H6.57419C6.57419 8.54286 6.14606 8.41171 5.95484 8.2C5.76362 7.9883 5.64516 7.51429 5.64516 7.51429V4.08571C5.64516 4.08571 5.76362 3.61171 5.95484 3.4C6.14606 3.18829 6.57419 3.05714 6.57419 3.05714H13.3871C13.3871 3.05714 13.8152 3.18829 14.0065 3.4C14.1977 3.61171 14.3161 4.08571 14.3161 4.08571V7.51429C14.3161 7.51429 14.1977 7.9883 14.0065 8.2C13.8152 8.41171 13.3871 8.54286 13.3871 8.54286H12.7677M1 18.1429V39.4M1 18.1429H16.071M11.8387 46.2571H2.23871C2.23871 46.2571 1.5801 46.2137 1.30968 45.9143C1.03926 45.6149 1 44.8857 1 44.8857V39.4M11.8387 46.2571C11.8387 46.2571 11.9172 47.7155 12.4581 48.3143C12.9989 48.9131 14.3161 49 14.3161 49H38.471M11.8387 46.2571L12.871 39.4M11.8387 46.2571L16.8391 13.04M12.7677 8.54286C12.7677 8.54286 13.0076 9.86475 13.3871 10.6C14.1873 12.1503 15.722 11.918 16.8391 13.04M17.1032 13.3429C17.0184 13.2318 16.9301 13.1314 16.8391 13.04M1 39.4H12.871M18.0323 5.11429V2.37143C18.0323 2.37143 18.0715 1.64225 18.3419 1.34286C18.6124 1.04346 19.271 1 19.271 1H41.5677C41.5677 1 42.2264 1.04346 42.4968 1.34286C42.7672 1.64225 42.8065 2.37143 42.8065 2.37143V5.11429M18.0323 5.11429H42.8065M18.0323 5.11429L16.8391 13.04M42.8065 5.11429L49 46.2571C49 46.2571 48.9215 47.7155 48.3806 48.3143C47.8398 48.9131 46.5226 49 46.5226 49H38.471M42.8065 5.11429V38.3714M42.8065 5.11429L41.5791 13.3429M38.471 49C38.471 49 36.7811 46.482 36.9226 45.2286L37.2323 42.4857L37.8971 38.0286M42.8065 41.1143V45.2286M37.8971 38.0286H13.0774M37.8971 38.0286L41.5791 13.3429M13.0774 38.0286L16.071 18.1429M13.0774 38.0286L12.871 39.4M16.7935 13.3429H41.5791M16.7935 13.3429L16.071 18.1429M16.7935 13.3429L16.8391 13.04M16.071 18.1429L12.871 39.4M38.471 18.1429L35.9935 15.4L22.9871 29.8L19.5806 26.0286L17.1032 28.7714L22.9871 35.2857L38.471 18.1429Z" stroke="#0A2342" stroke-width="2" stroke-linecap="round" stroke-linejoin="round"/>
</svg>
