<svg width="50" height="50" viewBox="0 0 50 50" fill="none" xmlns="http://www.w3.org/2000/svg">
<path d="M1.66385 49H5.03774M14.9407 49H11.6059M15.6046 39.6667H13.2929M1 39.6667H3.35079M5.03774 49H11.3248H11.6059M5.03774 49V39.6667M5.03774 39.6667H11.6059M5.03774 39.6667H3.35079M11.6059 49V39.6667M11.6059 39.6667H12.0997M13.2929 39.6667H12.0997M13.2929 39.6667V14.99M3.35079 39.6667V13H4.98307M4.98307 13V9.70196C5.62904 8.83101 7.22091 8.66667 8.3023 8.66667M4.98307 13H11.6059M8.3023 8.66667C9.3837 8.66667 10.96 8.83101 11.6059 9.70196V13M8.3023 8.66667V1M11.6059 13H13.2929V14.99M7.00587 35.1137H12.1682M12.1682 32.0078H7.84934M7.00587 28.902H12.1682M12.0997 39.6667C15.7527 44.9666 21.8497 48.4353 28.7565 48.4353C39.9237 48.4354 48.974 39.3677 48.9999 28.1532C49.026 16.9125 39.9497 7.77646 28.7565 7.77648C22.5569 7.77649 17.0067 10.5792 13.2929 14.99M38.8783 21.6591L36.629 19.4002L24.8204 31.2591L21.7276 28.1532L19.4783 30.412L24.8204 35.7767L38.8783 21.6591Z" stroke="#0A2342" stroke-width="2" stroke-linecap="round" stroke-linejoin="round"/>
</svg>
