<svg width="50" height="50" viewBox="0 0 50 50" fill="none" xmlns="http://www.w3.org/2000/svg">
<path d="M25 21.6667C21.3181 21.6667 18.3333 18.6819 18.3333 15C18.3333 11.3181 21.3181 8.33333 25 8.33333C28.6819 8.33333 31.6667 11.3181 31.6667 15C31.6667 18.6819 28.6819 21.6667 25 21.6667Z" fill="#0A2342"/>
<path d="M11.6667 41.6667H38.3333V31.6667C38.3333 30 36.6667 28.3333 35 28.3333H15C13.3333 28.3333 11.6667 30 11.6667 31.6667V41.6667Z" fill="#0A2342"/>
<path d="M11.6667 41.6667H38.3333M11.6667 41.6667C11.6667 41.6667 11.6667 33.3333 11.6667 31.6667M11.6667 41.6667V31.6667M38.3333 41.6667C38.3333 41.6667 38.3333 33.3333 38.3333 31.6667M38.3333 41.6667V31.6667M38.3333 31.6667C38.3333 30 36.6667 28.3333 35 28.3333M35 28.3333C34.1667 28.3333 16.6667 28.3333 15 28.3333M35 28.3333H15M15 28.3333C13.3333 28.3333 11.6667 30 11.6667 31.6667M25 21.6667C21.3181 21.6667 18.3333 18.6819 18.3333 15C18.3333 11.3181 21.3181 8.33333 25 8.33333C28.6819 8.33333 31.6667 11.3181 31.6667 15C31.6667 18.6819 28.6819 21.6667 25 21.6667ZM1 25C1 38.2548 11.7452 49 25 49C38.2548 49 49 38.2548 49 25C49 11.7452 38.2548 1 25 1C11.7452 0.999997 1 11.7452 1 25Z" stroke="#0A2342" stroke-width="2" stroke-linecap="round" stroke-linejoin="round"/>
</svg>
