<svg width="60" height="74" viewBox="0 0 60 74" fill="none" xmlns="http://www.w3.org/2000/svg">
<g filter="url(#filter0_d_118_4)">
<path fill-rule="evenodd" clip-rule="evenodd" d="M7.94387 29.3002C13.6875 36.3564 24.1321 34.6546 29.1652 42.707C31.7342 46.817 31.1804 51.9653 33.3974 54.5101C36.5921 58.1771 41.499 57.7816 41.499 57.7816C50.4682 56.0247 53.7171 45.9891 54.8507 38.1525C55.0238 36.9555 55.1476 35.8098 55.2349 34.7527C55.3274 33.6336 55.3789 32.6139 55.4047 31.7378C55.6147 24.6168 52.8345 17.9462 51.1121 14.6747C49.3896 11.4032 45.7839 6.45329 40.5316 3.89794C34.5654 0.995221 27.6742 0.690576 24.4494 1.20376C21.2245 1.71694 10.4093 4.23509 7.21835 12.0446C5.92989 15.198 5.01366 18.2305 5.00015 21.1535C5.06601 21.7633 5.1114 22.4568 5.14223 23.1644C5.20258 23.5653 5.2829 23.9641 5.38463 24.3609C5.81604 26.0435 6.63247 27.6891 7.94387 29.3002ZM24.6912 6.13178C35.5768 4.20395 42.0813 8.74511 47.3636 16.8444C53.3817 26.072 51.7904 54.145 40.1689 54.2422C32.6563 54.3049 34.3052 43.3132 29.1652 37.4997C22.4217 29.8727 9.87349 32.1707 8.72985 21.7837C7.68691 12.3112 14.9945 7.84906 24.6912 6.13178Z" fill="#FF7B8B"/>
<path fill-rule="evenodd" clip-rule="evenodd" d="M47.3636 16.8444C42.0813 8.74511 35.5768 4.20395 24.6912 6.13178C14.9945 7.84906 7.68691 12.3112 8.72985 21.7837C9.87349 32.1707 22.4217 29.8727 29.1652 37.4997C34.3052 43.3132 32.6563 54.3049 40.1689 54.2422C51.7904 54.145 53.3817 26.072 47.3636 16.8444ZM23.6029 19.4216C23.5211 16.7118 26.6162 15.5746 29.1652 15.7652C31.4596 15.9367 34.02 16.9826 33.9415 19.4216C33.8649 21.8033 31.4061 22.6588 29.1652 22.8214C26.6642 23.0028 23.6832 22.08 23.6029 19.4216Z" fill="#FF7B8B"/>
<path fill-rule="evenodd" clip-rule="evenodd" d="M47.3636 16.8444C42.0813 8.74511 35.5768 4.20395 24.6912 6.13178C14.9945 7.84906 7.68691 12.3112 8.72985 21.7837C9.87349 32.1707 22.4217 29.8727 29.1652 37.4997C34.3052 43.3132 32.6563 54.3049 40.1689 54.2422C51.7904 54.145 53.3817 26.072 47.3636 16.8444ZM23.6029 19.4216C23.5211 16.7118 26.6162 15.5746 29.1652 15.7652C31.4596 15.9367 34.02 16.9826 33.9415 19.4216C33.8649 21.8033 31.4061 22.6588 29.1652 22.8214C26.6642 23.0028 23.6832 22.08 23.6029 19.4216Z" fill="#FF4755"/>
<path d="M29.1652 15.7652C26.6162 15.5746 23.5211 16.7118 23.6029 19.4216C27.7489 21.2185 30.016 21.2744 33.9415 19.4216C34.02 16.9826 31.4596 15.9367 29.1652 15.7652Z" fill="#FFFDF7"/>
<path d="M29.1652 22.8214C31.4061 22.6588 33.8649 21.8033 33.9415 19.4216C30.016 21.2744 27.7489 21.2185 23.6029 19.4216C23.6832 22.08 26.6642 23.0028 29.1652 22.8214Z" fill="#E5D6BE"/>
<path d="M29.1652 42.707C24.1321 34.6546 13.6875 36.3564 7.94387 29.3002C6.63247 27.6891 5.81604 26.0435 5.38463 24.3609C5.2829 23.9641 5.20258 23.5653 5.14223 23.1644C5.24695 25.5679 5.18368 28.1343 5.18368 28.1343C10.7883 41.7448 19.4312 37.4998 26.2631 44.6842C31.4627 52.7668 30.7518 60.0154 35.5135 62.3889C38.1134 63.3962 44.6198 63.3176 47.2426 61.0983C48.5639 59.8353 49.7456 58.2614 50.6888 56.3703C55.4909 46.7436 55.4047 31.7378 55.4047 31.7378C55.3789 32.6139 55.3274 33.6336 55.2349 34.7527C55.1476 35.8098 55.0238 36.9555 54.8507 38.1525C53.7171 45.9891 50.4682 56.0247 41.499 57.7816C41.499 57.7816 36.5921 58.1771 33.3974 54.5101C31.1804 51.9653 31.7342 46.817 29.1652 42.707Z" fill="#994E37"/>
<path d="M6.37192 33.8547C9.83956 42.1421 18.5911 40.2053 24.6912 46.5558C30.5535 52.6589 28.5184 63.7724 36.6622 64.9019C40.0787 65.3758 44.0644 64.1366 47.2426 61.0983C44.6198 63.3176 38.1134 63.3962 35.5135 62.3889C30.7518 60.0154 31.4627 52.7668 26.2631 44.6842C19.4312 37.4998 10.7883 41.7448 5.18368 28.1343C5.18368 28.1343 5.49456 31.7578 6.37192 33.8547Z" fill="#8C4534"/>
<path d="M55.4047 31.7378C55.6147 24.6168 52.8345 17.9462 51.1121 14.6747C49.3896 11.4032 45.7839 6.45329 40.5316 3.89794C34.5654 0.995221 27.6742 0.690576 24.4494 1.20376C21.2245 1.71694 10.4093 4.23509 7.21835 12.0446C5.92989 15.198 5.01366 18.2305 5.00015 21.1535M55.4047 31.7378C55.3789 32.6139 55.3274 33.6336 55.2349 34.7527C55.1476 35.8098 55.0238 36.9555 54.8507 38.1525C53.7171 45.9891 50.4682 56.0247 41.499 57.7816C41.499 57.7816 36.5921 58.1771 33.3974 54.5101C31.1804 51.9653 31.7342 46.817 29.1652 42.707C24.1321 34.6546 13.6875 36.3564 7.94387 29.3002C6.63247 27.6891 5.81604 26.0435 5.38463 24.3609C5.11428 23.3065 4.99514 22.2375 5.00015 21.1535M55.4047 31.7378C55.4047 31.7378 55.4909 46.7436 50.6888 56.3703C47.4764 62.8104 41.499 65.5728 36.6622 64.9019C28.5184 63.7724 30.5535 52.6589 24.6912 46.5558C18.5911 40.2053 9.83956 42.1421 6.37192 33.8547C4.46262 29.2916 5.53586 26.1136 5.00015 21.1535M23.6029 19.4216C23.5211 16.7118 26.6162 15.5746 29.1652 15.7652C31.4596 15.9367 34.0199 16.9826 33.9415 19.4216C33.8649 21.8033 31.4061 22.6588 29.1652 22.8214C26.6642 23.0028 23.6832 22.08 23.6029 19.4216Z" stroke="#0A2342" stroke-width="0.5"/>
</g>
<defs>
<filter id="filter0_d_118_4" x="0.75" y="0.750061" width="58.916" height="72.5" filterUnits="userSpaceOnUse" color-interpolation-filters="sRGB">
<feFlood flood-opacity="0" result="BackgroundImageFix"/>
<feColorMatrix in="SourceAlpha" type="matrix" values="0 0 0 0 0 0 0 0 0 0 0 0 0 0 0 0 0 0 127 0" result="hardAlpha"/>
<feOffset dy="4"/>
<feGaussianBlur stdDeviation="2"/>
<feComposite in2="hardAlpha" operator="out"/>
<feColorMatrix type="matrix" values="0 0 0 0 0 0 0 0 0 0 0 0 0 0 0 0 0 0 0.25 0"/>
<feBlend mode="normal" in2="BackgroundImageFix" result="effect1_dropShadow_118_4"/>
<feBlend mode="normal" in="SourceGraphic" in2="effect1_dropShadow_118_4" result="shape"/>
</filter>
</defs>
</svg>
