<svg width="50" height="50" viewBox="0 0 50 50" fill="none" xmlns="http://www.w3.org/2000/svg">
<path d="M40.5482 30.4857V46.9429C40.5482 46.9429 40.5482 49 43.0917 49C45.6351 49 45.6351 46.9429 45.6351 46.9429V30.4857M40.5482 30.4857H45.6351M40.5482 30.4857H35.0374V19.5947M45.6351 30.4857V15.7429M4.97936 27.1512C4.97936 27.1512 -0.750885 31.3193 1.54117 33.0819M4.97936 27.1512C4.97936 27.1512 2.772 26.3934 2.13681 25.1218M4.97936 27.1512L10.0889 25.4815M1.54117 33.0819L1.57188 33.1055M1.54117 33.0819C1.55141 33.0898 1.56165 33.0977 1.57188 33.1055M4.30037 34.0292C8.6238 32.6164 13.7334 30.9467 13.7334 30.9467M4.30037 34.0292C3.22812 34.3796 2.40947 33.7498 1.57188 33.1055M4.30037 34.0292L9.72422 32.2568M26.3107 26.8368C26.3107 26.8368 26.4027 25.9052 26.4616 25.3083M26.3107 26.8368C26.3107 26.8368 26.5377 27.3466 26.87 28.1331M26.3107 26.8368L24.7385 27.3505M26.3107 26.8368L26.4616 25.3083M26.4616 25.3083C26.4695 25.2281 26.4791 25.1492 26.4904 25.0715M29.741 19.0597C23.0592 21.2432 18.7358 22.6559 18.7358 22.6559M29.741 19.0597C31.0434 18.6341 28.3355 21.7377 28.3355 21.7377M29.741 19.0597L25.0245 20.601M2.13681 25.1218C1.88111 24.61 1.18401 23.2145 1.18401 23.2145M2.13681 25.1218L1.18401 23.2145M1.18401 23.2145L2.99833 24.1007L6.14266 23.0733L5.50747 21.8017L8.50091 22.3026M8.50091 22.3026L10.0889 25.4815M8.50091 22.3026C8.50091 22.3026 8.82922 21.086 9.59668 20.8352M10.0889 25.4815L18.7358 22.6559M10.0889 25.4815L9.72422 32.2568M18.7358 22.6559L18.1313 18.0463M18.7358 22.6559L25.0245 20.601M28.3355 21.7377L33.8381 19.9396L33.6793 19.6217M28.3355 21.7377C28.3355 21.7377 26.8011 22.9278 26.4904 25.0715M30.8209 13.8996L30.6621 13.5817L18.0848 17.6917L18.1313 18.0463M30.8209 13.8996L32 13.5143M30.8209 13.8996L31.6149 15.4891M32 13.5143L31.5236 12.5607L35.5581 11.2423M32 13.5143L32.794 15.1038M33.6793 19.6217L34.8584 19.2364M33.6793 19.6217L31.6149 15.4891M34.8584 19.2364L32.794 15.1038M34.8584 19.2364L35.0374 19.5947M41.1471 17.1814L41.6235 18.1351L35.3348 20.1901L35.0374 19.5947M41.1471 17.1814C41.1471 17.1814 44.2914 16.1539 46.2566 15.5117M41.1471 17.1814L39.0827 13.0488M41.1471 17.1814L46.2566 15.5117M46.2566 15.5117C47.8369 14.9953 49 12.7663 49 12.7663L47.7296 10.2232C47.7296 10.2232 46.7564 9.88715 45.6351 9.72345M38.2887 11.4593L37.8123 10.5057L35.5581 11.2423M38.2887 11.4593C38.2887 11.4593 41.433 10.4319 43.3982 9.78967M38.2887 11.4593L39.0827 13.0488M38.2887 11.4593L43.3982 9.78967M43.3982 9.78967C43.3982 9.78967 44.5773 9.40437 46.0065 12.2654M43.3982 9.78967C44.0386 9.58041 44.8712 9.61193 45.6351 9.72345M18.1313 18.0463C18.1313 18.0463 12.741 19.8077 9.59668 20.8352M18.1313 18.0463L9.59668 20.8352M13.7334 30.9467C13.7334 30.9467 14.3497 31.9484 15.3134 32.2793C16.2772 32.6102 17.862 31.6894 18.5411 32.3339C19.4105 33.1592 20.4625 39.8413 21.5066 44.6771C21.7914 45.9961 19.9155 47.1485 20.9706 48.1803C21.5674 48.764 22.6261 48.7487 22.6261 48.7487L31.273 45.923C31.273 45.923 31.9839 45.3415 31.9757 44.5841C31.9638 43.48 30.3296 43.0556 30.1535 41.8515C29.5858 37.9694 30.3226 38.647 29.177 34.4051C28.656 32.4761 27.5455 29.7325 26.87 28.1331M13.7334 30.9467L24.7385 27.3505M13.7334 30.9467L9.72422 32.2568M26.4904 25.0715C26.4904 25.0715 27.0608 26.5676 29.3041 27.3377C32.6152 28.4744 26.87 28.1331 26.87 28.1331M39.0827 13.0488L43.4061 11.636M32.794 15.1038L31.6149 15.4891M24.7385 27.3505L25.0245 20.601M35.5581 11.2423C36.459 7.78133 38.9189 2.73826 45.6351 1V9.72345" stroke="#0A2342" stroke-width="2" stroke-linejoin="round"/>
</svg>
