<svg width="250" height="253" viewBox="0 0 250 253" fill="none" xmlns="http://www.w3.org/2000/svg">
<path fill-rule="evenodd" clip-rule="evenodd" d="M125 0C81.041 0 43.2851 21.6914 21 56H229C206.715 21.6914 168.959 0 125 0Z" fill="#FFDB56"/>
<g filter="url(#filter0_d_72_18)">
<mask id="path-2-inside-1_72_18" fill="white">
<path d="M47.9501 33C34.6547 44.1467 23.8111 58.1221 16.3454 74C13.9999 78.9884 11.9878 84.1647 10.3378 89.5C10.3378 89.5 18.1448 95.3365 22.5 93C27.394 90.3744 22.0711 83.7187 25 79C28.5148 73.3374 38.0232 63.501 39.5 70C39.5 70 39.1672 72.4738 39.5 74C40.5629 78.8752 42.9198 66.9255 46 63C54.5378 52.1193 74.8137 31.2726 76.5 45C77.3056 51.558 68.1005 55.0629 71 61C73.8995 66.9371 85.0656 60.1823 87 66.5C88.5614 71.5995 83.3753 77.0074 81.5 82C75.0763 99.102 79.2215 113.01 71 125C69.727 126.857 76.42 134.035 74 135.5C68.2399 138.986 60.9076 131.693 57.5 137.5C53.5905 144.162 64.5 156 64.5 156L84.5 152C93.0915 146.337 96.5082 139.958 106.5 137.5C118.22 134.616 126.622 148.663 137 142.5C140.445 140.454 140.681 136.711 144.5 135.5C149.563 133.894 153.254 136.309 157.5 139.5C164.315 144.622 168.854 152.396 165 160C163.189 163.574 159.021 163.293 157.5 167C155.27 172.435 160.976 175.649 161.5 181.5C162.279 190.198 155.392 195.026 157.5 203.5C158.915 209.188 166.55 210.848 165 216.5C162.821 224.447 151.672 215.557 144.5 211.5C132.338 204.62 137.92 186.821 125 181.5C116.334 177.931 109.514 185.418 101 181.5C89.0087 175.982 90.9437 163.52 84.5 152L64.5 156C64.5 156 56.4218 162.561 50.5 162C45.6286 161.538 44.3888 155.791 39.5 156C35.8347 156.157 34.5861 159.226 31 160C20.4621 162.275 6.92065 146.5 6.92065 146.5C17.0531 202.514 66.065 245 125 245C185.33 245 235.262 200.479 243.733 142.5C243.733 142.5 224.321 126.511 211 115C203.547 108.559 201.291 96.582 191.5 95.5C182.038 94.4543 179.009 106.447 169.5 106C162.252 105.659 157.742 103.517 152.5 98.5C147.704 93.9094 146.11 89.9407 144.5 83.5C142.89 77.0593 144.5 73.1389 144.5 66.5C137.593 63.896 133.722 58.846 133 51.5C132.168 43.0339 145.14 41.4827 144.5 33C144.046 26.986 137.641 25.4968 137 19.5C136.421 14.0814 140.5 5.99182 140.5 5.99182C135.426 5.33744 130.252 5 125 5C119.748 5 114.574 5.33744 109.5 5.99182C86.238 8.99176 65.0631 18.6527 47.9501 33Z"/>
<path d="M165 54.5C171.989 51.476 178.179 58.7466 184.5 54.5C188.325 51.9302 188.24 48.2572 191.5 45C196.096 40.4075 205.494 36 205.494 36C200.619 31.5882 195.38 27.5714 189.827 24L172.5 36C166.363 34.2413 160.413 36.8194 157.5 42.5C154.793 47.7772 158.948 51.6421 159.875 57.5C161.72 56.095 162.872 55.4209 165 54.5Z"/>
<path d="M7.93586 98.5C6.01422 107.025 5 115.894 5 125C5 132.339 5.65886 139.524 6.92065 146.5C6.92065 146.5 20.4621 162.275 31 160C34.5861 159.226 35.8347 156.157 39.5 156C44.3888 155.791 45.6286 161.538 50.5 162C56.4218 162.561 64.5 156 64.5 156C64.5 156 53.5905 144.162 57.5 137.5C60.9076 131.693 68.2399 138.986 74 135.5C76.42 134.035 69.727 126.857 71 125C79.2215 113.01 75.0763 99.102 81.5 82C83.3753 77.0074 88.5614 71.5995 87 66.5C85.0656 60.1823 73.8995 66.9371 71 61C68.1005 55.0629 77.3056 51.558 76.5 45C74.8137 31.2726 54.5378 52.1193 46 63C42.9198 66.9255 40.5629 78.8752 39.5 74C39.1672 72.4738 39.5 70 39.5 70C38.0232 63.501 28.5148 73.3374 25 79C22.0711 83.7187 27.394 90.3744 22.5 93C18.1448 95.3365 10.3378 89.5 10.3378 89.5C9.4246 92.4529 8.62233 95.4545 7.93586 98.5Z"/>
<path d="M140.5 5.99182C140.5 5.99182 136.421 14.0814 137 19.5C137.641 25.4968 144.046 26.986 144.5 33C145.14 41.4827 132.168 43.0339 133 51.5C133.722 58.846 137.593 63.896 144.5 66.5L159.875 57.5C158.948 51.6421 154.793 47.7772 157.5 42.5C160.413 36.8194 166.363 34.2413 172.5 36L189.827 24C179.949 17.6468 169.079 12.7031 157.5 9.45303C151.984 7.90468 146.307 6.7407 140.5 5.99182Z"/>
<path d="M245 125C245 115.894 243.986 107.025 242.064 98.5C240.137 89.9519 237.298 81.7494 233.655 74C226.844 59.5158 217.223 46.6148 205.494 36C205.494 36 196.096 40.4075 191.5 45C188.24 48.2572 188.325 51.9302 184.5 54.5C178.179 58.7466 171.989 51.476 165 54.5C162.872 55.4209 161.72 56.095 159.875 57.5L144.5 66.5C144.5 73.1389 142.89 77.0593 144.5 83.5C146.11 89.9407 147.704 93.9094 152.5 98.5C157.742 103.517 162.252 105.659 169.5 106C179.009 106.447 182.038 94.4543 191.5 95.5C201.291 96.582 203.547 108.559 211 115C224.321 126.511 243.733 142.5 243.733 142.5C244.568 136.787 245 130.944 245 125Z"/>
<path d="M106.5 137.5C96.5082 139.958 93.0915 146.337 84.5 152C90.9437 163.52 89.0087 175.982 101 181.5C109.514 185.418 116.334 177.931 125 181.5C137.92 186.821 132.338 204.62 144.5 211.5C151.672 215.557 162.821 224.447 165 216.5C166.55 210.848 158.915 209.188 157.5 203.5C155.392 195.026 162.279 190.198 161.5 181.5C160.976 175.649 155.27 172.435 157.5 167C159.021 163.293 163.189 163.574 165 160C168.854 152.396 164.315 144.622 157.5 139.5C153.254 136.309 149.563 133.894 144.5 135.5C140.681 136.711 140.445 140.454 137 142.5C126.622 148.663 118.22 134.616 106.5 137.5Z"/>
</mask>
<path d="M47.9501 33C34.6547 44.1467 23.8111 58.1221 16.3454 74C13.9999 78.9884 11.9878 84.1647 10.3378 89.5C10.3378 89.5 18.1448 95.3365 22.5 93C27.394 90.3744 22.0711 83.7187 25 79C28.5148 73.3374 38.0232 63.501 39.5 70C39.5 70 39.1672 72.4738 39.5 74C40.5629 78.8752 42.9198 66.9255 46 63C54.5378 52.1193 74.8137 31.2726 76.5 45C77.3056 51.558 68.1005 55.0629 71 61C73.8995 66.9371 85.0656 60.1823 87 66.5C88.5614 71.5995 83.3753 77.0074 81.5 82C75.0763 99.102 79.2215 113.01 71 125C69.727 126.857 76.42 134.035 74 135.5C68.2399 138.986 60.9076 131.693 57.5 137.5C53.5905 144.162 64.5 156 64.5 156L84.5 152C93.0915 146.337 96.5082 139.958 106.5 137.5C118.22 134.616 126.622 148.663 137 142.5C140.445 140.454 140.681 136.711 144.5 135.5C149.563 133.894 153.254 136.309 157.5 139.5C164.315 144.622 168.854 152.396 165 160C163.189 163.574 159.021 163.293 157.5 167C155.27 172.435 160.976 175.649 161.5 181.5C162.279 190.198 155.392 195.026 157.5 203.5C158.915 209.188 166.55 210.848 165 216.5C162.821 224.447 151.672 215.557 144.5 211.5C132.338 204.62 137.92 186.821 125 181.5C116.334 177.931 109.514 185.418 101 181.5C89.0087 175.982 90.9437 163.52 84.5 152L64.5 156C64.5 156 56.4218 162.561 50.5 162C45.6286 161.538 44.3888 155.791 39.5 156C35.8347 156.157 34.5861 159.226 31 160C20.4621 162.275 6.92065 146.5 6.92065 146.5C17.0531 202.514 66.065 245 125 245C185.33 245 235.262 200.479 243.733 142.5C243.733 142.5 224.321 126.511 211 115C203.547 108.559 201.291 96.582 191.5 95.5C182.038 94.4543 179.009 106.447 169.5 106C162.252 105.659 157.742 103.517 152.5 98.5C147.704 93.9094 146.11 89.9407 144.5 83.5C142.89 77.0593 144.5 73.1389 144.5 66.5C137.593 63.896 133.722 58.846 133 51.5C132.168 43.0339 145.14 41.4827 144.5 33C144.046 26.986 137.641 25.4968 137 19.5C136.421 14.0814 140.5 5.99182 140.5 5.99182C135.426 5.33744 130.252 5 125 5C119.748 5 114.574 5.33744 109.5 5.99182C86.238 8.99176 65.0631 18.6527 47.9501 33Z" fill="#A8EEFC"/>
<path d="M165 54.5C171.989 51.476 178.179 58.7466 184.5 54.5C188.325 51.9302 188.24 48.2572 191.5 45C196.096 40.4075 205.494 36 205.494 36C200.619 31.5882 195.38 27.5714 189.827 24L172.5 36C166.363 34.2413 160.413 36.8194 157.5 42.5C154.793 47.7772 158.948 51.6421 159.875 57.5C161.72 56.095 162.872 55.4209 165 54.5Z" fill="#A8EEFC"/>
<path d="M7.93586 98.5C6.01422 107.025 5 115.894 5 125C5 132.339 5.65886 139.524 6.92065 146.5C6.92065 146.5 20.4621 162.275 31 160C34.5861 159.226 35.8347 156.157 39.5 156C44.3888 155.791 45.6286 161.538 50.5 162C56.4218 162.561 64.5 156 64.5 156C64.5 156 53.5905 144.162 57.5 137.5C60.9076 131.693 68.2399 138.986 74 135.5C76.42 134.035 69.727 126.857 71 125C79.2215 113.01 75.0763 99.102 81.5 82C83.3753 77.0074 88.5614 71.5995 87 66.5C85.0656 60.1823 73.8995 66.9371 71 61C68.1005 55.0629 77.3056 51.558 76.5 45C74.8137 31.2726 54.5378 52.1193 46 63C42.9198 66.9255 40.5629 78.8752 39.5 74C39.1672 72.4738 39.5 70 39.5 70C38.0232 63.501 28.5148 73.3374 25 79C22.0711 83.7187 27.394 90.3744 22.5 93C18.1448 95.3365 10.3378 89.5 10.3378 89.5C9.4246 92.4529 8.62233 95.4545 7.93586 98.5Z" fill="#4CE166"/>
<path d="M140.5 5.99182C140.5 5.99182 136.421 14.0814 137 19.5C137.641 25.4968 144.046 26.986 144.5 33C145.14 41.4827 132.168 43.0339 133 51.5C133.722 58.846 137.593 63.896 144.5 66.5L159.875 57.5C158.948 51.6421 154.793 47.7772 157.5 42.5C160.413 36.8194 166.363 34.2413 172.5 36L189.827 24C179.949 17.6468 169.079 12.7031 157.5 9.45303C151.984 7.90468 146.307 6.7407 140.5 5.99182Z" fill="#4CE166"/>
<path d="M245 125C245 115.894 243.986 107.025 242.064 98.5C240.137 89.9519 237.298 81.7494 233.655 74C226.844 59.5158 217.223 46.6148 205.494 36C205.494 36 196.096 40.4075 191.5 45C188.24 48.2572 188.325 51.9302 184.5 54.5C178.179 58.7466 171.989 51.476 165 54.5C162.872 55.4209 161.72 56.095 159.875 57.5L144.5 66.5C144.5 73.1389 142.89 77.0593 144.5 83.5C146.11 89.9407 147.704 93.9094 152.5 98.5C157.742 103.517 162.252 105.659 169.5 106C179.009 106.447 182.038 94.4543 191.5 95.5C201.291 96.582 203.547 108.559 211 115C224.321 126.511 243.733 142.5 243.733 142.5C244.568 136.787 245 130.944 245 125Z" fill="#4CE166"/>
<path d="M106.5 137.5C96.5082 139.958 93.0915 146.337 84.5 152C90.9437 163.52 89.0087 175.982 101 181.5C109.514 185.418 116.334 177.931 125 181.5C137.92 186.821 132.338 204.62 144.5 211.5C151.672 215.557 162.821 224.447 165 216.5C166.55 210.848 158.915 209.188 157.5 203.5C155.392 195.026 162.279 190.198 161.5 181.5C160.976 175.649 155.27 172.435 157.5 167C159.021 163.293 163.189 163.574 165 160C168.854 152.396 164.315 144.622 157.5 139.5C153.254 136.309 149.563 133.894 144.5 135.5C140.681 136.711 140.445 140.454 137 142.5C126.622 148.663 118.22 134.616 106.5 137.5Z" fill="#4CE166"/>
<path d="M10.6372 89.0995C10.416 88.9342 10.1027 88.9794 9.93733 89.2006C9.77199 89.4218 9.81724 89.7351 10.0384 89.9005L10.6372 89.0995ZM22.5 93L22.2636 92.5594L22.5 93ZM25 79L24.5752 78.7363L25 79ZM39.5 70L39.9955 70.0667C40.0035 70.0075 40.0008 69.9474 39.9876 69.8892L39.5 70ZM39.5 74L39.0115 74.1065L39.5 74ZM46 63L45.6066 62.6913L46 63ZM76.5 45L76.9963 44.939L76.5 45ZM87 66.5L86.5219 66.6464L87 66.5ZM81.5 82L81.9681 82.1758L81.5 82ZM74 135.5L73.7411 135.072L74 135.5ZM57.5 137.5L57.9312 137.753L57.5 137.5ZM50.5 162L50.5472 161.502L50.5 162ZM39.5 156L39.5213 156.5L39.5 156ZM31 160L31.1055 160.489L31 160ZM7.30004 146.174C7.12017 145.965 6.8045 145.941 6.59497 146.121C6.38544 146.3 6.3614 146.616 6.54126 146.826L7.30004 146.174ZM106.5 137.5L106.619 137.986L106.5 137.5ZM137 142.5L136.745 142.07L137 142.5ZM144.5 135.5L144.651 135.977L144.5 135.5ZM157.5 139.5L157.2 139.9L157.5 139.5ZM165 160L165.446 160.226L165 160ZM157.5 167L157.037 166.81L157.5 167ZM161.5 181.5L161.002 181.545L161.5 181.5ZM157.5 203.5L157.015 203.621L157.5 203.5ZM165 216.5L165.482 216.632L165 216.5ZM144.5 211.5L144.746 211.065L144.5 211.5ZM125 181.5L125.19 181.038L125 181.5ZM101 181.5L101.209 181.046L101 181.5ZM140.946 6.21696C141.071 5.97039 140.972 5.66971 140.725 5.54538C140.479 5.42104 140.178 5.52012 140.054 5.76668L140.946 6.21696ZM137 19.5L136.503 19.5532L137 19.5ZM144.5 33L144.999 32.9624L144.5 33ZM133 51.5L132.502 51.5489L133 51.5ZM152.5 98.5L152.154 98.8612L152.5 98.5ZM169.5 106L169.477 106.499L169.5 106ZM191.5 95.5L191.445 95.997L191.5 95.5ZM211 115L210.673 115.378L211 115ZM243.415 142.886C243.628 143.062 243.943 143.031 244.119 142.818C244.295 142.605 244.264 142.29 244.051 142.114L243.415 142.886ZM165 54.5L165.199 54.9589L165 54.5ZM184.5 54.5L184.221 54.085L184.5 54.5ZM191.5 45L191.147 44.6463L191.5 45ZM205.706 36.4527C205.956 36.3354 206.064 36.0377 205.946 35.7877C205.829 35.5377 205.531 35.4301 205.281 35.5473L205.706 36.4527ZM159.875 57.5L160.128 57.9315C160.145 57.9213 160.162 57.91 160.178 57.8978L159.875 57.5ZM157.5 42.5L157.945 42.7282L157.5 42.5ZM190.111 24.411C190.338 24.2538 190.395 23.9423 190.238 23.7153C190.081 23.4883 189.769 23.4317 189.542 23.589L190.111 24.411ZM157.948 9.6758C158.071 9.42858 157.97 9.12844 157.723 9.0054C157.476 8.88237 157.175 8.98305 157.052 9.23027L157.948 9.6758ZM152.052 19.2772C151.929 19.5245 152.03 19.8246 152.277 19.9476C152.524 20.0707 152.825 19.97 152.948 19.7228L152.052 19.2772ZM121.895 26.193C121.725 25.9751 121.411 25.9358 121.193 26.1053C120.975 26.2749 120.936 26.589 121.105 26.807L121.895 26.193ZM124.605 31.307C124.775 31.5249 125.089 31.5642 125.307 31.3947C125.525 31.2251 125.564 30.911 125.395 30.693L124.605 31.307ZM174.533 42.6795C174.632 42.9372 174.922 43.0658 175.179 42.9667C175.437 42.8675 175.566 42.5782 175.467 42.3205L174.533 42.6795ZM61.9271 74.26C62.0707 74.0241 61.9959 73.7165 61.76 73.5729C61.5241 73.4293 61.2165 73.5041 61.0729 73.74L61.9271 74.26ZM54.0729 85.24C53.9293 85.4759 54.0041 85.7835 54.24 85.9271C54.4759 86.0707 54.7835 85.9959 54.9271 85.76L54.0729 85.24ZM71 125L70.5876 124.717L71 125ZM10.3378 89.5C10.0384 89.9005 10.0385 89.9006 10.0387 89.9007C10.0388 89.9007 10.0389 89.9009 10.0391 89.901C10.0395 89.9013 10.04 89.9016 10.0406 89.9021C10.0417 89.9029 10.0434 89.9042 10.0455 89.9058C10.0498 89.9089 10.0559 89.9135 10.0639 89.9193C10.0798 89.9311 10.1031 89.9481 10.1333 89.9699C10.1937 90.0137 10.282 90.0769 10.3955 90.1562C10.6223 90.3146 10.9501 90.5374 11.3566 90.7969C12.1687 91.3153 13.3003 91.9837 14.5739 92.5791C15.8446 93.1732 17.2752 93.7036 18.6821 93.9324C20.086 94.1607 21.5146 94.0961 22.7364 93.4406L22.2636 92.5594C21.3078 93.0722 20.1274 93.1543 18.8425 92.9453C17.5607 92.7369 16.223 92.2462 14.9975 91.6733C13.7749 91.1017 12.6826 90.457 11.8947 89.954C11.5013 89.7029 11.1851 89.4879 10.968 89.3363C10.8595 89.2605 10.7759 89.2006 10.7198 89.16C10.6918 89.1397 10.6706 89.1242 10.6567 89.114C10.6498 89.1089 10.6447 89.1051 10.6414 89.1027C10.6398 89.1015 10.6386 89.1006 10.6379 89.1001C10.6375 89.0998 10.6373 89.0996 10.6372 89.0995C10.6371 89.0995 10.6371 89.0995 10.6371 89.0995C10.6371 89.0995 10.6372 89.0995 10.3378 89.5ZM22.7364 93.4406C24.0941 92.7122 24.7668 91.6789 25.0317 90.4759C25.288 89.3119 25.1582 88.0046 24.9823 86.7172C24.8022 85.3993 24.5723 84.0917 24.5619 82.805C24.5517 81.532 24.7596 80.3354 25.4248 79.2637L24.5752 78.7363C23.7759 80.024 23.5508 81.4288 23.562 82.813C23.573 84.1834 23.8188 85.5886 23.9915 86.8526C24.1684 88.1472 24.2687 89.291 24.0551 90.2609C23.8501 91.1918 23.3529 91.975 22.2636 92.5594L22.7364 93.4406ZM25.4248 79.2637C27.1565 76.4738 30.3749 72.6457 33.3229 70.3328C34.8135 69.1633 36.1502 68.45 37.1474 68.3664C37.6228 68.3266 37.9897 68.4319 38.276 68.6718C38.5721 68.9198 38.8423 69.3623 39.0124 70.1108L39.9876 69.8892C39.7885 69.013 39.4385 68.3411 38.9182 67.9053C38.3882 67.4612 37.7425 67.313 37.0639 67.3699C35.753 67.4798 34.2161 68.3609 32.7056 69.546C29.6515 71.9422 26.3583 75.8636 24.5752 78.7363L25.4248 79.2637ZM39.5 70C39.0045 69.9333 39.0045 69.9334 39.0044 69.9335C39.0044 69.9335 39.0044 69.9336 39.0044 69.9337C39.0044 69.9338 39.0044 69.934 39.0043 69.9342C39.0043 69.9346 39.0042 69.9352 39.0041 69.936C39.0039 69.9375 39.0036 69.9395 39.0033 69.9422C39.0026 69.9475 39.0016 69.9551 39.0004 69.965C38.9978 69.9847 38.9943 70.0132 38.9899 70.0499C38.9811 70.1231 38.9691 70.2287 38.9558 70.3598C38.9291 70.6218 38.8972 70.9872 38.8759 71.402C38.8339 72.2187 38.8301 73.2747 39.0115 74.1065L39.9885 73.8935C39.8371 73.1991 39.8333 72.2551 39.8746 71.4533C39.8948 71.0589 39.9253 70.7105 39.9506 70.4609C39.9633 70.3363 39.9747 70.2367 39.9828 70.1687C39.9869 70.1347 39.9901 70.1086 39.9923 70.0913C39.9934 70.0827 39.9943 70.0763 39.9948 70.0721C39.9951 70.07 39.9953 70.0685 39.9954 70.0676C39.9955 70.0672 39.9955 70.0669 39.9955 70.0667C39.9955 70.0666 39.9955 70.0666 39.9955 70.0666C39.9955 70.0666 39.9955 70.0666 39.9955 70.0666C39.9955 70.0666 39.9955 70.0667 39.5 70ZM39.0115 74.1065C39.0815 74.4275 39.161 74.6998 39.2543 74.919C39.3435 75.1283 39.4668 75.3412 39.6537 75.4847C39.8748 75.6544 40.1454 75.6954 40.4028 75.601C40.6191 75.5217 40.7875 75.3613 40.913 75.2124C41.1695 74.9085 41.4201 74.4404 41.6659 73.9058C41.9168 73.3598 42.1825 72.6994 42.46 71.9803C43.0193 70.5311 43.6283 68.8415 44.2953 67.2541C44.9645 65.6616 45.668 64.2331 46.3934 63.3087L45.6066 62.6913C44.7919 63.7297 44.0457 65.2669 43.3734 66.8667C42.6991 68.4715 42.0749 70.2007 41.527 71.6202C41.251 72.3354 40.9946 72.9719 40.7573 73.4882C40.5147 74.0158 40.3109 74.3754 40.1488 74.5675C40.0651 74.6667 40.0332 74.6714 40.0584 74.6622C40.1248 74.6378 40.2136 74.6539 40.2626 74.6914C40.2773 74.7027 40.2379 74.6764 40.1743 74.527C40.1149 74.3875 40.0514 74.1819 39.9885 73.8935L39.0115 74.1065ZM46.3934 63.3087C50.6493 57.8848 57.823 49.989 64.1231 45.1691C65.6959 43.9659 67.2044 42.9619 68.5914 42.2369C69.9837 41.5092 71.2239 41.0784 72.2661 40.9893C73.294 40.9016 74.1003 41.146 74.7044 41.7419C75.3244 42.3535 75.7999 43.4018 76.0037 45.061L76.9963 44.939C76.7785 43.1663 76.2515 41.8633 75.4066 41.0299C74.5457 40.1808 73.4246 39.8868 72.1811 39.993C70.9519 40.0979 69.5767 40.5935 68.1281 41.3507C66.6742 42.1107 65.1163 43.1502 63.5155 44.3749C57.1216 49.2666 49.8885 57.2345 45.6066 62.6913L46.3934 63.3087ZM76.0037 45.061C76.3768 48.0978 74.4466 50.4368 72.5655 52.9318C71.65 54.1462 70.7492 55.4032 70.2775 56.7525C69.7953 58.1315 69.7615 59.6034 70.5507 61.2194L71.4493 60.7806C70.7888 59.4281 70.8183 58.2354 71.2214 57.0825C71.6349 55.8999 72.4414 54.7576 73.364 53.5338C75.1593 51.1526 77.4288 48.4602 76.9963 44.939L76.0037 45.061ZM70.5507 61.2194C71.3635 62.8837 72.7648 63.6446 74.3521 63.9657C75.9102 64.2809 77.7069 64.1842 79.385 64.1067C81.1022 64.0274 82.6901 63.9688 83.9681 64.2947C84.5963 64.4549 85.1256 64.7032 85.5479 65.0706C85.9668 65.4349 86.3048 65.9374 86.5219 66.6464L87.4781 66.3536C87.2116 65.4832 86.7775 64.8147 86.2042 64.316C85.6343 63.8203 84.9512 63.5134 84.2152 63.3257C82.7649 62.9558 81.0173 63.0302 79.3388 63.1078C77.6212 63.1871 75.9618 63.2711 74.5503 62.9856C73.168 62.7059 72.0863 62.0849 71.4493 60.7806L70.5507 61.2194ZM86.5219 66.6464C87.2409 68.9945 86.4219 71.4634 85.0935 74.0625C84.4317 75.3574 83.668 76.6406 82.9344 77.9437C82.2072 79.2354 81.5152 80.5377 81.0319 81.8242L81.9681 82.1758C82.4225 80.966 83.0819 79.7201 83.8058 78.4343C84.5232 77.1599 85.31 75.8363 85.984 74.5176C87.3271 71.8898 88.3205 69.105 87.4781 66.3536L86.5219 66.6464ZM73.7411 135.072C72.416 135.874 70.9896 136.066 69.5041 135.968C68.0024 135.868 66.491 135.478 64.9762 135.142C63.4936 134.812 61.9921 134.531 60.632 134.733C59.226 134.943 57.9973 135.665 57.0688 137.247L57.9312 137.753C58.7065 136.432 59.6722 135.888 60.7794 135.722C61.9325 135.551 63.263 135.785 64.7594 136.118C66.2236 136.443 67.8383 136.86 69.438 136.966C71.0538 137.073 72.7039 136.869 74.2589 135.928L73.7411 135.072ZM57.0688 137.247C56.0026 139.064 55.9684 141.198 56.4573 143.314C56.9464 145.43 57.9711 147.585 59.1034 149.503C60.2379 151.424 61.4939 153.132 62.4646 154.357C62.9504 154.97 63.3658 155.464 63.6604 155.805C63.8077 155.976 63.9249 156.108 64.0056 156.199C64.046 156.244 64.0773 156.278 64.0987 156.302C64.1093 156.314 64.1176 156.323 64.1232 156.329C64.126 156.332 64.1282 156.334 64.1297 156.336C64.1305 156.337 64.1311 156.337 64.1315 156.338C64.1317 156.338 64.1319 156.338 64.132 156.339C64.1322 156.339 64.1323 156.339 64.5 156C64.8677 155.661 64.8677 155.661 64.8677 155.661C64.8676 155.661 64.8676 155.661 64.8675 155.661C64.8673 155.661 64.8669 155.66 64.8663 155.66C64.8652 155.658 64.8634 155.657 64.861 155.654C64.8562 155.649 64.8488 155.641 64.839 155.63C64.8193 155.608 64.7898 155.575 64.7512 155.532C64.6741 155.446 64.5607 155.318 64.4173 155.152C64.1306 154.819 63.7243 154.336 63.2484 153.736C62.2957 152.533 61.0687 150.865 59.9645 148.994C58.8581 147.12 57.8885 145.065 57.4316 143.089C56.9745 141.111 57.0426 139.267 57.9312 137.753L57.0688 137.247ZM64.5 156C64.1848 155.612 64.1848 155.612 64.1848 155.612C64.1848 155.612 64.1848 155.612 64.1847 155.612C64.1846 155.612 64.1843 155.612 64.1839 155.613C64.1831 155.613 64.1819 155.614 64.1801 155.616C64.1766 155.618 64.1712 155.623 64.1639 155.629C64.1493 155.64 64.1272 155.658 64.0977 155.681C64.0389 155.728 63.9512 155.797 63.837 155.884C63.6086 156.059 63.2746 156.31 62.8549 156.609C62.0148 157.209 60.8347 158.001 59.4734 158.776C56.7215 160.341 53.341 161.767 50.5472 161.502L50.4528 162.498C53.5808 162.794 57.2003 161.22 59.9679 159.645C61.3664 158.849 62.5759 158.037 63.4356 157.423C63.8658 157.117 64.2091 156.859 64.4456 156.678C64.5639 156.587 64.6555 156.515 64.7179 156.466C64.7491 156.441 64.773 156.422 64.7894 156.409C64.7975 156.402 64.8038 156.397 64.8081 156.394C64.8103 156.392 64.812 156.391 64.8131 156.39C64.8137 156.389 64.8142 156.389 64.8145 156.389C64.8147 156.389 64.8149 156.388 64.815 156.388C64.8151 156.388 64.8152 156.388 64.5 156ZM50.5472 161.502C48.3137 161.291 46.9088 159.881 45.3527 158.388C43.8304 156.927 42.1574 155.386 39.4787 155.5L39.5213 156.5C41.7314 156.405 43.1227 157.634 44.6603 159.109C46.1641 160.553 47.8149 162.248 50.4528 162.498L50.5472 161.502ZM39.4787 155.5C37.489 155.585 36.1575 156.471 34.9268 157.364C33.6866 158.263 32.5652 159.151 30.8945 159.511L31.1055 160.489C33.0208 160.075 34.3168 159.041 35.5138 158.173C36.7202 157.298 37.8457 156.571 39.5213 156.5L39.4787 155.5ZM30.8945 159.511C28.3978 160.05 25.6856 159.527 22.986 158.389C20.2897 157.254 17.6477 155.523 15.3157 153.708C12.9859 151.895 10.98 150.01 9.55583 148.577C8.84415 147.861 8.27874 147.258 7.89187 146.836C7.69845 146.624 7.54973 146.458 7.44973 146.345C7.39974 146.289 7.36193 146.246 7.33681 146.217C7.32425 146.202 7.31486 146.191 7.30871 146.184C7.30564 146.181 7.30337 146.178 7.30192 146.177C7.3012 146.176 7.30068 146.175 7.30036 146.175C7.30021 146.175 7.30012 146.174 7.30005 146.174C7.30002 146.174 7.30004 146.174 6.92065 146.5C6.54126 146.826 6.54139 146.826 6.54156 146.826C6.54169 146.826 6.54192 146.826 6.54217 146.827C6.54268 146.827 6.5434 146.828 6.54432 146.829C6.54616 146.831 6.54882 146.834 6.5523 146.838C6.55924 146.847 6.56944 146.858 6.58282 146.874C6.60959 146.904 6.64911 146.949 6.70086 147.008C6.80437 147.125 6.95687 147.295 7.15431 147.511C7.54915 147.942 8.12399 148.555 8.84647 149.282C10.2906 150.735 12.3287 152.651 14.7015 154.498C17.0721 156.342 19.7914 158.129 22.5978 159.311C25.401 160.492 28.3332 161.087 31.1055 160.489L30.8945 159.511ZM64.5 156C64.5981 156.49 64.5981 156.49 64.5982 156.49C64.5983 156.49 64.5984 156.49 64.5986 156.49C64.6047 156.489 64.5938 156.491 64.6003 156.49C64.6059 156.489 64.5998 156.49 64.6069 156.489C64.6151 156.487 64.6193 156.486 64.6333 156.483C64.6573 156.478 64.6905 156.472 64.7369 156.463C64.8278 156.444 64.963 156.417 65.1371 156.382C65.4858 156.313 65.9921 156.211 66.6247 156.085C67.8896 155.832 69.6572 155.478 71.6691 155.076C75.6928 154.271 80.6928 153.271 84.5981 152.49L84.4019 151.51C80.4967 152.291 75.4967 153.291 71.473 154.095C69.4612 154.498 67.6933 154.851 66.4286 155.104C65.7964 155.231 65.2893 155.332 64.941 155.402C64.7665 155.437 64.6321 155.464 64.5407 155.482C64.4959 155.491 64.4597 155.498 64.4371 155.503C64.4278 155.505 64.4144 155.507 64.4108 155.508C64.4101 155.508 64.4094 155.508 64.4087 155.508C64.4081 155.508 64.4075 155.509 64.4069 155.509C64.4064 155.509 64.4059 155.509 64.4054 155.509C64.405 155.509 64.4045 155.509 64.4042 155.509C64.4038 155.509 64.4035 155.509 64.4032 155.509C64.4029 155.51 64.4027 155.51 64.4025 155.51C64.4023 155.51 64.4022 155.51 64.4021 155.51C64.402 155.51 64.4019 155.51 64.5 156ZM84.7752 152.417C89.0986 149.568 92.1613 146.507 95.2923 143.935C98.436 141.352 101.722 139.191 106.619 137.986L106.381 137.014C101.287 138.268 97.8679 140.525 94.6575 143.162C91.4343 145.81 88.4929 148.769 84.2248 151.583L84.7752 152.417ZM106.619 137.986C112.268 136.596 117.118 139.272 122.034 141.679C126.882 144.053 131.814 146.161 137.255 142.93L136.745 142.07C131.808 145.001 127.35 143.168 122.473 140.781C117.664 138.426 112.453 135.521 106.381 137.014L106.619 137.986ZM137.255 142.93C139.086 141.843 140.069 140.294 141.015 138.979C141.971 137.653 142.904 136.531 144.651 135.977L144.349 135.023C142.277 135.681 141.183 137.036 140.204 138.395C139.217 139.766 138.359 141.112 136.745 142.07L137.255 142.93ZM144.651 135.977C149.447 134.456 152.942 136.7 157.2 139.9L157.8 139.1C153.566 135.918 149.68 133.333 144.349 135.023L144.651 135.977ZM157.2 139.9C160.558 142.424 163.329 145.583 164.791 149.015C166.246 152.433 166.405 156.122 164.554 159.774L165.446 160.226C167.449 156.275 167.265 152.274 165.711 148.623C164.162 144.987 161.256 141.698 157.8 139.1L157.2 139.9ZM164.554 159.774C163.726 161.408 162.368 162.166 160.891 163.017C159.436 163.855 157.869 164.784 157.037 166.81L157.963 167.19C158.652 165.51 159.929 164.725 161.391 163.883C162.831 163.054 164.463 162.165 165.446 160.226L164.554 159.774ZM157.037 166.81C155.832 169.748 156.8 172.091 158.029 174.334C159.274 176.607 160.752 178.752 161.002 181.545L161.998 181.455C161.724 178.397 160.087 176.009 158.906 173.854C157.708 171.668 156.938 169.686 157.963 167.19L157.037 166.81ZM161.002 181.545C161.379 185.752 159.909 189.018 158.538 192.396C157.174 195.758 155.919 199.216 157.015 203.621L157.985 203.379C156.973 199.31 158.108 196.116 159.465 192.772C160.816 189.443 162.4 185.946 161.998 181.455L161.002 181.545ZM157.015 203.621C157.765 206.639 160.175 208.591 162.014 210.372C162.957 211.286 163.755 212.15 164.234 213.108C164.701 214.041 164.871 215.079 164.518 216.368L165.482 216.632C165.904 215.095 165.701 213.805 165.128 212.66C164.567 211.539 163.658 210.573 162.71 209.654C160.764 207.77 158.649 206.049 157.985 203.379L157.015 203.621ZM164.518 216.368C164.263 217.298 163.887 217.942 163.44 218.374C162.997 218.802 162.454 219.051 161.812 219.148C160.496 219.346 158.785 218.905 156.823 218.044C154.879 217.191 152.77 215.963 150.684 214.684C148.611 213.414 146.549 212.085 144.746 211.065L144.254 211.935C146.037 212.944 148.058 214.248 150.161 215.537C152.251 216.818 154.41 218.077 156.422 218.96C158.416 219.835 160.349 220.379 161.961 220.136C162.782 220.013 163.524 219.684 164.135 219.093C164.743 218.506 165.193 217.688 165.482 216.632L164.518 216.368ZM144.746 211.065C138.872 207.742 137.267 201.794 135.514 195.776C133.782 189.826 131.899 183.8 125.19 181.038L124.81 181.962C131.021 184.521 132.807 190.055 134.554 196.055C136.281 201.987 137.966 208.378 144.254 211.935L144.746 211.065ZM125.19 181.038C120.686 179.183 116.659 180.214 112.825 181.145C108.962 182.083 105.291 182.924 101.209 181.046L100.791 181.954C105.224 183.994 109.219 183.05 113.061 182.117C116.932 181.176 120.647 180.248 124.81 181.962L125.19 181.038ZM101.209 181.046C95.3897 178.368 92.9415 174.021 91.142 168.837C90.2317 166.214 89.512 163.458 88.5869 160.542C87.6702 157.653 86.5709 154.678 84.9364 151.756L84.0636 152.244C85.6509 155.082 86.7262 157.985 87.6337 160.845C88.5327 163.678 89.287 166.542 90.1973 169.165C92.039 174.471 94.619 179.114 100.791 181.954L101.209 181.046ZM140.5 5.99182C140.054 5.76668 140.053 5.76679 140.053 5.76692C140.053 5.76701 140.053 5.76717 140.053 5.76734C140.053 5.76768 140.053 5.76815 140.053 5.76873C140.052 5.76991 140.051 5.77157 140.05 5.77372C140.048 5.77802 140.045 5.78426 140.041 5.79239C140.033 5.80866 140.021 5.83252 140.005 5.86365C139.975 5.9259 139.931 6.01721 139.874 6.13497C139.762 6.37045 139.603 6.71182 139.414 7.13801C139.037 7.98992 138.54 9.18306 138.061 10.5484C137.11 13.2576 136.2 16.7253 136.503 19.5532L137.497 19.4468C137.22 16.8561 138.06 13.5697 139.004 10.8795C139.473 9.5451 139.959 8.37718 140.329 7.54297C140.513 7.12609 140.669 6.79312 140.777 6.56504C140.832 6.45101 140.874 6.36324 140.903 6.30434C140.918 6.27489 140.929 6.25267 140.936 6.23799C140.94 6.23066 140.942 6.22521 140.944 6.22169C140.945 6.21993 140.946 6.21865 140.946 6.21786C140.946 6.21747 140.946 6.21719 140.946 6.21704C140.946 6.21697 140.946 6.21695 140.946 6.21691C140.946 6.21692 140.946 6.21696 140.5 5.99182ZM136.503 19.5532C136.844 22.7387 138.728 24.7236 140.454 26.5836C142.2 28.4661 143.789 30.2249 144.001 33.0376L144.999 32.9624C144.757 29.7612 142.917 27.7684 141.187 25.9035C139.436 24.0163 137.798 22.2582 137.497 19.4468L136.503 19.5532ZM144.001 33.0376C144.299 36.9782 141.467 39.3247 138.361 41.8695C135.347 44.3389 132.056 47.0091 132.502 51.5489L133.498 51.4511C133.112 47.5248 135.891 45.1864 138.995 42.643C142.007 40.175 145.341 37.5045 144.999 32.9624L144.001 33.0376ZM132.502 51.5489C132.871 55.2992 134.047 58.4907 136.034 61.0824C138.021 63.6742 140.798 65.6384 144.324 66.9679L144.676 66.0321C141.296 64.7575 138.683 62.8948 136.827 60.474C134.971 58.0533 133.851 55.0468 133.498 51.4511L132.502 51.5489ZM144 66.5C144 69.7952 143.602 72.3771 143.398 75.036C143.194 77.6831 143.192 80.3313 144.015 83.6213L144.985 83.3787C144.197 80.228 144.196 77.6957 144.395 75.1127C144.593 72.5415 145 69.8437 145 66.5H144ZM144.015 83.6213C145.637 90.1106 147.264 94.1804 152.154 98.8612L152.846 98.1388C148.144 93.6384 146.583 89.7707 144.985 83.3787L144.015 83.6213ZM152.154 98.8612C154.801 101.395 157.286 103.224 160.043 104.46C162.802 105.697 165.806 106.327 169.477 106.499L169.523 105.501C165.945 105.332 163.071 104.721 160.452 103.548C157.832 102.373 155.441 100.623 152.846 98.1388L152.154 98.8612ZM169.477 106.499C174.467 106.734 177.751 103.684 180.852 100.897C184 98.0678 186.964 95.5018 191.445 95.997L191.555 95.003C186.573 94.4525 183.292 97.36 180.183 100.154C177.027 102.99 174.042 105.713 169.523 105.501L169.477 106.499ZM191.445 95.997C196.11 96.5125 199.011 99.6116 201.715 103.525C202.39 104.501 203.047 105.52 203.716 106.556C204.384 107.591 205.063 108.642 205.774 109.672C207.197 111.732 208.763 113.728 210.673 115.378L211.327 114.622C209.51 113.052 208 111.135 206.597 109.104C205.896 108.089 205.225 107.05 204.556 106.014C203.889 104.98 203.223 103.948 202.538 102.956C199.804 99.0002 196.681 95.5695 191.555 95.003L191.445 95.997ZM210.673 115.378C217.337 121.137 225.523 128.014 232.042 133.451C235.301 136.169 238.145 138.528 240.173 140.207C241.187 141.047 241.998 141.716 242.555 142.176C242.833 142.406 243.048 142.583 243.194 142.703C243.267 142.763 243.322 142.809 243.359 142.84C243.378 142.855 243.392 142.867 243.401 142.874C243.406 142.878 243.409 142.881 243.412 142.883C243.413 142.884 243.414 142.885 243.414 142.885C243.415 142.885 243.415 142.886 243.415 142.886C243.415 142.886 243.415 142.886 243.733 142.5C244.051 142.114 244.051 142.114 244.051 142.114C244.051 142.114 244.05 142.114 244.05 142.113C244.05 142.113 244.049 142.112 244.048 142.111C244.045 142.109 244.042 142.106 244.037 142.102C244.028 142.095 244.014 142.083 243.995 142.068C243.958 142.037 243.903 141.992 243.83 141.932C243.685 141.812 243.47 141.635 243.191 141.405C242.635 140.945 241.825 140.276 240.811 139.437C238.783 137.758 235.941 135.4 232.682 132.683C226.165 127.247 217.984 120.374 211.327 114.622L210.673 115.378ZM165.199 54.9589C168.501 53.5302 171.611 54.5188 174.864 55.4396C178.064 56.3452 181.408 57.1797 184.779 54.915L184.221 54.085C181.271 56.067 178.359 55.3894 175.137 54.4774C171.967 53.5805 168.488 52.4458 164.801 54.0411L165.199 54.9589ZM184.779 54.915C186.797 53.5589 187.78 51.9067 188.655 50.2402C189.532 48.5686 190.289 46.9164 191.853 45.3537L191.147 44.6463C189.451 46.3408 188.621 48.1537 187.769 49.7754C186.915 51.4021 186.028 52.8713 184.221 54.085L184.779 54.915ZM191.853 45.3537C194.102 43.1069 197.552 40.8838 200.469 39.2116C201.922 38.3787 203.233 37.6882 204.18 37.206C204.654 36.965 205.036 36.7762 205.3 36.6479C205.432 36.5837 205.534 36.5347 205.602 36.5018C205.637 36.4854 205.663 36.473 205.68 36.4647C205.689 36.4606 205.696 36.4576 205.7 36.4555C205.702 36.4545 205.704 36.4538 205.705 36.4533C205.705 36.4531 205.705 36.4529 205.706 36.4528C205.706 36.4527 205.706 36.4527 205.706 36.4527C205.706 36.4527 205.706 36.4527 205.494 36C205.281 35.5473 205.281 35.5474 205.281 35.5474C205.281 35.5475 205.281 35.5475 205.281 35.5476C205.28 35.5478 205.28 35.548 205.279 35.5483C205.278 35.5489 205.276 35.5498 205.274 35.5509C205.269 35.5531 205.262 35.5565 205.253 35.5608C205.234 35.5696 205.207 35.5825 205.172 35.5994C205.1 35.6333 204.996 35.6835 204.862 35.7488C204.594 35.8795 204.206 36.0709 203.727 36.3148C202.768 36.8026 201.443 37.501 199.972 38.344C197.041 40.0237 193.494 42.3006 191.147 44.6463L191.853 45.3537ZM144.753 66.9315C150.757 63.4168 154.123 61.4462 160.128 57.9315L159.622 57.0685C153.618 60.5832 150.252 62.5538 144.247 66.0685L144.753 66.9315ZM160.178 57.8978C161.991 56.5173 163.107 55.8638 165.199 54.9589L164.801 54.0411C162.636 54.9781 161.449 55.6727 159.572 57.1022L160.178 57.8978ZM160.369 57.4218C160.129 55.9094 159.683 54.5337 159.2 53.2509C158.707 51.9418 158.205 50.7978 157.797 49.6187C157.002 47.3216 156.68 45.1937 157.945 42.7282L157.055 42.2718C155.613 45.0836 156.015 47.5268 156.852 49.9458C157.26 51.1248 157.802 52.3752 158.264 53.6032C158.736 54.8576 159.157 56.1616 159.381 57.5782L160.369 57.4218ZM157.945 42.7282C160.749 37.26 166.455 34.7878 172.362 36.4807L172.638 35.5193C166.271 33.6949 160.078 36.3787 157.055 42.2718L157.945 42.7282ZM172.785 36.411C176.168 34.0679 180.5 31.0679 183.986 28.6537C185.728 27.4466 187.26 26.3859 188.356 25.627C188.904 25.2476 189.343 24.9436 189.645 24.7345C189.795 24.6299 189.912 24.549 189.991 24.4943C190.031 24.467 190.061 24.4462 190.081 24.4322C190.091 24.4252 190.099 24.4199 190.104 24.4164C190.106 24.4145 190.108 24.4133 190.11 24.4124C190.11 24.4122 190.11 24.412 190.11 24.4118C190.111 24.4116 190.111 24.4115 190.111 24.4114C190.111 24.4113 190.111 24.4112 190.111 24.4111C190.111 24.4111 190.111 24.411 189.827 24C189.542 23.589 189.542 23.589 189.542 23.589C189.542 23.5891 189.542 23.5892 189.542 23.5893C189.541 23.5897 189.541 23.5897 189.54 23.5903C189.539 23.5911 189.537 23.5926 189.534 23.5943C189.529 23.5978 189.522 23.603 189.512 23.6101C189.491 23.624 189.461 23.6449 189.422 23.6722C189.343 23.7269 189.226 23.8078 189.075 23.9124C188.773 24.1215 188.334 24.4255 187.786 24.8049C186.691 25.5638 185.159 26.6245 183.416 27.8316C179.93 30.2458 175.599 33.2458 172.215 35.589L172.785 36.411ZM157.5 9.45303C157.052 9.23027 157.052 9.23029 157.052 9.23034C157.052 9.23038 157.052 9.23045 157.052 9.23055C157.052 9.23099 157.052 9.23075 157.052 9.23138C157.052 9.23157 157.052 9.23178 157.051 9.23201C157.051 9.23224 157.051 9.2325 157.051 9.23277C157.049 9.23693 157.052 9.23038 157.05 9.23472C157.049 9.2365 157.046 9.24327 157.044 9.24795C157.038 9.25951 157.029 9.27724 157.018 9.29999C156.995 9.34587 156.961 9.41343 156.918 9.50104C156.83 9.67626 156.704 9.93055 156.546 10.2483C156.229 10.8838 155.788 11.7717 155.285 12.7824C154.279 14.8037 153.029 17.3154 152.052 19.2772L152.948 19.7228C153.924 17.761 155.174 15.2492 156.18 13.2279C156.683 12.2173 157.125 11.3292 157.441 10.6939C157.599 10.3763 157.726 10.1216 157.813 9.94658C157.856 9.8591 157.89 9.79127 157.913 9.74553C157.924 9.72248 157.933 9.70534 157.939 9.69349C157.942 9.68646 157.943 9.68439 157.945 9.68026C157.947 9.67609 157.945 9.68035 157.947 9.67692C157.947 9.67674 157.947 9.67657 157.947 9.67643C157.947 9.67629 157.947 9.67618 157.947 9.67608C157.948 9.67599 157.948 9.67592 157.948 9.67587C157.948 9.67583 157.948 9.6758 157.5 9.45303ZM121.105 26.807L124.605 31.307L125.395 30.693L121.895 26.193L121.105 26.807ZM172.033 36.1795C172.521 37.4487 173.146 39.0737 173.649 40.3814C173.901 41.0352 174.122 41.6098 174.28 42.0208C174.359 42.2263 174.422 42.391 174.466 42.5043C174.488 42.561 174.505 42.6047 174.516 42.6344C174.522 42.6491 174.526 42.6606 174.529 42.668C174.53 42.6717 174.532 42.6748 174.532 42.6766C174.533 42.6777 174.533 42.6782 174.533 42.6788C174.533 42.6789 174.533 42.679 174.533 42.6791C174.533 42.6792 174.533 42.6792 174.533 42.6793C174.533 42.6794 174.533 42.6794 174.533 42.6794C174.533 42.6795 174.533 42.6795 175 42.5C175.467 42.3205 175.467 42.3205 175.467 42.3205C175.467 42.3204 175.467 42.3204 175.467 42.3203C175.466 42.3196 175.467 42.3206 175.466 42.3198C175.466 42.3194 175.466 42.3185 175.466 42.3176C175.465 42.3156 175.464 42.313 175.462 42.3091C175.459 42.3014 175.455 42.2903 175.449 42.2754C175.438 42.2458 175.421 42.202 175.399 42.1453C175.356 42.032 175.292 41.8674 175.213 41.6618C175.055 41.2508 174.834 40.6763 174.583 40.0224C174.08 38.7147 173.455 37.0897 172.967 35.8205L172.033 36.1795ZM61.0729 73.74L54.0729 85.24L54.9271 85.76L61.9271 74.26L61.0729 73.74ZM81.0319 81.8242C77.7935 90.446 77.2193 98.2684 76.4273 105.362C75.6333 112.471 74.6219 118.834 70.5876 124.717L71.4124 125.283C75.5995 119.176 76.6263 112.59 77.4211 105.473C78.2177 98.3386 78.7828 90.6559 81.9681 82.1758L81.0319 81.8242ZM70.5876 124.717C70.3253 125.1 70.3034 125.566 70.3682 125.998C70.4339 126.437 70.6005 126.921 70.8125 127.415C71.2355 128.401 71.8952 129.549 72.4917 130.637C73.1016 131.75 73.644 132.796 73.8935 133.644C74.0183 134.068 74.0547 134.394 74.0192 134.63C73.9874 134.842 73.9012 134.975 73.7411 135.072L74.2589 135.928C74.7038 135.658 74.9378 135.247 75.0081 134.779C75.0749 134.335 74.9953 133.845 74.8528 133.361C74.5678 132.393 73.9703 131.254 73.3685 130.157C72.7534 129.035 72.1297 127.949 71.7315 127.021C71.5328 126.558 71.4043 126.165 71.3571 125.85C71.309 125.529 71.3565 125.364 71.4124 125.283L70.5876 124.717ZM64.5981 156.49L84.5981 152.49L84.4019 151.51L64.4019 155.51L64.5981 156.49ZM189.542 23.589L172.215 35.589L172.785 36.411L190.111 24.411L189.542 23.589ZM159.622 57.0685L144.247 66.0685L144.753 66.9315L160.128 57.9315L159.622 57.0685ZM7.93586 98.5L6.96033 98.2801L7.93586 98.5ZM242.064 98.5L243.04 98.2801L242.064 98.5ZM16.3454 74L17.2504 74.4255L16.3454 74ZM233.655 74L234.56 73.5745L233.655 74ZM47.9501 33L48.5926 33.7663L47.9501 33ZM109.5 5.99182L109.628 6.98361L109.5 5.99182ZM10.3378 89.5L9.38244 89.2046L10.3378 89.5ZM6.92065 146.5L5.93662 146.678L6.92065 146.5ZM140.5 5.99182L140.628 5.00003L140.5 5.99182ZM243.733 142.5L244.723 142.645L243.733 142.5ZM205.494 36L206.165 35.2585L205.494 36ZM189.827 24L190.368 23.1589L189.827 24ZM157.5 9.45303L157.77 8.49025L157.5 9.45303ZM6 125C6 115.969 7.0059 107.173 8.91138 98.7199L6.96033 98.2801C5.02254 106.877 4 115.82 4 125H6ZM241.089 98.7199C242.994 107.173 244 115.969 244 125H246C246 115.82 244.977 106.877 243.04 98.2801L241.089 98.7199ZM232.75 74.4255C236.363 82.1099 239.178 90.2436 241.089 98.7199L243.04 98.2801C241.097 89.6602 238.234 81.3888 234.56 73.5745L232.75 74.4255ZM17.2504 74.4255C24.6536 58.6804 35.4071 44.8209 48.5926 33.7663L47.3077 32.2337C33.9023 43.4725 22.9686 57.5638 15.4405 73.5745L17.2504 74.4255ZM48.5926 33.7663C65.5637 19.538 86.5612 9.95835 109.628 6.98361L109.372 5.00003C85.9147 8.02517 64.5625 17.7675 47.3077 32.2337L48.5926 33.7663ZM109.628 6.98361C114.66 6.33468 119.791 6 125 6V4C119.705 4 114.489 4.3402 109.372 5.00003L109.628 6.98361ZM8.91138 98.7199C9.59209 95.7 10.3876 92.7235 11.2932 89.7954L9.38244 89.2046C8.46157 92.1823 7.65256 95.2091 6.96033 98.2801L8.91138 98.7199ZM11.2932 89.7954C12.9293 84.505 14.9245 79.3722 17.2504 74.4255L15.4405 73.5745C13.0753 78.6047 11.0463 83.8244 9.38244 89.2046L11.2932 89.7954ZM125 244C66.5572 244 17.9525 201.869 7.90468 146.322L5.93662 146.678C16.1536 203.16 65.5728 246 125 246V244ZM7.90468 146.322C6.65346 139.405 6 132.279 6 125H4C4 132.399 4.66425 139.644 5.93662 146.678L7.90468 146.322ZM125 6C130.209 6 135.34 6.33468 140.372 6.98361L140.628 5.00003C135.511 4.3402 130.295 4 125 4V6ZM244 125C244 130.896 243.571 136.691 242.744 142.355L244.723 142.645C245.564 136.884 246 130.993 246 125H244ZM242.744 142.355C234.343 199.851 184.826 244 125 244V246C185.834 246 236.18 201.108 244.723 142.645L242.744 142.355ZM204.823 36.7415C216.455 47.2685 225.996 60.0625 232.75 74.4255L234.56 73.5745C227.692 58.9691 217.991 45.9611 206.165 35.2585L204.823 36.7415ZM189.286 24.8411C194.792 28.3828 199.988 32.3662 204.823 36.7415L206.165 35.2585C201.249 30.8103 195.967 26.7601 190.368 23.1589L189.286 24.8411ZM140.372 6.98361C146.131 7.72625 151.76 8.88049 157.23 10.4158L157.77 8.49025C152.208 6.92888 146.483 5.75516 140.628 5.00003L140.372 6.98361ZM157.23 10.4158C168.711 13.6386 179.49 18.5408 189.286 24.8411L190.368 23.1589C180.408 16.7529 169.446 11.7677 157.77 8.49025L157.23 10.4158Z" fill="black" mask="url(#path-2-inside-1_72_18)"/>
</g>
<path fill-rule="evenodd" clip-rule="evenodd" d="M91.3926 106.45C99.9629 117.035 115.547 114.482 123.057 126.56C126.891 132.726 126.064 140.448 129.372 144.265C134.139 149.766 141.461 149.172 141.461 149.172C154.844 146.537 159.692 131.484 161.383 119.729C161.642 117.933 161.826 116.215 161.957 114.629C162.095 112.95 162.171 111.421 162.21 110.107C162.523 99.4251 158.375 89.4192 155.805 84.512C153.235 79.6047 147.855 72.1799 140.018 68.3469C131.115 63.9928 120.833 63.5359 116.021 64.3056C111.209 65.0754 95.0714 68.8526 90.3101 80.5669C88.3875 85.297 87.0204 89.8458 87.0002 94.2303C87.0985 95.1449 87.1662 96.1851 87.2122 97.2465C87.3023 97.8479 87.4221 98.4462 87.5739 99.0413C88.2176 101.565 89.4358 104.034 91.3926 106.45ZM116.382 71.6977C132.624 68.8059 142.33 75.6177 150.212 87.7665C159.191 101.608 156.817 143.718 139.476 143.863C128.267 143.957 130.727 127.47 123.057 118.75C112.995 107.309 94.2718 110.756 92.5654 95.1755C91.0092 80.9669 101.913 74.2736 116.382 71.6977Z" fill="#FF7B8B"/>
<path fill-rule="evenodd" clip-rule="evenodd" d="M150.212 87.7665C142.33 75.6177 132.624 68.8059 116.382 71.6977C101.913 74.2736 91.0092 80.9669 92.5654 95.1755C94.2718 110.756 112.995 107.309 123.057 118.75C130.727 127.47 128.267 143.957 139.476 143.863C156.817 143.718 159.191 101.608 150.212 87.7665ZM114.758 91.6323C114.636 87.5676 119.254 85.8619 123.057 86.1477C126.481 86.405 130.301 87.9739 130.184 91.6323C130.07 95.205 126.401 96.4882 123.057 96.732C119.326 97.0042 114.878 95.62 114.758 91.6323Z" fill="#FF7B8B"/>
<path fill-rule="evenodd" clip-rule="evenodd" d="M150.212 87.7665C142.33 75.6177 132.624 68.8059 116.382 71.6977C101.913 74.2736 91.0092 80.9669 92.5654 95.1755C94.2718 110.756 112.995 107.309 123.057 118.75C130.727 127.47 128.267 143.957 139.476 143.863C156.817 143.718 159.191 101.608 150.212 87.7665ZM114.758 91.6323C114.636 87.5676 119.254 85.8619 123.057 86.1477C126.481 86.405 130.301 87.9739 130.184 91.6323C130.07 95.205 126.401 96.4882 123.057 96.732C119.326 97.0042 114.878 95.62 114.758 91.6323Z" fill="#FF4755"/>
<path d="M123.057 86.1477C119.254 85.8619 114.636 87.5676 114.758 91.6323C120.944 94.3278 124.327 94.4116 130.184 91.6323C130.301 87.9739 126.481 86.405 123.057 86.1477Z" fill="#F4E9D3"/>
<path d="M123.057 96.732C126.401 96.4882 130.07 95.205 130.184 91.6323C124.327 94.4116 120.944 94.3278 114.758 91.6323C114.878 95.62 119.326 97.0042 123.057 96.732Z" fill="#E5D6BE"/>
<path d="M123.057 126.56C115.547 114.482 99.9629 117.035 91.3926 106.45C89.4358 104.034 88.2176 101.565 87.5739 99.0413C87.4221 98.4462 87.3023 97.8479 87.2122 97.2465C87.3685 100.852 87.2741 104.701 87.2741 104.701C95.6369 125.117 108.533 118.75 118.727 129.526C126.486 141.65 125.425 152.523 132.53 156.083C136.409 157.594 146.118 157.476 150.031 154.147C152.003 152.253 153.766 149.892 155.173 147.056C162.339 132.615 162.21 110.107 162.21 110.107C162.171 111.421 162.095 112.95 161.957 114.629C161.826 116.215 161.642 117.933 161.383 119.729C159.692 131.484 154.844 146.537 141.461 149.172C141.461 149.172 134.139 149.766 129.372 144.265C126.064 140.448 126.891 132.726 123.057 126.56Z" fill="#994E37"/>
<path d="M89.0471 113.282C94.2212 125.713 107.28 122.808 116.382 132.334C125.129 141.488 122.092 158.159 134.244 159.853C139.342 160.564 145.289 158.705 150.031 154.147C146.118 157.476 136.409 157.594 132.53 156.083C125.425 152.523 126.486 141.65 118.727 129.526C108.533 118.75 95.6369 125.117 87.2741 104.701C87.2741 104.701 87.7379 110.137 89.0471 113.282Z" fill="#8C4534"/>
<path d="M162.21 110.107C162.523 99.4251 158.375 89.4192 155.805 84.512C153.235 79.6047 147.855 72.1799 140.018 68.3469C131.115 63.9928 120.833 63.5359 116.021 64.3056C111.209 65.0754 95.0714 68.8526 90.3101 80.5669C88.3875 85.297 87.0204 89.8458 87.0002 94.2303M162.21 110.107C162.171 111.421 162.095 112.95 161.957 114.629C161.826 116.215 161.642 117.933 161.383 119.729C159.692 131.484 154.844 146.537 141.461 149.172C141.461 149.172 134.139 149.766 129.372 144.265C126.064 140.448 126.891 132.726 123.057 126.56C115.547 114.482 99.9629 117.035 91.3926 106.45C89.4358 104.034 88.2176 101.565 87.5739 99.0413C87.1705 97.4597 86.9927 95.8563 87.0002 94.2303M162.21 110.107C162.21 110.107 162.339 132.615 155.173 147.056C150.38 156.716 141.461 160.859 134.244 159.853C122.092 158.159 125.129 141.488 116.382 132.334C107.28 122.808 94.2212 125.713 89.0471 113.282C86.1982 106.437 87.7996 101.67 87.0002 94.2303M114.758 91.6323C114.636 87.5676 119.254 85.8619 123.057 86.1477C126.481 86.405 130.301 87.9739 130.184 91.6323C130.07 95.205 126.401 96.4882 123.057 96.732C119.326 97.0042 114.878 95.62 114.758 91.6323Z" stroke="#0A2342"/>
<defs>
<filter id="filter0_d_72_18" x="1" y="5" width="248" height="248" filterUnits="userSpaceOnUse" color-interpolation-filters="sRGB">
<feFlood flood-opacity="0" result="BackgroundImageFix"/>
<feColorMatrix in="SourceAlpha" type="matrix" values="0 0 0 0 0 0 0 0 0 0 0 0 0 0 0 0 0 0 127 0" result="hardAlpha"/>
<feOffset dy="4"/>
<feGaussianBlur stdDeviation="2"/>
<feComposite in2="hardAlpha" operator="out"/>
<feColorMatrix type="matrix" values="0 0 0 0 0 0 0 0 0 0 0 0 0 0 0 0 0 0 0.25 0"/>
<feBlend mode="normal" in2="BackgroundImageFix" result="effect1_dropShadow_72_18"/>
<feBlend mode="normal" in="SourceGraphic" in2="effect1_dropShadow_72_18" result="shape"/>
</filter>
</defs>
</svg>
