<svg width="243" height="120" viewBox="0 0 243 120" fill="none" xmlns="http://www.w3.org/2000/svg">
<path d="M40.1205 87.7416L30.8408 119.016H74.5557L40.1205 87.7416Z" fill="#4CE166"/>
<path d="M18.1948 75L11.8222 91.313H28.1114L34.3889 75H18.1948Z" fill="#A8EEFC"/>
<path d="M7.78744 101.641L4.39372 110.329L1 119.016H18.1948L24.1994 101.641H7.78744Z" fill="#4CE166"/>
<path d="M70.5072 91.313H110.178H154.5L162.153 75H103.805H81.2426H48.9454L70.5072 91.313Z" fill="#4CE166"/>
<path d="M92.8878 119.016H121H175C175 119.016 162.153 114.516 162.153 101.641H114.213H74.5557L92.8878 119.016Z" fill="#4CE166"/>
<path d="M173.5 75L166.5 91.313H225L231 75H173.5Z" fill="#A8EEFC"/>
<path d="M175 101.641C175 111.016 193 119.016 193 119.016H215.5L221.5 101.641H175Z" fill="#4CE166"/>
<path d="M28.1114 91.313H11.8222L7.78744 101.641H24.1994L18.1948 119.016H30.8408L40.1205 87.7416L74.5557 119.016H92.8878L74.5557 101.641H114.213H162.153C162.153 114.516 175 119.016 175 119.016H193C193 119.016 175 111.016 175 101.641H221.5L215.5 119.016H225L242 75H231L225 91.313H166.5L173.5 75H162.153L154.5 91.313H110.178H70.5072L48.9454 75H42.577H34.3889L28.1114 91.313Z" fill="#FFDB56"/>
<path d="M1 119.016L0.534275 118.834C0.474165 118.988 0.493937 119.162 0.587103 119.298C0.68027 119.435 0.834804 119.516 1 119.516V119.016ZM18.1948 75V74.5C17.9889 74.5 17.804 74.6263 17.7291 74.8181L18.1948 75ZM28.1114 91.313V91.813C28.3183 91.813 28.5038 91.6857 28.5781 91.4926L28.1114 91.313ZM7.78744 101.641L7.32171 101.459L7.32171 101.459L7.78744 101.641ZM24.1994 101.641L24.672 101.805C24.7248 101.652 24.7004 101.483 24.6066 101.351C24.5128 101.22 24.3611 101.141 24.1994 101.141V101.641ZM40.1205 87.7416L40.4567 87.3714C40.3294 87.2558 40.1516 87.2137 39.986 87.26C39.8203 87.3063 39.6901 87.4345 39.6412 87.5993L40.1205 87.7416ZM74.5557 101.641V101.141C74.3511 101.141 74.167 101.266 74.0913 101.456C74.0155 101.646 74.0632 101.864 74.2118 102.004L74.5557 101.641ZM70.5072 91.313L70.2055 91.7118C70.2924 91.7775 70.3983 91.813 70.5072 91.813V91.313ZM154.5 91.313V91.813C154.694 91.813 154.87 91.7009 154.953 91.5254L154.5 91.313ZM166.5 91.313L166.041 91.1159C165.974 91.2704 165.99 91.4478 166.083 91.5882C166.175 91.7286 166.332 91.813 166.5 91.813V91.313ZM162.153 101.641H162.653C162.653 101.365 162.429 101.141 162.153 101.141V101.641ZM175 101.641V101.141C174.724 101.141 174.5 101.365 174.5 101.641H175ZM221.5 101.641L221.973 101.805C222.025 101.652 222.001 101.483 221.907 101.351C221.813 101.22 221.662 101.141 221.5 101.141V101.641ZM225 91.313V91.813C225.21 91.813 225.397 91.6823 225.469 91.4856L225 91.313ZM242 75L242.466 75.1801C242.526 75.0264 242.506 74.8532 242.412 74.7172C242.319 74.5813 242.165 74.5 242 74.5V75ZM225 119.016V119.516C225.207 119.516 225.392 119.389 225.466 119.196L225 119.016ZM12.2879 91.495L18.6606 75.1819L17.7291 74.8181L11.3565 91.1311L12.2879 91.495ZM11.8222 91.813H28.1114V90.813H11.8222V91.813ZM18.1948 75.5H34.3889V74.5H18.1948V75.5ZM28.5781 91.4926L34.8556 75.1796L33.9223 74.8204L27.6448 91.1335L28.5781 91.4926ZM8.25316 101.823L12.2879 91.495L11.3565 91.1311L7.32171 101.459L8.25316 101.823ZM7.78744 102.141H24.1994V101.141H7.78744V102.141ZM18.1948 118.516H1V119.516H18.1948V118.516ZM23.7268 101.478L17.7223 118.853L18.6674 119.18L24.672 101.805L23.7268 101.478ZM30.8408 118.516H18.1948V119.516H30.8408V118.516ZM31.3201 119.159L40.5999 87.8838L39.6412 87.5993L30.3614 118.874L31.3201 119.159ZM74.5557 118.516H30.8408V119.516H74.5557V118.516ZM39.7844 88.1117L74.2196 119.386L74.8919 118.646L40.4567 87.3714L39.7844 88.1117ZM121 118.516H92.8878V119.516H121V118.516ZM92.8878 118.516H74.5557V119.516H92.8878V118.516ZM93.2317 118.653L74.8997 101.279L74.2118 102.004L92.5438 119.379L93.2317 118.653ZM74.5557 102.141H114.213V101.141H74.5557V102.141ZM110.178 90.813H70.5072V91.813H110.178V90.813ZM34.3889 75.5H42.577V74.5H34.3889V75.5ZM81.2426 75.5H103.805V74.5H81.2426V75.5ZM42.577 75.5H48.9454V74.5H42.577V75.5ZM48.9454 75.5H81.2426V74.5H48.9454V75.5ZM70.8089 90.9143L49.2471 74.6013L48.6437 75.3987L70.2055 91.7118L70.8089 90.9143ZM110.178 91.813H154.5V90.813H110.178V91.813ZM103.805 75.5H162.153V74.5H103.805V75.5ZM154.953 91.5254L162.605 75.2123L161.7 74.7877L154.047 91.1007L154.953 91.5254ZM162.153 75.5H173.5V74.5H162.153V75.5ZM173.041 74.8028L166.041 91.1159L166.959 91.5102L173.959 75.1972L173.041 74.8028ZM114.213 102.141H162.153V101.141H114.213V102.141ZM175 118.516H121V119.516H175V118.516ZM161.653 101.641C161.653 108.268 164.966 112.74 168.252 115.538C169.894 116.935 171.534 117.92 172.763 118.556C173.378 118.874 173.892 119.106 174.254 119.258C174.435 119.335 174.578 119.391 174.677 119.429C174.726 119.448 174.765 119.463 174.791 119.472C174.804 119.477 174.815 119.481 174.822 119.484C174.826 119.485 174.829 119.486 174.831 119.487C174.832 119.487 174.833 119.487 174.833 119.488C174.834 119.488 174.834 119.488 174.834 119.488C174.834 119.488 174.835 119.488 175 119.016C175.165 118.544 175.165 118.544 175.166 118.544C175.166 118.544 175.166 118.544 175.166 118.544C175.165 118.544 175.165 118.544 175.165 118.544C175.164 118.544 175.162 118.543 175.159 118.542C175.154 118.54 175.146 118.538 175.135 118.534C175.113 118.525 175.079 118.513 175.035 118.496C174.946 118.462 174.813 118.409 174.642 118.337C174.302 118.193 173.812 117.973 173.222 117.668C172.043 117.058 170.471 116.113 168.9 114.776C165.763 112.105 162.653 107.89 162.653 101.641H161.653ZM193 118.516H175V119.516H193V118.516ZM193 119.016C193.203 118.559 193.203 118.559 193.203 118.559C193.203 118.559 193.203 118.559 193.203 118.559C193.202 118.559 193.202 118.559 193.201 118.558C193.199 118.557 193.196 118.556 193.192 118.554C193.183 118.551 193.171 118.545 193.155 118.538C193.122 118.523 193.072 118.5 193.007 118.47C192.878 118.41 192.687 118.321 192.444 118.204C191.956 117.969 191.259 117.623 190.422 117.178C188.747 116.288 186.516 115.006 184.288 113.436C182.057 111.863 179.847 110.015 178.2 107.995C176.549 105.972 175.5 103.824 175.5 101.641H174.5C174.5 104.147 175.701 106.514 177.425 108.627C179.153 110.745 181.443 112.654 183.712 114.253C185.984 115.855 188.253 117.159 189.953 118.061C190.803 118.513 191.512 118.865 192.01 119.105C192.258 119.224 192.454 119.316 192.588 119.378C192.655 119.409 192.707 119.433 192.742 119.449C192.76 119.456 192.773 119.463 192.782 119.467C192.787 119.469 192.79 119.47 192.793 119.471C192.794 119.472 192.795 119.472 192.796 119.473C192.796 119.473 192.796 119.473 192.797 119.473C192.797 119.473 192.797 119.473 193 119.016ZM175 102.141H221.5V101.141H175V102.141ZM215.5 118.516H193V119.516H215.5V118.516ZM221.027 101.478L215.027 118.853L215.973 119.179L221.973 101.805L221.027 101.478ZM166.5 91.813H225V90.813H166.5V91.813ZM173.5 75.5H231V74.5H173.5V75.5ZM225.469 91.4856L231.469 75.1726L230.531 74.8274L224.531 91.1405L225.469 91.4856ZM1.46573 119.198L4.85944 110.511L3.92799 110.147L0.534275 118.834L1.46573 119.198ZM4.85944 110.511L8.25316 101.823L7.32171 101.459L3.92799 110.147L4.85944 110.511ZM231 75.5H242V74.5H231V75.5ZM225 118.516C224.991 118.516 224.982 118.516 224.974 118.516C224.965 118.516 224.956 118.516 224.947 118.516C224.938 118.516 224.93 118.516 224.921 118.516C224.912 118.516 224.903 118.516 224.894 118.516C224.885 118.516 224.877 118.516 224.868 118.516C224.859 118.516 224.85 118.516 224.841 118.516C224.832 118.516 224.824 118.516 224.815 118.516C224.806 118.516 224.797 118.516 224.788 118.516C224.779 118.516 224.771 118.516 224.762 118.516C224.753 118.516 224.744 118.516 224.735 118.516C224.726 118.516 224.718 118.516 224.709 118.516C224.7 118.516 224.691 118.516 224.682 118.516C224.673 118.516 224.665 118.516 224.656 118.516C224.647 118.516 224.638 118.516 224.629 118.516C224.62 118.516 224.611 118.516 224.603 118.516C224.594 118.516 224.585 118.516 224.576 118.516C224.567 118.516 224.558 118.516 224.549 118.516C224.541 118.516 224.532 118.516 224.523 118.516C224.514 118.516 224.505 118.516 224.496 118.516C224.487 118.516 224.479 118.516 224.47 118.516C224.461 118.516 224.452 118.516 224.443 118.516C224.434 118.516 224.425 118.516 224.417 118.516C224.408 118.516 224.399 118.516 224.39 118.516C224.381 118.516 224.372 118.516 224.363 118.516C224.354 118.516 224.346 118.516 224.337 118.516C224.328 118.516 224.319 118.516 224.31 118.516C224.301 118.516 224.292 118.516 224.283 118.516C224.275 118.516 224.266 118.516 224.257 118.516C224.248 118.516 224.239 118.516 224.23 118.516C224.221 118.516 224.212 118.516 224.204 118.516C224.195 118.516 224.186 118.516 224.177 118.516C224.168 118.516 224.159 118.516 224.15 118.516C224.141 118.516 224.132 118.516 224.124 118.516C224.115 118.516 224.106 118.516 224.097 118.516C224.088 118.516 224.079 118.516 224.07 118.516C224.061 118.516 224.052 118.516 224.044 118.516C224.035 118.516 224.026 118.516 224.017 118.516C224.008 118.516 223.999 118.516 223.99 118.516C223.981 118.516 223.973 118.516 223.964 118.516C223.955 118.516 223.946 118.516 223.937 118.516C223.928 118.516 223.919 118.516 223.91 118.516C223.901 118.516 223.893 118.516 223.884 118.516C223.875 118.516 223.866 118.516 223.857 118.516C223.848 118.516 223.839 118.516 223.83 118.516C223.821 118.516 223.813 118.516 223.804 118.516C223.795 118.516 223.786 118.516 223.777 118.516C223.768 118.516 223.759 118.516 223.75 118.516C223.741 118.516 223.732 118.516 223.724 118.516C223.715 118.516 223.706 118.516 223.697 118.516C223.688 118.516 223.679 118.516 223.67 118.516C223.661 118.516 223.652 118.516 223.644 118.516C223.635 118.516 223.626 118.516 223.617 118.516C223.608 118.516 223.599 118.516 223.59 118.516C223.581 118.516 223.573 118.516 223.564 118.516C223.555 118.516 223.546 118.516 223.537 118.516C223.528 118.516 223.519 118.516 223.51 118.516C223.501 118.516 223.493 118.516 223.484 118.516C223.475 118.516 223.466 118.516 223.457 118.516C223.448 118.516 223.439 118.516 223.43 118.516C223.421 118.516 223.413 118.516 223.404 118.516C223.395 118.516 223.386 118.516 223.377 118.516C223.368 118.516 223.359 118.516 223.35 118.516C223.342 118.516 223.333 118.516 223.324 118.516C223.315 118.516 223.306 118.516 223.297 118.516C223.288 118.516 223.279 118.516 223.271 118.516C223.262 118.516 223.253 118.516 223.244 118.516C223.235 118.516 223.226 118.516 223.217 118.516C223.208 118.516 223.2 118.516 223.191 118.516C223.182 118.516 223.173 118.516 223.164 118.516C223.155 118.516 223.146 118.516 223.138 118.516C223.129 118.516 223.12 118.516 223.111 118.516C223.102 118.516 223.093 118.516 223.084 118.516C223.075 118.516 223.067 118.516 223.058 118.516C223.049 118.516 223.04 118.516 223.031 118.516C223.022 118.516 223.013 118.516 223.005 118.516C222.996 118.516 222.987 118.516 222.978 118.516C222.969 118.516 222.96 118.516 222.952 118.516C222.943 118.516 222.934 118.516 222.925 118.516C222.916 118.516 222.907 118.516 222.898 118.516C222.89 118.516 222.881 118.516 222.872 118.516C222.863 118.516 222.854 118.516 222.845 118.516C222.837 118.516 222.828 118.516 222.819 118.516C222.81 118.516 222.801 118.516 222.792 118.516C222.784 118.516 222.775 118.516 222.766 118.516C222.757 118.516 222.748 118.516 222.739 118.516C222.731 118.516 222.722 118.516 222.713 118.516C222.704 118.516 222.695 118.516 222.687 118.516C222.678 118.516 222.669 118.516 222.66 118.516C222.651 118.516 222.642 118.516 222.634 118.516C222.625 118.516 222.616 118.516 222.607 118.516C222.598 118.516 222.59 118.516 222.581 118.516C222.572 118.516 222.563 118.516 222.554 118.516C222.546 118.516 222.537 118.516 222.528 118.516C222.519 118.516 222.51 118.516 222.502 118.516C222.493 118.516 222.484 118.516 222.475 118.516C222.466 118.516 222.458 118.516 222.449 118.516C222.44 118.516 222.431 118.516 222.423 118.516C222.414 118.516 222.405 118.516 222.396 118.516C222.387 118.516 222.379 118.516 222.37 118.516C222.361 118.516 222.352 118.516 222.344 118.516C222.335 118.516 222.326 118.516 222.317 118.516C222.309 118.516 222.3 118.516 222.291 118.516C222.282 118.516 222.273 118.516 222.265 118.516C222.256 118.516 222.247 118.516 222.238 118.516C222.23 118.516 222.221 118.516 222.212 118.516C222.203 118.516 222.195 118.516 222.186 118.516C222.177 118.516 222.169 118.516 222.16 118.516C222.151 118.516 222.142 118.516 222.134 118.516C222.125 118.516 222.116 118.516 222.107 118.516C222.099 118.516 222.09 118.516 222.081 118.516C222.073 118.516 222.064 118.516 222.055 118.516C222.046 118.516 222.038 118.516 222.029 118.516C222.02 118.516 222.012 118.516 222.003 118.516C221.994 118.516 221.985 118.516 221.977 118.516C221.968 118.516 221.959 118.516 221.951 118.516C221.942 118.516 221.933 118.516 221.925 118.516C221.916 118.516 221.907 118.516 221.899 118.516C221.89 118.516 221.881 118.516 221.873 118.516C221.864 118.516 221.855 118.516 221.847 118.516C221.838 118.516 221.829 118.516 221.821 118.516C221.812 118.516 221.803 118.516 221.795 118.516C221.786 118.516 221.777 118.516 221.769 118.516C221.76 118.516 221.751 118.516 221.743 118.516C221.734 118.516 221.725 118.516 221.717 118.516C221.708 118.516 221.7 118.516 221.691 118.516C221.682 118.516 221.674 118.516 221.665 118.516C221.656 118.516 221.648 118.516 221.639 118.516C221.631 118.516 221.622 118.516 221.613 118.516C221.605 118.516 221.596 118.516 221.588 118.516C221.579 118.516 221.57 118.516 221.562 118.516C221.553 118.516 221.545 118.516 221.536 118.516C221.527 118.516 221.519 118.516 221.51 118.516C221.502 118.516 221.493 118.516 221.484 118.516C221.476 118.516 221.467 118.516 221.459 118.516C221.45 118.516 221.442 118.516 221.433 118.516C221.424 118.516 221.416 118.516 221.407 118.516C221.399 118.516 221.39 118.516 221.382 118.516C221.373 118.516 221.365 118.516 221.356 118.516C221.348 118.516 221.339 118.516 221.33 118.516C221.322 118.516 221.313 118.516 221.305 118.516C221.296 118.516 221.288 118.516 221.279 118.516C221.271 118.516 221.262 118.516 221.254 118.516C221.245 118.516 221.237 118.516 221.228 118.516C221.22 118.516 221.211 118.516 221.203 118.516C221.194 118.516 221.186 118.516 221.177 118.516C221.169 118.516 221.16 118.516 221.152 118.516C221.143 118.516 221.135 118.516 221.127 118.516C221.118 118.516 221.11 118.516 221.101 118.516C221.093 118.516 221.084 118.516 221.076 118.516C221.067 118.516 221.059 118.516 221.05 118.516C221.042 118.516 221.034 118.516 221.025 118.516C221.017 118.516 221.008 118.516 221 118.516C220.991 118.516 220.983 118.516 220.975 118.516C220.966 118.516 220.958 118.516 220.949 118.516C220.941 118.516 220.933 118.516 220.924 118.516C220.916 118.516 220.907 118.516 220.899 118.516C220.891 118.516 220.882 118.516 220.874 118.516C220.865 118.516 220.857 118.516 220.849 118.516C220.84 118.516 220.832 118.516 220.824 118.516C220.815 118.516 220.807 118.516 220.799 118.516C220.79 118.516 220.782 118.516 220.774 118.516C220.765 118.516 220.757 118.516 220.749 118.516C220.74 118.516 220.732 118.516 220.724 118.516C220.715 118.516 220.707 118.516 220.699 118.516C220.69 118.516 220.682 118.516 220.674 118.516C220.665 118.516 220.657 118.516 220.649 118.516C220.64 118.516 220.632 118.516 220.624 118.516C220.616 118.516 220.607 118.516 220.599 118.516C220.591 118.516 220.583 118.516 220.574 118.516C220.566 118.516 220.558 118.516 220.549 118.516C220.541 118.516 220.533 118.516 220.525 118.516C220.516 118.516 220.508 118.516 220.5 118.516C220.492 118.516 220.484 118.516 220.475 118.516C220.467 118.516 220.459 118.516 220.451 118.516C220.442 118.516 220.434 118.516 220.426 118.516C220.418 118.516 220.41 118.516 220.401 118.516C220.393 118.516 220.385 118.516 220.377 118.516C220.369 118.516 220.361 118.516 220.352 118.516C220.344 118.516 220.336 118.516 220.328 118.516C220.32 118.516 220.312 118.516 220.303 118.516C220.295 118.516 220.287 118.516 220.279 118.516C220.271 118.516 220.263 118.516 220.255 118.516C220.246 118.516 220.238 118.516 220.23 118.516C220.222 118.516 220.214 118.516 220.206 118.516C220.198 118.516 220.19 118.516 220.182 118.516C220.174 118.516 220.165 118.516 220.157 118.516C220.149 118.516 220.141 118.516 220.133 118.516C220.125 118.516 220.117 118.516 220.109 118.516C220.101 118.516 220.093 118.516 220.085 118.516C220.077 118.516 220.069 118.516 220.061 118.516C220.053 118.516 220.045 118.516 220.037 118.516C220.029 118.516 220.021 118.516 220.013 118.516C220.005 118.516 219.997 118.516 219.989 118.516C219.981 118.516 219.973 118.516 219.965 118.516C219.957 118.516 219.949 118.516 219.941 118.516C219.933 118.516 219.925 118.516 219.917 118.516C219.909 118.516 219.901 118.516 219.893 118.516C219.885 118.516 219.877 118.516 219.869 118.516C219.861 118.516 219.853 118.516 219.845 118.516C219.837 118.516 219.829 118.516 219.822 118.516C219.814 118.516 219.806 118.516 219.798 118.516C219.79 118.516 219.782 118.516 219.774 118.516C219.766 118.516 219.758 118.516 219.75 118.516C219.743 118.516 219.735 118.516 219.727 118.516C219.719 118.516 219.711 118.516 219.703 118.516C219.695 118.516 219.688 118.516 219.68 118.516C219.672 118.516 219.664 118.516 219.656 118.516C219.649 118.516 219.641 118.516 219.633 118.516C219.625 118.516 219.617 118.516 219.609 118.516C219.602 118.516 219.594 118.516 219.586 118.516C219.578 118.516 219.571 118.516 219.563 118.516C219.555 118.516 219.547 118.516 219.54 118.516C219.532 118.516 219.524 118.516 219.516 118.516C219.509 118.516 219.501 118.516 219.493 118.516C219.485 118.516 219.478 118.516 219.47 118.516C219.462 118.516 219.455 118.516 219.447 118.516C219.439 118.516 219.431 118.516 219.424 118.516C219.416 118.516 219.408 118.516 219.401 118.516C219.393 118.516 219.385 118.516 219.378 118.516C219.37 118.516 219.362 118.516 219.355 118.516C219.347 118.516 219.339 118.516 219.332 118.516C219.324 118.516 219.317 118.516 219.309 118.516C219.301 118.516 219.294 118.516 219.286 118.516C219.279 118.516 219.271 118.516 219.263 118.516C219.256 118.516 219.248 118.516 219.241 118.516C219.233 118.516 219.226 118.516 219.218 118.516C219.21 118.516 219.203 118.516 219.195 118.516C219.188 118.516 219.18 118.516 219.173 118.516C219.165 118.516 219.158 118.516 219.15 118.516C219.143 118.516 219.135 118.516 219.128 118.516C219.12 118.516 219.113 118.516 219.105 118.516C219.098 118.516 219.09 118.516 219.083 118.516C219.075 118.516 219.068 118.516 219.06 118.516C219.053 118.516 219.046 118.516 219.038 118.516C219.031 118.516 219.023 118.516 219.016 118.516C219.008 118.516 219.001 118.516 218.994 118.516C218.986 118.516 218.979 118.516 218.971 118.516C218.964 118.516 218.957 118.516 218.949 118.516C218.942 118.516 218.935 118.516 218.927 118.516C218.92 118.516 218.912 118.516 218.905 118.516C218.898 118.516 218.89 118.516 218.883 118.516C218.876 118.516 218.868 118.516 218.861 118.516C218.854 118.516 218.847 118.516 218.839 118.516C218.832 118.516 218.825 118.516 218.817 118.516C218.81 118.516 218.803 118.516 218.796 118.516C218.788 118.516 218.781 118.516 218.774 118.516C218.767 118.516 218.759 118.516 218.752 118.516C218.745 118.516 218.738 118.516 218.731 118.516C218.723 118.516 218.716 118.516 218.709 118.516C218.702 118.516 218.695 118.516 218.687 118.516C218.68 118.516 218.673 118.516 218.666 118.516C218.659 118.516 218.652 118.516 218.644 118.516C218.637 118.516 218.63 118.516 218.623 118.516C218.616 118.516 218.609 118.516 218.602 118.516C218.595 118.516 218.587 118.516 218.58 118.516C218.573 118.516 218.566 118.516 218.559 118.516C218.552 118.516 218.545 118.516 218.538 118.516C218.531 118.516 218.524 118.516 218.517 118.516C218.51 118.516 218.503 118.516 218.496 118.516C218.489 118.516 218.482 118.516 218.475 118.516C218.468 118.516 218.461 118.516 218.454 118.516C218.447 118.516 218.44 118.516 218.433 118.516C218.426 118.516 218.419 118.516 218.412 118.516C218.405 118.516 218.398 118.516 218.391 118.516C218.384 118.516 218.377 118.516 218.37 118.516C218.363 118.516 218.356 118.516 218.349 118.516C218.343 118.516 218.336 118.516 218.329 118.516C218.322 118.516 218.315 118.516 218.308 118.516C218.301 118.516 218.294 118.516 218.288 118.516C218.281 118.516 218.274 118.516 218.267 118.516C218.26 118.516 218.253 118.516 218.247 118.516C218.24 118.516 218.233 118.516 218.226 118.516C218.219 118.516 218.213 118.516 218.206 118.516C218.199 118.516 218.192 118.516 218.186 118.516C218.179 118.516 218.172 118.516 218.165 118.516C218.159 118.516 218.152 118.516 218.145 118.516C218.138 118.516 218.132 118.516 218.125 118.516C218.118 118.516 218.112 118.516 218.105 118.516C218.098 118.516 218.092 118.516 218.085 118.516C218.078 118.516 218.072 118.516 218.065 118.516C218.058 118.516 218.052 118.516 218.045 118.516C218.039 118.516 218.032 118.516 218.025 118.516C218.019 118.516 218.012 118.516 218.006 118.516C217.999 118.516 217.992 118.516 217.986 118.516C217.979 118.516 217.973 118.516 217.966 118.516C217.96 118.516 217.953 118.516 217.947 118.516C217.94 118.516 217.934 118.516 217.927 118.516C217.921 118.516 217.914 118.516 217.908 118.516C217.901 118.516 217.895 118.516 217.888 118.516C217.882 118.516 217.875 118.516 217.869 118.516C217.862 118.516 217.856 118.516 217.849 118.516C217.843 118.516 217.837 118.516 217.83 118.516C217.824 118.516 217.817 118.516 217.811 118.516C217.805 118.516 217.798 118.516 217.792 118.516C217.786 118.516 217.779 118.516 217.773 118.516C217.767 118.516 217.76 118.516 217.754 118.516C217.748 118.516 217.741 118.516 217.735 118.516C217.729 118.516 217.722 118.516 217.716 118.516C217.71 118.516 217.704 118.516 217.697 118.516C217.691 118.516 217.685 118.516 217.679 118.516C217.672 118.516 217.666 118.516 217.66 118.516C217.654 118.516 217.647 118.516 217.641 118.516C217.635 118.516 217.629 118.516 217.623 118.516C217.616 118.516 217.61 118.516 217.604 118.516C217.598 118.516 217.592 118.516 217.586 118.516C217.58 118.516 217.573 118.516 217.567 118.516C217.561 118.516 217.555 118.516 217.549 118.516C217.543 118.516 217.537 118.516 217.531 118.516C217.525 118.516 217.519 118.516 217.513 118.516C217.507 118.516 217.501 118.516 217.494 118.516C217.488 118.516 217.482 118.516 217.476 118.516C217.47 118.516 217.464 118.516 217.458 118.516C217.452 118.516 217.446 118.516 217.441 118.516C217.435 118.516 217.429 118.516 217.423 118.516C217.417 118.516 217.411 118.516 217.405 118.516C217.399 118.516 217.393 118.516 217.387 118.516C217.381 118.516 217.375 118.516 217.369 118.516C217.364 118.516 217.358 118.516 217.352 118.516C217.346 118.516 217.34 118.516 217.334 118.516C217.329 118.516 217.323 118.516 217.317 118.516C217.311 118.516 217.305 118.516 217.3 118.516C217.294 118.516 217.288 118.516 217.282 118.516C217.276 118.516 217.271 118.516 217.265 118.516C217.259 118.516 217.253 118.516 217.248 118.516C217.242 118.516 217.236 118.516 217.231 118.516C217.225 118.516 217.219 118.516 217.214 118.516C217.208 118.516 217.202 118.516 217.197 118.516C217.191 118.516 217.185 118.516 217.18 118.516C217.174 118.516 217.168 118.516 217.163 118.516C217.157 118.516 217.152 118.516 217.146 118.516C217.141 118.516 217.135 118.516 217.129 118.516C217.124 118.516 217.118 118.516 217.113 118.516C217.107 118.516 217.102 118.516 217.096 118.516C217.091 118.516 217.085 118.516 217.08 118.516C217.074 118.516 217.069 118.516 217.063 118.516C217.058 118.516 217.052 118.516 217.047 118.516C217.041 118.516 217.036 118.516 217.031 118.516C217.025 118.516 217.02 118.516 217.014 118.516C217.009 118.516 217.004 118.516 216.998 118.516C216.993 118.516 216.988 118.516 216.982 118.516C216.977 118.516 216.972 118.516 216.966 118.516C216.961 118.516 216.956 118.516 216.95 118.516C216.945 118.516 216.94 118.516 216.934 118.516C216.929 118.516 216.924 118.516 216.919 118.516C216.913 118.516 216.908 118.516 216.903 118.516C216.898 118.516 216.893 118.516 216.887 118.516C216.882 118.516 216.877 118.516 216.872 118.516C216.867 118.516 216.861 118.516 216.856 118.516C216.851 118.516 216.846 118.516 216.841 118.516C216.836 118.516 216.831 118.516 216.826 118.516C216.82 118.516 216.815 118.516 216.81 118.516C216.805 118.516 216.8 118.516 216.795 118.516C216.79 118.516 216.785 118.516 216.78 118.516C216.775 118.516 216.77 118.516 216.765 118.516C216.76 118.516 216.755 118.516 216.75 118.516C216.745 118.516 216.74 118.516 216.735 118.516C216.73 118.516 216.725 118.516 216.72 118.516C216.715 118.516 216.711 118.516 216.706 118.516C216.701 118.516 216.696 118.516 216.691 118.516C216.686 118.516 216.681 118.516 216.676 118.516C216.672 118.516 216.667 118.516 216.662 118.516C216.657 118.516 216.652 118.516 216.647 118.516C216.643 118.516 216.638 118.516 216.633 118.516C216.628 118.516 216.624 118.516 216.619 118.516C216.614 118.516 216.609 118.516 216.605 118.516C216.6 118.516 216.595 118.516 216.591 118.516C216.586 118.516 216.581 118.516 216.577 118.516C216.572 118.516 216.567 118.516 216.563 118.516C216.558 118.516 216.553 118.516 216.549 118.516C216.544 118.516 216.54 118.516 216.535 118.516C216.53 118.516 216.526 118.516 216.521 118.516C216.517 118.516 216.512 118.516 216.508 118.516C216.503 118.516 216.499 118.516 216.494 118.516C216.49 118.516 216.485 118.516 216.481 118.516C216.476 118.516 216.472 118.516 216.467 118.516C216.463 118.516 216.458 118.516 216.454 118.516C216.449 118.516 216.445 118.516 216.441 118.516C216.436 118.516 216.432 118.516 216.427 118.516C216.423 118.516 216.419 118.516 216.414 118.516C216.41 118.516 216.406 118.516 216.401 118.516C216.397 118.516 216.393 118.516 216.388 118.516C216.384 118.516 216.38 118.516 216.376 118.516C216.371 118.516 216.367 118.516 216.363 118.516C216.359 118.516 216.354 118.516 216.35 118.516C216.346 118.516 216.342 118.516 216.338 118.516C216.334 118.516 216.329 118.516 216.325 118.516C216.321 118.516 216.317 118.516 216.313 118.516C216.309 118.516 216.305 118.516 216.3 118.516C216.296 118.516 216.292 118.516 216.288 118.516C216.284 118.516 216.28 118.516 216.276 118.516C216.272 118.516 216.268 118.516 216.264 118.516C216.26 118.516 216.256 118.516 216.252 118.516C216.248 118.516 216.244 118.516 216.24 118.516C216.236 118.516 216.232 118.516 216.228 118.516C216.224 118.516 216.22 118.516 216.217 118.516C216.213 118.516 216.209 118.516 216.205 118.516C216.201 118.516 216.197 118.516 216.193 118.516C216.19 118.516 216.186 118.516 216.182 118.516C216.178 118.516 216.174 118.516 216.17 118.516C216.167 118.516 216.163 118.516 216.159 118.516C216.155 118.516 216.152 118.516 216.148 118.516C216.144 118.516 216.141 118.516 216.137 118.516C216.133 118.516 216.129 118.516 216.126 118.516C216.122 118.516 216.118 118.516 216.115 118.516C216.111 118.516 216.108 118.516 216.104 118.516C216.1 118.516 216.097 118.516 216.093 118.516C216.09 118.516 216.086 118.516 216.082 118.516C216.079 118.516 216.075 118.516 216.072 118.516C216.068 118.516 216.065 118.516 216.061 118.516C216.058 118.516 216.054 118.516 216.051 118.516C216.048 118.516 216.044 118.516 216.041 118.516C216.037 118.516 216.034 118.516 216.03 118.516C216.027 118.516 216.024 118.516 216.02 118.516C216.017 118.516 216.014 118.516 216.01 118.516C216.007 118.516 216.003 118.516 216 118.516C215.997 118.516 215.994 118.516 215.99 118.516C215.987 118.516 215.984 118.516 215.981 118.516C215.977 118.516 215.974 118.516 215.971 118.516C215.968 118.516 215.964 118.516 215.961 118.516C215.958 118.516 215.955 118.516 215.952 118.516C215.949 118.516 215.945 118.516 215.942 118.516C215.939 118.516 215.936 118.516 215.933 118.516C215.93 118.516 215.927 118.516 215.924 118.516C215.921 118.516 215.918 118.516 215.915 118.516C215.911 118.516 215.908 118.516 215.905 118.516C215.902 118.516 215.899 118.516 215.896 118.516C215.894 118.516 215.891 118.516 215.888 118.516C215.885 118.516 215.882 118.516 215.879 118.516C215.876 118.516 215.873 118.516 215.87 118.516C215.867 118.516 215.864 118.516 215.862 118.516C215.859 118.516 215.856 118.516 215.853 118.516C215.85 118.516 215.847 118.516 215.845 118.516C215.842 118.516 215.839 118.516 215.836 118.516C215.834 118.516 215.831 118.516 215.828 118.516C215.825 118.516 215.823 118.516 215.82 118.516C215.817 118.516 215.815 118.516 215.812 118.516C215.809 118.516 215.807 118.516 215.804 118.516C215.801 118.516 215.799 118.516 215.796 118.516C215.794 118.516 215.791 118.516 215.789 118.516C215.786 118.516 215.783 118.516 215.781 118.516C215.778 118.516 215.776 118.516 215.773 118.516C215.771 118.516 215.768 118.516 215.766 118.516C215.763 118.516 215.761 118.516 215.759 118.516C215.756 118.516 215.754 118.516 215.751 118.516C215.749 118.516 215.746 118.516 215.744 118.516C215.742 118.516 215.739 118.516 215.737 118.516C215.735 118.516 215.732 118.516 215.73 118.516C215.728 118.516 215.726 118.516 215.723 118.516C215.721 118.516 215.719 118.516 215.716 118.516C215.714 118.516 215.712 118.516 215.71 118.516C215.708 118.516 215.705 118.516 215.703 118.516C215.701 118.516 215.699 118.516 215.697 118.516C215.695 118.516 215.693 118.516 215.69 118.516C215.688 118.516 215.686 118.516 215.684 118.516C215.682 118.516 215.68 118.516 215.678 118.516C215.676 118.516 215.674 118.516 215.672 118.516C215.67 118.516 215.668 118.516 215.666 118.516C215.664 118.516 215.662 118.516 215.66 118.516C215.658 118.516 215.656 118.516 215.654 118.516C215.652 118.516 215.651 118.516 215.649 118.516C215.647 118.516 215.645 118.516 215.643 118.516C215.641 118.516 215.639 118.516 215.638 118.516C215.636 118.516 215.634 118.516 215.632 118.516C215.631 118.516 215.629 118.516 215.627 118.516C215.625 118.516 215.624 118.516 215.622 118.516C215.62 118.516 215.619 118.516 215.617 118.516C215.615 118.516 215.614 118.516 215.612 118.516C215.61 118.516 215.609 118.516 215.607 118.516C215.606 118.516 215.604 118.516 215.602 118.516C215.601 118.516 215.599 118.516 215.598 118.516C215.596 118.516 215.595 118.516 215.593 118.516C215.592 118.516 215.59 118.516 215.589 118.516C215.587 118.516 215.586 118.516 215.584 118.516C215.583 118.516 215.582 118.516 215.58 118.516C215.579 118.516 215.577 118.516 215.576 118.516C215.575 118.516 215.573 118.516 215.572 118.516C215.571 118.516 215.57 118.516 215.568 118.516C215.567 118.516 215.566 118.516 215.564 118.516C215.563 118.516 215.562 118.516 215.561 118.516C215.56 118.516 215.558 118.516 215.557 118.516C215.556 118.516 215.555 118.516 215.554 118.516C215.553 118.516 215.551 118.516 215.55 118.516C215.549 118.516 215.548 118.516 215.547 118.516C215.546 118.516 215.545 118.516 215.544 118.516C215.543 118.516 215.542 118.516 215.541 118.516C215.54 118.516 215.539 118.516 215.538 118.516C215.537 118.516 215.536 118.516 215.535 118.516C215.534 118.516 215.533 118.516 215.532 118.516C215.531 118.516 215.531 118.516 215.53 118.516C215.529 118.516 215.528 118.516 215.527 118.516C215.526 118.516 215.526 118.516 215.525 118.516C215.524 118.516 215.523 118.516 215.523 118.516C215.522 118.516 215.521 118.516 215.52 118.516C215.52 118.516 215.519 118.516 215.518 118.516C215.518 118.516 215.517 118.516 215.516 118.516C215.516 118.516 215.515 118.516 215.514 118.516C215.514 118.516 215.513 118.516 215.513 118.516C215.512 118.516 215.512 118.516 215.511 118.516C215.511 118.516 215.51 118.516 215.51 118.516C215.509 118.516 215.509 118.516 215.508 118.516C215.508 118.516 215.507 118.516 215.507 118.516C215.506 118.516 215.506 118.516 215.506 118.516C215.505 118.516 215.505 118.516 215.505 118.516C215.504 118.516 215.504 118.516 215.504 118.516C215.503 118.516 215.503 118.516 215.503 118.516C215.503 118.516 215.502 118.516 215.502 118.516C215.502 118.516 215.502 118.516 215.501 118.516C215.501 118.516 215.501 118.516 215.501 118.516C215.501 118.516 215.501 118.516 215.501 118.516C215.5 118.516 215.5 118.516 215.5 118.516C215.5 118.516 215.5 118.516 215.5 118.516C215.5 118.516 215.5 118.516 215.5 119.016C215.5 119.516 215.5 119.516 215.5 119.516C215.5 119.516 215.5 119.516 215.5 119.516C215.5 119.516 215.5 119.516 215.501 119.516C215.501 119.516 215.501 119.516 215.501 119.516C215.501 119.516 215.501 119.516 215.501 119.516C215.502 119.516 215.502 119.516 215.502 119.516C215.502 119.516 215.503 119.516 215.503 119.516C215.503 119.516 215.503 119.516 215.504 119.516C215.504 119.516 215.504 119.516 215.505 119.516C215.505 119.516 215.505 119.516 215.506 119.516C215.506 119.516 215.506 119.516 215.507 119.516C215.507 119.516 215.508 119.516 215.508 119.516C215.509 119.516 215.509 119.516 215.51 119.516C215.51 119.516 215.511 119.516 215.511 119.516C215.512 119.516 215.512 119.516 215.513 119.516C215.513 119.516 215.514 119.516 215.514 119.516C215.515 119.516 215.516 119.516 215.516 119.516C215.517 119.516 215.518 119.516 215.518 119.516C215.519 119.516 215.52 119.516 215.52 119.516C215.521 119.516 215.522 119.516 215.523 119.516C215.523 119.516 215.524 119.516 215.525 119.516C215.526 119.516 215.526 119.516 215.527 119.516C215.528 119.516 215.529 119.516 215.53 119.516C215.531 119.516 215.531 119.516 215.532 119.516C215.533 119.516 215.534 119.516 215.535 119.516C215.536 119.516 215.537 119.516 215.538 119.516C215.539 119.516 215.54 119.516 215.541 119.516C215.542 119.516 215.543 119.516 215.544 119.516C215.545 119.516 215.546 119.516 215.547 119.516C215.548 119.516 215.549 119.516 215.55 119.516C215.551 119.516 215.553 119.516 215.554 119.516C215.555 119.516 215.556 119.516 215.557 119.516C215.558 119.516 215.56 119.516 215.561 119.516C215.562 119.516 215.563 119.516 215.564 119.516C215.566 119.516 215.567 119.516 215.568 119.516C215.57 119.516 215.571 119.516 215.572 119.516C215.573 119.516 215.575 119.516 215.576 119.516C215.577 119.516 215.579 119.516 215.58 119.516C215.582 119.516 215.583 119.516 215.584 119.516C215.586 119.516 215.587 119.516 215.589 119.516C215.59 119.516 215.592 119.516 215.593 119.516C215.595 119.516 215.596 119.516 215.598 119.516C215.599 119.516 215.601 119.516 215.602 119.516C215.604 119.516 215.606 119.516 215.607 119.516C215.609 119.516 215.61 119.516 215.612 119.516C215.614 119.516 215.615 119.516 215.617 119.516C215.619 119.516 215.62 119.516 215.622 119.516C215.624 119.516 215.625 119.516 215.627 119.516C215.629 119.516 215.631 119.516 215.632 119.516C215.634 119.516 215.636 119.516 215.638 119.516C215.639 119.516 215.641 119.516 215.643 119.516C215.645 119.516 215.647 119.516 215.649 119.516C215.651 119.516 215.652 119.516 215.654 119.516C215.656 119.516 215.658 119.516 215.66 119.516C215.662 119.516 215.664 119.516 215.666 119.516C215.668 119.516 215.67 119.516 215.672 119.516C215.674 119.516 215.676 119.516 215.678 119.516C215.68 119.516 215.682 119.516 215.684 119.516C215.686 119.516 215.688 119.516 215.69 119.516C215.693 119.516 215.695 119.516 215.697 119.516C215.699 119.516 215.701 119.516 215.703 119.516C215.705 119.516 215.708 119.516 215.71 119.516C215.712 119.516 215.714 119.516 215.716 119.516C215.719 119.516 215.721 119.516 215.723 119.516C215.726 119.516 215.728 119.516 215.73 119.516C215.732 119.516 215.735 119.516 215.737 119.516C215.739 119.516 215.742 119.516 215.744 119.516C215.746 119.516 215.749 119.516 215.751 119.516C215.754 119.516 215.756 119.516 215.759 119.516C215.761 119.516 215.763 119.516 215.766 119.516C215.768 119.516 215.771 119.516 215.773 119.516C215.776 119.516 215.778 119.516 215.781 119.516C215.783 119.516 215.786 119.516 215.789 119.516C215.791 119.516 215.794 119.516 215.796 119.516C215.799 119.516 215.801 119.516 215.804 119.516C215.807 119.516 215.809 119.516 215.812 119.516C215.815 119.516 215.817 119.516 215.82 119.516C215.823 119.516 215.825 119.516 215.828 119.516C215.831 119.516 215.834 119.516 215.836 119.516C215.839 119.516 215.842 119.516 215.845 119.516C215.847 119.516 215.85 119.516 215.853 119.516C215.856 119.516 215.859 119.516 215.862 119.516C215.864 119.516 215.867 119.516 215.87 119.516C215.873 119.516 215.876 119.516 215.879 119.516C215.882 119.516 215.885 119.516 215.888 119.516C215.891 119.516 215.894 119.516 215.896 119.516C215.899 119.516 215.902 119.516 215.905 119.516C215.908 119.516 215.911 119.516 215.915 119.516C215.918 119.516 215.921 119.516 215.924 119.516C215.927 119.516 215.93 119.516 215.933 119.516C215.936 119.516 215.939 119.516 215.942 119.516C215.945 119.516 215.949 119.516 215.952 119.516C215.955 119.516 215.958 119.516 215.961 119.516C215.964 119.516 215.968 119.516 215.971 119.516C215.974 119.516 215.977 119.516 215.981 119.516C215.984 119.516 215.987 119.516 215.99 119.516C215.994 119.516 215.997 119.516 216 119.516C216.003 119.516 216.007 119.516 216.01 119.516C216.014 119.516 216.017 119.516 216.02 119.516C216.024 119.516 216.027 119.516 216.03 119.516C216.034 119.516 216.037 119.516 216.041 119.516C216.044 119.516 216.048 119.516 216.051 119.516C216.054 119.516 216.058 119.516 216.061 119.516C216.065 119.516 216.068 119.516 216.072 119.516C216.075 119.516 216.079 119.516 216.082 119.516C216.086 119.516 216.09 119.516 216.093 119.516C216.097 119.516 216.1 119.516 216.104 119.516C216.108 119.516 216.111 119.516 216.115 119.516C216.118 119.516 216.122 119.516 216.126 119.516C216.129 119.516 216.133 119.516 216.137 119.516C216.141 119.516 216.144 119.516 216.148 119.516C216.152 119.516 216.155 119.516 216.159 119.516C216.163 119.516 216.167 119.516 216.17 119.516C216.174 119.516 216.178 119.516 216.182 119.516C216.186 119.516 216.19 119.516 216.193 119.516C216.197 119.516 216.201 119.516 216.205 119.516C216.209 119.516 216.213 119.516 216.217 119.516C216.22 119.516 216.224 119.516 216.228 119.516C216.232 119.516 216.236 119.516 216.24 119.516C216.244 119.516 216.248 119.516 216.252 119.516C216.256 119.516 216.26 119.516 216.264 119.516C216.268 119.516 216.272 119.516 216.276 119.516C216.28 119.516 216.284 119.516 216.288 119.516C216.292 119.516 216.296 119.516 216.3 119.516C216.305 119.516 216.309 119.516 216.313 119.516C216.317 119.516 216.321 119.516 216.325 119.516C216.329 119.516 216.334 119.516 216.338 119.516C216.342 119.516 216.346 119.516 216.35 119.516C216.354 119.516 216.359 119.516 216.363 119.516C216.367 119.516 216.371 119.516 216.376 119.516C216.38 119.516 216.384 119.516 216.388 119.516C216.393 119.516 216.397 119.516 216.401 119.516C216.406 119.516 216.41 119.516 216.414 119.516C216.419 119.516 216.423 119.516 216.427 119.516C216.432 119.516 216.436 119.516 216.441 119.516C216.445 119.516 216.449 119.516 216.454 119.516C216.458 119.516 216.463 119.516 216.467 119.516C216.472 119.516 216.476 119.516 216.481 119.516C216.485 119.516 216.49 119.516 216.494 119.516C216.499 119.516 216.503 119.516 216.508 119.516C216.512 119.516 216.517 119.516 216.521 119.516C216.526 119.516 216.53 119.516 216.535 119.516C216.54 119.516 216.544 119.516 216.549 119.516C216.553 119.516 216.558 119.516 216.563 119.516C216.567 119.516 216.572 119.516 216.577 119.516C216.581 119.516 216.586 119.516 216.591 119.516C216.595 119.516 216.6 119.516 216.605 119.516C216.609 119.516 216.614 119.516 216.619 119.516C216.624 119.516 216.628 119.516 216.633 119.516C216.638 119.516 216.643 119.516 216.647 119.516C216.652 119.516 216.657 119.516 216.662 119.516C216.667 119.516 216.672 119.516 216.676 119.516C216.681 119.516 216.686 119.516 216.691 119.516C216.696 119.516 216.701 119.516 216.706 119.516C216.711 119.516 216.715 119.516 216.72 119.516C216.725 119.516 216.73 119.516 216.735 119.516C216.74 119.516 216.745 119.516 216.75 119.516C216.755 119.516 216.76 119.516 216.765 119.516C216.77 119.516 216.775 119.516 216.78 119.516C216.785 119.516 216.79 119.516 216.795 119.516C216.8 119.516 216.805 119.516 216.81 119.516C216.815 119.516 216.82 119.516 216.826 119.516C216.831 119.516 216.836 119.516 216.841 119.516C216.846 119.516 216.851 119.516 216.856 119.516C216.861 119.516 216.867 119.516 216.872 119.516C216.877 119.516 216.882 119.516 216.887 119.516C216.893 119.516 216.898 119.516 216.903 119.516C216.908 119.516 216.913 119.516 216.919 119.516C216.924 119.516 216.929 119.516 216.934 119.516C216.94 119.516 216.945 119.516 216.95 119.516C216.956 119.516 216.961 119.516 216.966 119.516C216.972 119.516 216.977 119.516 216.982 119.516C216.988 119.516 216.993 119.516 216.998 119.516C217.004 119.516 217.009 119.516 217.014 119.516C217.02 119.516 217.025 119.516 217.031 119.516C217.036 119.516 217.041 119.516 217.047 119.516C217.052 119.516 217.058 119.516 217.063 119.516C217.069 119.516 217.074 119.516 217.08 119.516C217.085 119.516 217.091 119.516 217.096 119.516C217.102 119.516 217.107 119.516 217.113 119.516C217.118 119.516 217.124 119.516 217.129 119.516C217.135 119.516 217.141 119.516 217.146 119.516C217.152 119.516 217.157 119.516 217.163 119.516C217.168 119.516 217.174 119.516 217.18 119.516C217.185 119.516 217.191 119.516 217.197 119.516C217.202 119.516 217.208 119.516 217.214 119.516C217.219 119.516 217.225 119.516 217.231 119.516C217.236 119.516 217.242 119.516 217.248 119.516C217.253 119.516 217.259 119.516 217.265 119.516C217.271 119.516 217.276 119.516 217.282 119.516C217.288 119.516 217.294 119.516 217.3 119.516C217.305 119.516 217.311 119.516 217.317 119.516C217.323 119.516 217.329 119.516 217.334 119.516C217.34 119.516 217.346 119.516 217.352 119.516C217.358 119.516 217.364 119.516 217.369 119.516C217.375 119.516 217.381 119.516 217.387 119.516C217.393 119.516 217.399 119.516 217.405 119.516C217.411 119.516 217.417 119.516 217.423 119.516C217.429 119.516 217.435 119.516 217.441 119.516C217.446 119.516 217.452 119.516 217.458 119.516C217.464 119.516 217.47 119.516 217.476 119.516C217.482 119.516 217.488 119.516 217.494 119.516C217.501 119.516 217.507 119.516 217.513 119.516C217.519 119.516 217.525 119.516 217.531 119.516C217.537 119.516 217.543 119.516 217.549 119.516C217.555 119.516 217.561 119.516 217.567 119.516C217.573 119.516 217.58 119.516 217.586 119.516C217.592 119.516 217.598 119.516 217.604 119.516C217.61 119.516 217.616 119.516 217.623 119.516C217.629 119.516 217.635 119.516 217.641 119.516C217.647 119.516 217.654 119.516 217.66 119.516C217.666 119.516 217.672 119.516 217.679 119.516C217.685 119.516 217.691 119.516 217.697 119.516C217.704 119.516 217.71 119.516 217.716 119.516C217.722 119.516 217.729 119.516 217.735 119.516C217.741 119.516 217.748 119.516 217.754 119.516C217.76 119.516 217.767 119.516 217.773 119.516C217.779 119.516 217.786 119.516 217.792 119.516C217.798 119.516 217.805 119.516 217.811 119.516C217.817 119.516 217.824 119.516 217.83 119.516C217.837 119.516 217.843 119.516 217.849 119.516C217.856 119.516 217.862 119.516 217.869 119.516C217.875 119.516 217.882 119.516 217.888 119.516C217.895 119.516 217.901 119.516 217.908 119.516C217.914 119.516 217.921 119.516 217.927 119.516C217.934 119.516 217.94 119.516 217.947 119.516C217.953 119.516 217.96 119.516 217.966 119.516C217.973 119.516 217.979 119.516 217.986 119.516C217.992 119.516 217.999 119.516 218.006 119.516C218.012 119.516 218.019 119.516 218.025 119.516C218.032 119.516 218.039 119.516 218.045 119.516C218.052 119.516 218.058 119.516 218.065 119.516C218.072 119.516 218.078 119.516 218.085 119.516C218.092 119.516 218.098 119.516 218.105 119.516C218.112 119.516 218.118 119.516 218.125 119.516C218.132 119.516 218.138 119.516 218.145 119.516C218.152 119.516 218.159 119.516 218.165 119.516C218.172 119.516 218.179 119.516 218.186 119.516C218.192 119.516 218.199 119.516 218.206 119.516C218.213 119.516 218.219 119.516 218.226 119.516C218.233 119.516 218.24 119.516 218.247 119.516C218.253 119.516 218.26 119.516 218.267 119.516C218.274 119.516 218.281 119.516 218.288 119.516C218.294 119.516 218.301 119.516 218.308 119.516C218.315 119.516 218.322 119.516 218.329 119.516C218.336 119.516 218.343 119.516 218.349 119.516C218.356 119.516 218.363 119.516 218.37 119.516C218.377 119.516 218.384 119.516 218.391 119.516C218.398 119.516 218.405 119.516 218.412 119.516C218.419 119.516 218.426 119.516 218.433 119.516C218.44 119.516 218.447 119.516 218.454 119.516C218.461 119.516 218.468 119.516 218.475 119.516C218.482 119.516 218.489 119.516 218.496 119.516C218.503 119.516 218.51 119.516 218.517 119.516C218.524 119.516 218.531 119.516 218.538 119.516C218.545 119.516 218.552 119.516 218.559 119.516C218.566 119.516 218.573 119.516 218.58 119.516C218.587 119.516 218.595 119.516 218.602 119.516C218.609 119.516 218.616 119.516 218.623 119.516C218.63 119.516 218.637 119.516 218.644 119.516C218.652 119.516 218.659 119.516 218.666 119.516C218.673 119.516 218.68 119.516 218.687 119.516C218.695 119.516 218.702 119.516 218.709 119.516C218.716 119.516 218.723 119.516 218.731 119.516C218.738 119.516 218.745 119.516 218.752 119.516C218.759 119.516 218.767 119.516 218.774 119.516C218.781 119.516 218.788 119.516 218.796 119.516C218.803 119.516 218.81 119.516 218.817 119.516C218.825 119.516 218.832 119.516 218.839 119.516C218.847 119.516 218.854 119.516 218.861 119.516C218.868 119.516 218.876 119.516 218.883 119.516C218.89 119.516 218.898 119.516 218.905 119.516C218.912 119.516 218.92 119.516 218.927 119.516C218.935 119.516 218.942 119.516 218.949 119.516C218.957 119.516 218.964 119.516 218.971 119.516C218.979 119.516 218.986 119.516 218.994 119.516C219.001 119.516 219.008 119.516 219.016 119.516C219.023 119.516 219.031 119.516 219.038 119.516C219.046 119.516 219.053 119.516 219.06 119.516C219.068 119.516 219.075 119.516 219.083 119.516C219.09 119.516 219.098 119.516 219.105 119.516C219.113 119.516 219.12 119.516 219.128 119.516C219.135 119.516 219.143 119.516 219.15 119.516C219.158 119.516 219.165 119.516 219.173 119.516C219.18 119.516 219.188 119.516 219.195 119.516C219.203 119.516 219.21 119.516 219.218 119.516C219.226 119.516 219.233 119.516 219.241 119.516C219.248 119.516 219.256 119.516 219.263 119.516C219.271 119.516 219.279 119.516 219.286 119.516C219.294 119.516 219.301 119.516 219.309 119.516C219.317 119.516 219.324 119.516 219.332 119.516C219.339 119.516 219.347 119.516 219.355 119.516C219.362 119.516 219.37 119.516 219.378 119.516C219.385 119.516 219.393 119.516 219.401 119.516C219.408 119.516 219.416 119.516 219.424 119.516C219.431 119.516 219.439 119.516 219.447 119.516C219.455 119.516 219.462 119.516 219.47 119.516C219.478 119.516 219.485 119.516 219.493 119.516C219.501 119.516 219.509 119.516 219.516 119.516C219.524 119.516 219.532 119.516 219.54 119.516C219.547 119.516 219.555 119.516 219.563 119.516C219.571 119.516 219.578 119.516 219.586 119.516C219.594 119.516 219.602 119.516 219.609 119.516C219.617 119.516 219.625 119.516 219.633 119.516C219.641 119.516 219.649 119.516 219.656 119.516C219.664 119.516 219.672 119.516 219.68 119.516C219.688 119.516 219.695 119.516 219.703 119.516C219.711 119.516 219.719 119.516 219.727 119.516C219.735 119.516 219.743 119.516 219.75 119.516C219.758 119.516 219.766 119.516 219.774 119.516C219.782 119.516 219.79 119.516 219.798 119.516C219.806 119.516 219.814 119.516 219.822 119.516C219.829 119.516 219.837 119.516 219.845 119.516C219.853 119.516 219.861 119.516 219.869 119.516C219.877 119.516 219.885 119.516 219.893 119.516C219.901 119.516 219.909 119.516 219.917 119.516C219.925 119.516 219.933 119.516 219.941 119.516C219.949 119.516 219.957 119.516 219.965 119.516C219.973 119.516 219.981 119.516 219.989 119.516C219.997 119.516 220.005 119.516 220.013 119.516C220.021 119.516 220.029 119.516 220.037 119.516C220.045 119.516 220.053 119.516 220.061 119.516C220.069 119.516 220.077 119.516 220.085 119.516C220.093 119.516 220.101 119.516 220.109 119.516C220.117 119.516 220.125 119.516 220.133 119.516C220.141 119.516 220.149 119.516 220.157 119.516C220.165 119.516 220.174 119.516 220.182 119.516C220.19 119.516 220.198 119.516 220.206 119.516C220.214 119.516 220.222 119.516 220.23 119.516C220.238 119.516 220.246 119.516 220.255 119.516C220.263 119.516 220.271 119.516 220.279 119.516C220.287 119.516 220.295 119.516 220.303 119.516C220.312 119.516 220.32 119.516 220.328 119.516C220.336 119.516 220.344 119.516 220.352 119.516C220.361 119.516 220.369 119.516 220.377 119.516C220.385 119.516 220.393 119.516 220.401 119.516C220.41 119.516 220.418 119.516 220.426 119.516C220.434 119.516 220.442 119.516 220.451 119.516C220.459 119.516 220.467 119.516 220.475 119.516C220.484 119.516 220.492 119.516 220.5 119.516C220.508 119.516 220.516 119.516 220.525 119.516C220.533 119.516 220.541 119.516 220.549 119.516C220.558 119.516 220.566 119.516 220.574 119.516C220.583 119.516 220.591 119.516 220.599 119.516C220.607 119.516 220.616 119.516 220.624 119.516C220.632 119.516 220.64 119.516 220.649 119.516C220.657 119.516 220.665 119.516 220.674 119.516C220.682 119.516 220.69 119.516 220.699 119.516C220.707 119.516 220.715 119.516 220.724 119.516C220.732 119.516 220.74 119.516 220.749 119.516C220.757 119.516 220.765 119.516 220.774 119.516C220.782 119.516 220.79 119.516 220.799 119.516C220.807 119.516 220.815 119.516 220.824 119.516C220.832 119.516 220.84 119.516 220.849 119.516C220.857 119.516 220.865 119.516 220.874 119.516C220.882 119.516 220.891 119.516 220.899 119.516C220.907 119.516 220.916 119.516 220.924 119.516C220.933 119.516 220.941 119.516 220.949 119.516C220.958 119.516 220.966 119.516 220.975 119.516C220.983 119.516 220.991 119.516 221 119.516C221.008 119.516 221.017 119.516 221.025 119.516C221.034 119.516 221.042 119.516 221.05 119.516C221.059 119.516 221.067 119.516 221.076 119.516C221.084 119.516 221.093 119.516 221.101 119.516C221.11 119.516 221.118 119.516 221.127 119.516C221.135 119.516 221.143 119.516 221.152 119.516C221.16 119.516 221.169 119.516 221.177 119.516C221.186 119.516 221.194 119.516 221.203 119.516C221.211 119.516 221.22 119.516 221.228 119.516C221.237 119.516 221.245 119.516 221.254 119.516C221.262 119.516 221.271 119.516 221.279 119.516C221.288 119.516 221.296 119.516 221.305 119.516C221.313 119.516 221.322 119.516 221.33 119.516C221.339 119.516 221.348 119.516 221.356 119.516C221.365 119.516 221.373 119.516 221.382 119.516C221.39 119.516 221.399 119.516 221.407 119.516C221.416 119.516 221.424 119.516 221.433 119.516C221.442 119.516 221.45 119.516 221.459 119.516C221.467 119.516 221.476 119.516 221.484 119.516C221.493 119.516 221.502 119.516 221.51 119.516C221.519 119.516 221.527 119.516 221.536 119.516C221.545 119.516 221.553 119.516 221.562 119.516C221.57 119.516 221.579 119.516 221.588 119.516C221.596 119.516 221.605 119.516 221.613 119.516C221.622 119.516 221.631 119.516 221.639 119.516C221.648 119.516 221.656 119.516 221.665 119.516C221.674 119.516 221.682 119.516 221.691 119.516C221.7 119.516 221.708 119.516 221.717 119.516C221.725 119.516 221.734 119.516 221.743 119.516C221.751 119.516 221.76 119.516 221.769 119.516C221.777 119.516 221.786 119.516 221.795 119.516C221.803 119.516 221.812 119.516 221.821 119.516C221.829 119.516 221.838 119.516 221.847 119.516C221.855 119.516 221.864 119.516 221.873 119.516C221.881 119.516 221.89 119.516 221.899 119.516C221.907 119.516 221.916 119.516 221.925 119.516C221.933 119.516 221.942 119.516 221.951 119.516C221.959 119.516 221.968 119.516 221.977 119.516C221.985 119.516 221.994 119.516 222.003 119.516C222.012 119.516 222.02 119.516 222.029 119.516C222.038 119.516 222.046 119.516 222.055 119.516C222.064 119.516 222.073 119.516 222.081 119.516C222.09 119.516 222.099 119.516 222.107 119.516C222.116 119.516 222.125 119.516 222.134 119.516C222.142 119.516 222.151 119.516 222.16 119.516C222.169 119.516 222.177 119.516 222.186 119.516C222.195 119.516 222.203 119.516 222.212 119.516C222.221 119.516 222.23 119.516 222.238 119.516C222.247 119.516 222.256 119.516 222.265 119.516C222.273 119.516 222.282 119.516 222.291 119.516C222.3 119.516 222.309 119.516 222.317 119.516C222.326 119.516 222.335 119.516 222.344 119.516C222.352 119.516 222.361 119.516 222.37 119.516C222.379 119.516 222.387 119.516 222.396 119.516C222.405 119.516 222.414 119.516 222.423 119.516C222.431 119.516 222.44 119.516 222.449 119.516C222.458 119.516 222.466 119.516 222.475 119.516C222.484 119.516 222.493 119.516 222.502 119.516C222.51 119.516 222.519 119.516 222.528 119.516C222.537 119.516 222.546 119.516 222.554 119.516C222.563 119.516 222.572 119.516 222.581 119.516C222.59 119.516 222.598 119.516 222.607 119.516C222.616 119.516 222.625 119.516 222.634 119.516C222.642 119.516 222.651 119.516 222.66 119.516C222.669 119.516 222.678 119.516 222.687 119.516C222.695 119.516 222.704 119.516 222.713 119.516C222.722 119.516 222.731 119.516 222.739 119.516C222.748 119.516 222.757 119.516 222.766 119.516C222.775 119.516 222.784 119.516 222.792 119.516C222.801 119.516 222.81 119.516 222.819 119.516C222.828 119.516 222.837 119.516 222.845 119.516C222.854 119.516 222.863 119.516 222.872 119.516C222.881 119.516 222.89 119.516 222.898 119.516C222.907 119.516 222.916 119.516 222.925 119.516C222.934 119.516 222.943 119.516 222.952 119.516C222.96 119.516 222.969 119.516 222.978 119.516C222.987 119.516 222.996 119.516 223.005 119.516C223.013 119.516 223.022 119.516 223.031 119.516C223.04 119.516 223.049 119.516 223.058 119.516C223.067 119.516 223.075 119.516 223.084 119.516C223.093 119.516 223.102 119.516 223.111 119.516C223.12 119.516 223.129 119.516 223.138 119.516C223.146 119.516 223.155 119.516 223.164 119.516C223.173 119.516 223.182 119.516 223.191 119.516C223.2 119.516 223.208 119.516 223.217 119.516C223.226 119.516 223.235 119.516 223.244 119.516C223.253 119.516 223.262 119.516 223.271 119.516C223.279 119.516 223.288 119.516 223.297 119.516C223.306 119.516 223.315 119.516 223.324 119.516C223.333 119.516 223.342 119.516 223.35 119.516C223.359 119.516 223.368 119.516 223.377 119.516C223.386 119.516 223.395 119.516 223.404 119.516C223.413 119.516 223.421 119.516 223.43 119.516C223.439 119.516 223.448 119.516 223.457 119.516C223.466 119.516 223.475 119.516 223.484 119.516C223.493 119.516 223.501 119.516 223.51 119.516C223.519 119.516 223.528 119.516 223.537 119.516C223.546 119.516 223.555 119.516 223.564 119.516C223.573 119.516 223.581 119.516 223.59 119.516C223.599 119.516 223.608 119.516 223.617 119.516C223.626 119.516 223.635 119.516 223.644 119.516C223.652 119.516 223.661 119.516 223.67 119.516C223.679 119.516 223.688 119.516 223.697 119.516C223.706 119.516 223.715 119.516 223.724 119.516C223.732 119.516 223.741 119.516 223.75 119.516C223.759 119.516 223.768 119.516 223.777 119.516C223.786 119.516 223.795 119.516 223.804 119.516C223.813 119.516 223.821 119.516 223.83 119.516C223.839 119.516 223.848 119.516 223.857 119.516C223.866 119.516 223.875 119.516 223.884 119.516C223.893 119.516 223.901 119.516 223.91 119.516C223.919 119.516 223.928 119.516 223.937 119.516C223.946 119.516 223.955 119.516 223.964 119.516C223.973 119.516 223.981 119.516 223.99 119.516C223.999 119.516 224.008 119.516 224.017 119.516C224.026 119.516 224.035 119.516 224.044 119.516C224.052 119.516 224.061 119.516 224.07 119.516C224.079 119.516 224.088 119.516 224.097 119.516C224.106 119.516 224.115 119.516 224.124 119.516C224.132 119.516 224.141 119.516 224.15 119.516C224.159 119.516 224.168 119.516 224.177 119.516C224.186 119.516 224.195 119.516 224.204 119.516C224.212 119.516 224.221 119.516 224.23 119.516C224.239 119.516 224.248 119.516 224.257 119.516C224.266 119.516 224.275 119.516 224.283 119.516C224.292 119.516 224.301 119.516 224.31 119.516C224.319 119.516 224.328 119.516 224.337 119.516C224.346 119.516 224.354 119.516 224.363 119.516C224.372 119.516 224.381 119.516 224.39 119.516C224.399 119.516 224.408 119.516 224.417 119.516C224.425 119.516 224.434 119.516 224.443 119.516C224.452 119.516 224.461 119.516 224.47 119.516C224.479 119.516 224.487 119.516 224.496 119.516C224.505 119.516 224.514 119.516 224.523 119.516C224.532 119.516 224.541 119.516 224.549 119.516C224.558 119.516 224.567 119.516 224.576 119.516C224.585 119.516 224.594 119.516 224.603 119.516C224.611 119.516 224.62 119.516 224.629 119.516C224.638 119.516 224.647 119.516 224.656 119.516C224.665 119.516 224.673 119.516 224.682 119.516C224.691 119.516 224.7 119.516 224.709 119.516C224.718 119.516 224.726 119.516 224.735 119.516C224.744 119.516 224.753 119.516 224.762 119.516C224.771 119.516 224.779 119.516 224.788 119.516C224.797 119.516 224.806 119.516 224.815 119.516C224.824 119.516 224.832 119.516 224.841 119.516C224.85 119.516 224.859 119.516 224.868 119.516C224.877 119.516 224.885 119.516 224.894 119.516C224.903 119.516 224.912 119.516 224.921 119.516C224.93 119.516 224.938 119.516 224.947 119.516C224.956 119.516 224.965 119.516 224.974 119.516C224.982 119.516 224.991 119.516 225 119.516V118.516ZM215.5 119.516H225V118.516H215.5V119.516ZM225.466 119.196L242.466 75.1801L241.534 74.8199L224.534 118.836L225.466 119.196Z" fill="#0D2F59"/>
<g filter="url(#filter0_d_72_25)">
<path d="M102.68 63.032H103.32L112.664 38.712L121.496 38.968L121.752 66.488L122.968 83H114.328L114.648 66.36L113.944 49.528L106.264 70.712L98.392 71.096L91.224 49.528L90.648 66.36L91.096 83H83.16L84.056 67.448L84.44 39.992L94.616 38.392L102.68 63.032ZM133.212 83L133.98 67.448L133.212 38.84H157.212L156.509 45.688H142.108L141.724 57.016H154.524L153.82 63.8H141.468L141.404 66.36L141.852 76.216H157.34L156.636 83H133.212ZM191.848 83.32L188.712 70.84H173.416L170.024 83L161.832 82.36L167.464 66.808L176.04 39.288L187.496 38.456L195.752 65.848L201.064 81.912L191.848 83.32ZM181.736 46.776H180.904L175.4 64.056H186.792L181.736 46.776ZM203.277 46.2L203.981 38.84H234.381L233.677 46.2L222.541 45.24L222.285 66.36L223.053 83H214.093L214.861 67.448L214.605 45.304L203.277 46.2Z" fill="#FFFDF7"/>
<path d="M102.68 63.032L100.779 63.6541L101.23 65.032H102.68V63.032ZM103.32 63.032V65.032H104.694L105.187 63.7493L103.32 63.032ZM112.664 38.712L112.722 36.7128L111.305 36.6718L110.797 37.9947L112.664 38.712ZM121.496 38.968L123.496 38.9494L123.478 37.0246L121.554 36.9688L121.496 38.968ZM121.752 66.488L119.752 66.5066L119.753 66.5708L119.757 66.6349L121.752 66.488ZM122.968 83V85H125.121L124.963 82.8531L122.968 83ZM114.328 83L112.328 82.9615L112.289 85H114.328V83ZM114.648 66.36L116.648 66.3985L116.649 66.3374L116.646 66.2764L114.648 66.36ZM113.944 49.528L115.942 49.4444L112.064 48.8463L113.944 49.528ZM106.264 70.712L106.361 72.7096L107.691 72.6448L108.144 71.3937L106.264 70.712ZM98.392 71.096L96.4941 71.7268L96.9729 73.1676L98.4894 73.0936L98.392 71.096ZM91.224 49.528L93.1219 48.8972L89.2252 49.4596L91.224 49.528ZM90.648 66.36L88.6492 66.2916L88.6471 66.3527L88.6487 66.4138L90.648 66.36ZM91.096 83V85H93.1506L93.0953 82.9462L91.096 83ZM83.16 83L81.1633 82.885L81.0415 85H83.16V83ZM84.056 67.448L86.0527 67.563L86.0552 67.5195L86.0558 67.476L84.056 67.448ZM84.44 39.992L84.1294 38.0163L82.4638 38.2782L82.4402 39.964L84.44 39.992ZM94.616 38.392L96.5168 37.7699L95.9872 36.1518L94.3054 36.4163L94.616 38.392ZM102.68 65.032H103.32V61.032H102.68V65.032ZM105.187 63.7493L114.531 39.4293L110.797 37.9947L101.453 62.3147L105.187 63.7493ZM112.606 40.7112L121.438 40.9672L121.554 36.9688L112.722 36.7128L112.606 40.7112ZM119.496 38.9866L119.752 66.5066L123.752 66.4694L123.496 38.9494L119.496 38.9866ZM119.757 66.6349L120.973 83.1469L124.963 82.8531L123.747 66.3411L119.757 66.6349ZM122.968 81H114.328V85H122.968V81ZM116.328 83.0385L116.648 66.3985L112.648 66.3215L112.328 82.9615L116.328 83.0385ZM116.646 66.2764L115.942 49.4444L111.946 49.6116L112.65 66.4436L116.646 66.2764ZM112.064 48.8463L104.384 70.0303L108.144 71.3937L115.824 50.2097L112.064 48.8463ZM106.167 68.7144L98.2946 69.0984L98.4894 73.0936L106.361 72.7096L106.167 68.7144ZM100.29 70.4652L93.1219 48.8972L89.3261 50.1588L96.4941 71.7268L100.29 70.4652ZM89.2252 49.4596L88.6492 66.2916L92.6468 66.4284L93.2228 49.5964L89.2252 49.4596ZM88.6487 66.4138L89.0967 83.0538L93.0953 82.9462L92.6473 66.3062L88.6487 66.4138ZM91.096 81H83.16V85H91.096V81ZM85.1567 83.115L86.0527 67.563L82.0593 67.333L81.1633 82.885L85.1567 83.115ZM86.0558 67.476L86.4398 40.02L82.4402 39.964L82.0562 67.42L86.0558 67.476ZM84.7506 41.9677L94.9266 40.3677L94.3054 36.4163L84.1294 38.0163L84.7506 41.9677ZM92.7152 39.0141L100.779 63.6541L104.581 62.4099L96.5168 37.7699L92.7152 39.0141ZM133.212 83L131.215 82.9014L131.111 85H133.212V83ZM133.98 67.448L135.978 67.5466L135.982 67.4705L135.98 67.3943L133.98 67.448ZM133.212 38.84V36.84H131.158L131.213 38.8937L133.212 38.84ZM157.212 38.84L159.202 39.0445L159.429 36.84H157.212V38.84ZM156.509 45.688V47.688H158.313L158.498 45.8925L156.509 45.688ZM142.108 45.688V43.688H140.175L140.11 45.6202L142.108 45.688ZM141.724 57.016L139.726 56.9482L139.656 59.016H141.724V57.016ZM154.524 57.016L156.514 57.2224L156.743 55.016H154.524V57.016ZM153.82 63.8V65.8H155.624L155.81 64.0064L153.82 63.8ZM141.468 63.8V61.8H139.518L139.469 63.75L141.468 63.8ZM141.404 66.36L139.405 66.31L139.403 66.3804L139.407 66.4508L141.404 66.36ZM141.852 76.216L139.855 76.3068L139.941 78.216H141.852V76.216ZM157.34 76.216L159.33 76.4224L159.559 74.216H157.34V76.216ZM156.636 83V85H158.44L158.626 83.2064L156.636 83ZM135.21 83.0986L135.978 67.5466L131.983 67.3494L131.215 82.9014L135.21 83.0986ZM135.98 67.3943L135.212 38.7863L131.213 38.8937L131.981 67.5017L135.98 67.3943ZM133.212 40.84H157.212V36.84H133.212V40.84ZM155.223 38.6355L154.519 45.4835L158.498 45.8925L159.202 39.0445L155.223 38.6355ZM156.509 43.688H142.108V47.688H156.509V43.688ZM140.11 45.6202L139.726 56.9482L143.723 57.0838L144.107 45.7558L140.11 45.6202ZM141.724 59.016H154.524V55.016H141.724V59.016ZM152.535 56.8096L151.831 63.5936L155.81 64.0064L156.514 57.2224L152.535 56.8096ZM153.82 61.8H141.468V65.8H153.82V61.8ZM139.469 63.75L139.405 66.31L143.404 66.41L143.468 63.85L139.469 63.75ZM139.407 66.4508L139.855 76.3068L143.85 76.1252L143.402 66.2692L139.407 66.4508ZM141.852 78.216H157.34V74.216H141.852V78.216ZM155.351 76.0096L154.647 82.7936L158.626 83.2064L159.33 76.4224L155.351 76.0096ZM156.636 81H133.212V85H156.636V81ZM191.848 83.32L189.909 83.8074L190.352 85.5718L192.151 85.2971L191.848 83.32ZM188.712 70.84L190.652 70.3526L190.272 68.84H188.712V70.84ZM173.416 70.84V68.84H171.898L171.49 70.3026L173.416 70.84ZM170.024 83L169.869 84.9939L171.509 85.1221L171.951 83.5374L170.024 83ZM161.832 82.36L159.952 81.679L159.057 84.1493L161.677 84.3539L161.832 82.36ZM167.464 66.808L169.345 67.489L169.36 67.4463L169.374 67.403L167.464 66.808ZM176.04 39.288L175.896 37.2933L174.536 37.392L174.131 38.693L176.04 39.288ZM187.496 38.456L189.411 37.8788L188.949 36.3452L187.352 36.4613L187.496 38.456ZM195.752 65.848L193.838 66.4252L193.845 66.4506L193.854 66.4759L195.752 65.848ZM201.064 81.912L201.367 83.8891L203.707 83.5316L202.963 81.2841L201.064 81.912ZM181.736 46.776L183.656 46.2144L183.235 44.776H181.736V46.776ZM180.904 46.776V44.776H179.443L178.999 46.169L180.904 46.776ZM175.4 64.056L173.495 63.449L172.664 66.056H175.4V64.056ZM186.792 64.056V66.056H189.462L188.712 63.4944L186.792 64.056ZM193.788 82.8326L190.652 70.3526L186.773 71.3274L189.909 83.8074L193.788 82.8326ZM188.712 68.84H173.416V72.84H188.712V68.84ZM171.49 70.3026L168.098 82.4626L171.951 83.5374L175.343 71.3774L171.49 70.3026ZM170.18 81.0061L161.988 80.3661L161.677 84.3539L169.869 84.9939L170.18 81.0061ZM163.713 83.041L169.345 67.489L165.584 66.127L159.952 81.679L163.713 83.041ZM169.374 67.403L177.95 39.883L174.131 38.693L165.555 66.213L169.374 67.403ZM176.185 41.2827L187.641 40.4507L187.352 36.4613L175.896 37.2933L176.185 41.2827ZM185.582 39.0332L193.838 66.4252L197.667 65.2708L189.411 37.8788L185.582 39.0332ZM193.854 66.4759L199.166 82.5399L202.963 81.2841L197.651 65.2201L193.854 66.4759ZM200.762 79.9349L191.546 81.3429L192.151 85.2971L201.367 83.8891L200.762 79.9349ZM181.736 44.776H180.904V48.776H181.736V44.776ZM178.999 46.169L173.495 63.449L177.306 64.663L182.81 47.383L178.999 46.169ZM175.4 66.056H186.792V62.056H175.4V66.056ZM188.712 63.4944L183.656 46.2144L179.817 47.3376L184.873 64.6176L188.712 63.4944ZM203.277 46.2L201.287 46.0096L201.06 48.3817L203.435 48.1938L203.277 46.2ZM203.981 38.84V36.84H202.164L201.991 38.6496L203.981 38.84ZM234.381 38.84L236.372 39.0304L236.582 36.84H234.381V38.84ZM233.677 46.2L233.506 48.1926L235.48 48.3628L235.668 46.3904L233.677 46.2ZM222.541 45.24L222.713 43.2474L220.568 43.0624L220.542 45.2158L222.541 45.24ZM222.285 66.36L220.286 66.3358L220.285 66.394L220.288 66.4522L222.285 66.36ZM223.053 83V85H225.148L225.051 82.9078L223.053 83ZM214.093 83L212.096 82.9014L211.992 85H214.093V83ZM214.861 67.448L216.859 67.5466L216.862 67.4858L216.861 67.4249L214.861 67.448ZM214.605 45.304L216.605 45.2809L216.581 43.1415L214.448 43.3102L214.605 45.304ZM205.268 46.3904L205.972 39.0304L201.991 38.6496L201.287 46.0096L205.268 46.3904ZM203.981 40.84H234.381V36.84H203.981V40.84ZM232.391 38.6496L231.687 46.0096L235.668 46.3904L236.372 39.0304L232.391 38.6496ZM233.849 44.2074L222.713 43.2474L222.37 47.2326L233.506 48.1926L233.849 44.2074ZM220.542 45.2158L220.286 66.3358L224.285 66.3842L224.541 45.2642L220.542 45.2158ZM220.288 66.4522L221.056 83.0922L225.051 82.9078L224.283 66.2678L220.288 66.4522ZM223.053 81H214.093V85H223.053V81ZM216.091 83.0986L216.859 67.5466L212.864 67.3494L212.096 82.9014L216.091 83.0986ZM216.861 67.4249L216.605 45.2809L212.606 45.3271L212.862 67.4711L216.861 67.4249ZM214.448 43.3102L203.12 44.2062L203.435 48.1938L214.763 47.2978L214.448 43.3102Z" fill="#FFFDF7"/>
</g>
<g filter="url(#filter1_d_72_25)">
<path fill-rule="evenodd" clip-rule="evenodd" d="M14.9189 43.5854C23.5618 54.2034 39.2784 51.6425 46.8522 63.7595C50.7179 69.9442 49.8846 77.6912 53.2206 81.5205C58.0279 87.0385 65.4117 86.4433 65.4117 86.4433C78.9083 83.7997 83.7971 68.6984 85.503 56.9061C85.7635 55.1049 85.9498 53.3808 86.0812 51.7902C86.2202 50.1062 86.2977 48.5717 86.3366 47.2534C86.6526 36.5378 82.469 26.5001 79.8772 21.5773C77.2853 16.6544 71.8595 9.20596 63.956 5.36074C54.9782 0.992809 44.6085 0.534387 39.7559 1.30661C34.9032 2.07882 18.6288 5.86808 13.8271 17.6196C11.8883 22.3647 10.5096 26.928 10.4892 31.3265C10.5883 32.244 10.6566 33.2875 10.703 34.3523C10.7939 34.9556 10.9147 35.5558 11.0678 36.1528C11.717 38.6847 12.9455 41.1611 14.9189 43.5854ZM40.1198 8.72215C56.5001 5.82121 66.288 12.6546 74.2365 24.8422C83.2925 38.7276 80.8979 80.9712 63.4102 81.1173C52.1055 81.2118 54.5867 64.6717 46.8522 55.9238C36.7047 44.4469 17.8225 47.9049 16.1016 32.2747C14.5322 18.0208 25.5284 11.3063 40.1198 8.72215Z" fill="#FF7B8B"/>
<path fill-rule="evenodd" clip-rule="evenodd" d="M74.2365 24.8422C66.288 12.6546 56.5001 5.82121 40.1198 8.72215C25.5284 11.3063 14.5322 18.0208 16.1016 32.2747C17.8225 47.9049 36.7047 44.4469 46.8522 55.9238C54.5867 64.6717 52.1055 81.2118 63.4102 81.1173C80.8979 80.9712 83.2925 38.7276 74.2365 24.8422ZM38.4822 28.7202C38.359 24.6426 43.0165 22.9315 46.8522 23.2182C50.3047 23.4763 54.1574 25.0502 54.0394 28.7202C53.9242 32.3042 50.2242 33.5916 46.8522 33.8362C43.0887 34.1092 38.603 32.7206 38.4822 28.7202Z" fill="#FF7B8B"/>
<path fill-rule="evenodd" clip-rule="evenodd" d="M74.2365 24.8422C66.288 12.6546 56.5001 5.82121 40.1198 8.72215C25.5284 11.3063 14.5322 18.0208 16.1016 32.2747C17.8225 47.9049 36.7047 44.4469 46.8522 55.9238C54.5867 64.6717 52.1055 81.2118 63.4102 81.1173C80.8979 80.9712 83.2925 38.7276 74.2365 24.8422ZM38.4822 28.7202C38.359 24.6426 43.0165 22.9315 46.8522 23.2182C50.3047 23.4763 54.1574 25.0502 54.0394 28.7202C53.9242 32.3042 50.2242 33.5916 46.8522 33.8362C43.0887 34.1092 38.603 32.7206 38.4822 28.7202Z" fill="#FF4755"/>
<path d="M46.8522 23.2182C43.0165 22.9315 38.359 24.6426 38.4822 28.7202C44.7209 31.4243 48.1324 31.5083 54.0394 28.7202C54.1574 25.0502 50.3047 23.4763 46.8522 23.2182Z" fill="#F4E9D3"/>
<path d="M46.8522 33.8362C50.2242 33.5916 53.9242 32.3042 54.0394 28.7202C48.1324 31.5083 44.7209 31.4243 38.4822 28.7202C38.603 32.7206 43.0887 34.1092 46.8522 33.8362Z" fill="#E5D6BE"/>
<path d="M46.8522 63.7595C39.2784 51.6425 23.5618 54.2034 14.9189 43.5854C12.9455 41.1611 11.717 38.6847 11.0678 36.1528C10.9147 35.5558 10.7939 34.9556 10.703 34.3523C10.8606 37.9691 10.7654 41.8309 10.7654 41.8309C19.1992 62.3116 32.2047 55.9238 42.4852 66.7348C50.3093 78.8972 49.2396 89.8048 56.4049 93.3763C60.3171 94.8922 70.1078 94.7738 74.0546 91.4343C76.0427 89.5337 77.8209 87.1653 79.2403 84.3198C86.4664 69.8337 86.3366 47.2534 86.3366 47.2534C86.2977 48.5717 86.2202 50.1062 86.0812 51.7902C85.9498 53.3808 85.7635 55.1049 85.503 56.9061C83.7971 68.6984 78.9083 83.7997 65.4117 86.4433C65.4117 86.4433 58.0279 87.0385 53.2206 81.5205C49.8846 77.6912 50.7179 69.9442 46.8522 63.7595Z" fill="#994E37"/>
<path d="M12.5534 50.4388C17.7714 62.9095 30.9406 59.995 40.1198 69.5511C48.9412 78.7348 45.8789 95.4581 58.1334 97.1578C63.2745 97.8709 69.272 96.0063 74.0546 91.4343C70.1078 94.7738 60.3171 94.8922 56.4049 93.3763C49.2396 89.8048 50.3093 78.8972 42.4852 66.7348C32.2047 55.9238 19.1992 62.3116 10.7654 41.8309C10.7654 41.8309 11.2332 47.2835 12.5534 50.4388Z" fill="#8C4534"/>
<path d="M86.3366 47.2534C86.6526 36.5378 82.469 26.5001 79.8772 21.5773C77.2853 16.6544 71.8595 9.20596 63.956 5.36074C54.9782 0.992809 44.6085 0.534387 39.7559 1.30661C34.9032 2.07882 18.6288 5.86808 13.8271 17.6196C11.8883 22.3647 10.5096 26.928 10.4892 31.3265M86.3366 47.2534C86.2977 48.5717 86.2202 50.1062 86.0812 51.7902C85.9498 53.3808 85.7635 55.1049 85.503 56.9061C83.7971 68.6984 78.9083 83.7997 65.4117 86.4433C65.4117 86.4433 58.0279 87.0385 53.2206 81.5205C49.8846 77.6912 50.7179 69.9442 46.8522 63.7595C39.2784 51.6425 23.5618 54.2034 14.9189 43.5854C12.9455 41.1611 11.717 38.6847 11.0678 36.1528C10.661 34.5661 10.4817 32.9576 10.4892 31.3265M86.3366 47.2534C86.3366 47.2534 86.4664 69.8337 79.2403 84.3198C74.4063 94.0105 65.4117 98.1673 58.1334 97.1578C45.8789 95.4581 48.9412 78.7348 40.1198 69.5511C30.9406 59.995 17.7714 62.9095 12.5534 50.4388C9.68038 43.5724 11.2954 38.7903 10.4892 31.3265M38.4822 28.7202C38.359 24.6426 43.0165 22.9315 46.8522 23.2182C50.3047 23.4763 54.1574 25.0502 54.0394 28.7202C53.9242 32.3042 50.2242 33.5916 46.8522 33.8362C43.0887 34.1092 38.603 32.7206 38.4822 28.7202Z" stroke="#0A2342"/>
</g>
<defs>
<filter id="filter0_d_72_25" x="79.16" y="38.392" width="159.221" height="52.928" filterUnits="userSpaceOnUse" color-interpolation-filters="sRGB">
<feFlood flood-opacity="0" result="BackgroundImageFix"/>
<feColorMatrix in="SourceAlpha" type="matrix" values="0 0 0 0 0 0 0 0 0 0 0 0 0 0 0 0 0 0 127 0" result="hardAlpha"/>
<feOffset dy="4"/>
<feGaussianBlur stdDeviation="2"/>
<feComposite in2="hardAlpha" operator="out"/>
<feColorMatrix type="matrix" values="0 0 0 0 0 0 0 0 0 0 0 0 0 0 0 0 0 0 0.25 0"/>
<feBlend mode="normal" in2="BackgroundImageFix" result="effect1_dropShadow_72_25"/>
<feBlend mode="normal" in="SourceGraphic" in2="effect1_dropShadow_72_25" result="shape"/>
</filter>
<filter id="filter1_d_72_25" x="5.98901" y="0.500122" width="84.8645" height="105.305" filterUnits="userSpaceOnUse" color-interpolation-filters="sRGB">
<feFlood flood-opacity="0" result="BackgroundImageFix"/>
<feColorMatrix in="SourceAlpha" type="matrix" values="0 0 0 0 0 0 0 0 0 0 0 0 0 0 0 0 0 0 127 0" result="hardAlpha"/>
<feOffset dy="4"/>
<feGaussianBlur stdDeviation="2"/>
<feComposite in2="hardAlpha" operator="out"/>
<feColorMatrix type="matrix" values="0 0 0 0 0 0 0 0 0 0 0 0 0 0 0 0 0 0 0.25 0"/>
<feBlend mode="normal" in2="BackgroundImageFix" result="effect1_dropShadow_72_25"/>
<feBlend mode="normal" in="SourceGraphic" in2="effect1_dropShadow_72_25" result="shape"/>
</filter>
</defs>
</svg>
