<svg width="160" height="54" viewBox="0 0 160 54" fill="none" xmlns="http://www.w3.org/2000/svg">
<g filter="url(#filter0_d_21_16)">
<path d="M23.68 25.032H24.32L33.664 0.711998L42.496 0.967999L42.752 28.488L43.968 45H35.328L35.648 28.36L34.944 11.528L27.264 32.712L19.392 33.096L12.224 11.528L11.648 28.36L12.096 45H4.16L5.056 29.448L5.44 1.992L15.616 0.391998L23.68 25.032ZM54.2125 45L54.9805 29.448L54.2125 0.839996H78.2125L77.5085 7.688H63.1085L62.7245 19.016H75.5245L74.8205 25.8H62.4685L62.4045 28.36L62.8525 38.216H78.3405L77.6365 45H54.2125ZM112.848 45.32L109.712 32.84H94.4165L91.0245 45L82.8325 44.36L88.4645 28.808L97.0405 1.288L108.496 0.455997L116.752 27.848L122.064 43.912L112.848 45.32ZM102.736 8.776H101.904L96.4005 26.056H107.792L102.736 8.776ZM124.277 8.2L124.981 0.839996H155.381L154.677 8.2L143.541 7.24L143.285 28.36L144.053 45H135.093L135.861 29.448L135.605 7.304L124.277 8.2Z" fill="#FFFDF7"/>
<path d="M23.68 25.032L21.7792 25.6541L22.2302 27.032H23.68V25.032ZM24.32 25.032V27.032H25.6941L26.1869 25.7493L24.32 25.032ZM33.664 0.711998L33.7219 -1.28716L32.3053 -1.32822L31.7971 -0.00530148L33.664 0.711998ZM42.496 0.967999L44.4959 0.949394L44.478 -0.975391L42.5539 -1.03116L42.496 0.967999ZM42.752 28.488L40.7521 28.5066L40.7527 28.5708L40.7574 28.6349L42.752 28.488ZM43.968 45V47H46.1207L45.9626 44.8531L43.968 45ZM35.328 45L33.3284 44.9615L33.2892 47H35.328V45ZM35.648 28.36L37.6476 28.3985L37.6488 28.3374L37.6463 28.2764L35.648 28.36ZM34.944 11.528L36.9423 11.4444L33.0638 10.8463L34.944 11.528ZM27.264 32.712L27.3614 34.7096L28.6907 34.6448L29.1443 33.3937L27.264 32.712ZM19.392 33.096L17.4941 33.7268L17.9729 35.1676L19.4894 35.0936L19.392 33.096ZM12.224 11.528L14.1219 10.8972L10.2252 11.4596L12.224 11.528ZM11.648 28.36L9.64917 28.2916L9.64708 28.3527L9.64873 28.4138L11.648 28.36ZM12.096 45V47H14.1506L14.0953 44.9462L12.096 45ZM4.16 45L2.16331 44.885L2.04146 47H4.16V45ZM5.056 29.448L7.05269 29.563L7.0552 29.5195L7.0558 29.476L5.056 29.448ZM5.44 1.992L5.12935 0.0162697L3.46377 0.278152L3.4402 1.96403L5.44 1.992ZM15.616 0.391998L17.5168 -0.23008L16.9872 -1.84818L15.3054 -1.58373L15.616 0.391998ZM23.68 27.032H24.32V23.032H23.68V27.032ZM26.1869 25.7493L35.5309 1.4293L31.7971 -0.00530148L22.4531 24.3147L26.1869 25.7493ZM33.6061 2.71116L42.4381 2.96716L42.5539 -1.03116L33.7219 -1.28716L33.6061 2.71116ZM40.4961 0.986603L40.7521 28.5066L44.7519 28.4694L44.4959 0.949394L40.4961 0.986603ZM40.7574 28.6349L41.9734 45.1469L45.9626 44.8531L44.7466 28.3411L40.7574 28.6349ZM43.968 43H35.328V47H43.968V43ZM37.3276 45.0385L37.6476 28.3985L33.6484 28.3215L33.3284 44.9615L37.3276 45.0385ZM37.6463 28.2764L36.9423 11.4444L32.9457 11.6116L33.6497 28.4436L37.6463 28.2764ZM33.0638 10.8463L25.3838 32.0303L29.1443 33.3937L36.8242 12.2097L33.0638 10.8463ZM27.1666 30.7144L19.2946 31.0984L19.4894 35.0936L27.3614 34.7096L27.1666 30.7144ZM21.2899 32.4652L14.1219 10.8972L10.3261 12.1588L17.4941 33.7268L21.2899 32.4652ZM10.2252 11.4596L9.64917 28.2916L13.6468 28.4284L14.2228 11.5964L10.2252 11.4596ZM9.64873 28.4138L10.0967 45.0538L14.0953 44.9462L13.6473 28.3062L9.64873 28.4138ZM12.096 43H4.16V47H12.096V43ZM6.15669 45.115L7.05269 29.563L3.05931 29.333L2.16331 44.885L6.15669 45.115ZM7.0558 29.476L7.4398 2.01997L3.4402 1.96403L3.0562 29.42L7.0558 29.476ZM5.75065 3.96772L15.9267 2.36773L15.3054 -1.58373L5.12935 0.0162697L5.75065 3.96772ZM13.7152 1.01408L21.7792 25.6541L25.5808 24.4099L17.5168 -0.23008L13.7152 1.01408ZM54.2125 45L52.2149 44.9014L52.1113 47H54.2125V45ZM54.9805 29.448L56.9781 29.5466L56.9818 29.4705L56.9798 29.3943L54.9805 29.448ZM54.2125 0.839996V-1.16H52.1581L52.2132 0.893669L54.2125 0.839996ZM78.2125 0.839996L80.202 1.04453L80.4286 -1.16H78.2125V0.839996ZM77.5085 7.688V9.688H79.3134L79.498 7.89253L77.5085 7.688ZM63.1085 7.688V5.688H61.1751L61.1096 7.62024L63.1085 7.688ZM62.7245 19.016L60.7256 18.9482L60.6556 21.016H62.7245V19.016ZM75.5245 19.016L77.5138 19.2224L77.7428 17.016H75.5245V19.016ZM74.8205 25.8V27.8H76.6237L76.8098 26.0064L74.8205 25.8ZM62.4685 25.8V23.8H60.5179L60.4691 25.75L62.4685 25.8ZM62.4045 28.36L60.4051 28.31L60.4034 28.3804L60.4066 28.4508L62.4045 28.36ZM62.8525 38.216L60.8546 38.3068L60.9413 40.216H62.8525V38.216ZM78.3405 38.216L80.3298 38.4224L80.5588 36.216H78.3405V38.216ZM77.6365 45V47H79.4397L79.6258 45.2064L77.6365 45ZM56.2101 45.0986L56.9781 29.5466L52.9829 29.3494L52.2149 44.9014L56.2101 45.0986ZM56.9798 29.3943L56.2118 0.786324L52.2132 0.893669L52.9812 29.5017L56.9798 29.3943ZM54.2125 2.84H78.2125V-1.16H54.2125V2.84ZM76.223 0.635468L75.519 7.48347L79.498 7.89253L80.202 1.04453L76.223 0.635468ZM77.5085 5.688H63.1085V9.688H77.5085V5.688ZM61.1096 7.62024L60.7256 18.9482L64.7234 19.0838L65.1074 7.75576L61.1096 7.62024ZM62.7245 21.016H75.5245V17.016H62.7245V21.016ZM73.5352 18.8096L72.8312 25.5936L76.8098 26.0064L77.5138 19.2224L73.5352 18.8096ZM74.8205 23.8H62.4685V27.8H74.8205V23.8ZM60.4691 25.75L60.4051 28.31L64.4039 28.41L64.4679 25.85L60.4691 25.75ZM60.4066 28.4508L60.8546 38.3068L64.8504 38.1252L64.4024 28.2692L60.4066 28.4508ZM62.8525 40.216H78.3405V36.216H62.8525V40.216ZM76.3512 38.0096L75.6472 44.7936L79.6258 45.2064L80.3298 38.4224L76.3512 38.0096ZM77.6365 43H54.2125V47H77.6365V43ZM112.848 45.32L110.909 45.8074L111.352 47.5718L113.151 47.2971L112.848 45.32ZM109.713 32.84L111.652 32.3526L111.272 30.84H109.713V32.84ZM94.4165 32.84V30.84H92.898L92.49 32.3026L94.4165 32.84ZM91.0245 45L90.8687 46.9939L92.5089 47.1221L92.951 45.5374L91.0245 45ZM82.8325 44.36L80.952 43.679L80.0574 46.1493L82.6767 46.3539L82.8325 44.36ZM88.4645 28.808L90.345 29.489L90.3604 29.4463L90.3739 29.403L88.4645 28.808ZM97.0405 1.288L96.8956 -0.706748L95.5365 -0.60804L95.1311 0.692965L97.0405 1.288ZM108.496 0.455997L110.411 -0.121161L109.949 -1.65477L108.352 -1.53875L108.496 0.455997ZM116.753 27.848L114.838 28.4252L114.845 28.4506L114.854 28.4759L116.753 27.848ZM122.064 43.912L122.367 45.8891L124.707 45.5316L123.963 43.2841L122.064 43.912ZM102.736 8.776L104.656 8.21436L104.235 6.776H102.736V8.776ZM101.904 8.776V6.776H100.443L99.9988 8.16901L101.904 8.776ZM96.4005 26.056L94.4948 25.449L93.6645 28.056H96.4005V26.056ZM107.792 26.056V28.056H110.462L109.712 25.4944L107.792 26.056ZM114.788 44.8326L111.652 32.3526L107.773 33.3274L110.909 45.8074L114.788 44.8326ZM109.713 30.84H94.4165V34.84H109.713V30.84ZM92.49 32.3026L89.098 44.4626L92.951 45.5374L96.3429 33.3774L92.49 32.3026ZM91.1803 43.0061L82.9883 42.3661L82.6767 46.3539L90.8687 46.9939L91.1803 43.0061ZM84.713 45.041L90.345 29.489L86.584 28.127L80.952 43.679L84.713 45.041ZM90.3739 29.403L98.9499 1.88303L95.1311 0.692965L86.5551 28.213L90.3739 29.403ZM97.1854 3.28275L108.641 2.45074L108.352 -1.53875L96.8956 -0.706748L97.1854 3.28275ZM106.582 1.03316L114.838 28.4252L118.667 27.2708L110.411 -0.121161L106.582 1.03316ZM114.854 28.4759L120.166 44.5399L123.963 43.2841L118.651 27.2201L114.854 28.4759ZM121.762 41.9349L112.546 43.3429L113.151 47.2971L122.367 45.8891L121.762 41.9349ZM102.736 6.776H101.904V10.776H102.736V6.776ZM99.9988 8.16901L94.4948 25.449L98.3062 26.663L103.81 9.38299L99.9988 8.16901ZM96.4005 28.056H107.792V24.056H96.4005V28.056ZM109.712 25.4944L104.656 8.21436L100.817 9.33764L105.873 26.6176L109.712 25.4944ZM124.277 8.2L122.287 8.00956L122.06 10.3817L124.435 10.1938L124.277 8.2ZM124.981 0.839996V-1.16H123.164L122.991 0.649561L124.981 0.839996ZM155.382 0.839996L157.372 1.03043L157.582 -1.16H155.382V0.839996ZM154.677 8.2L154.506 10.1926L156.48 10.3628L156.668 8.39043L154.677 8.2ZM143.542 7.24L143.713 5.24739L141.568 5.06243L141.542 7.21576L143.542 7.24ZM143.285 28.36L141.286 28.3358L141.285 28.394L141.288 28.4522L143.285 28.36ZM144.053 45V47H146.148L146.051 44.9078L144.053 45ZM135.093 45L133.096 44.9014L132.992 47H135.093V45ZM135.861 29.448L137.859 29.5466L137.862 29.4858L137.861 29.4249L135.861 29.448ZM135.605 7.304L137.605 7.28088L137.581 5.14153L135.448 5.31022L135.605 7.304ZM126.268 8.39043L126.972 1.03043L122.991 0.649561L122.287 8.00956L126.268 8.39043ZM124.981 2.84H155.382V-1.16H124.981V2.84ZM153.391 0.649561L152.687 8.00956L156.668 8.39043L157.372 1.03043L153.391 0.649561ZM154.849 6.20739L143.713 5.24739L143.37 9.23261L154.506 10.1926L154.849 6.20739ZM141.542 7.21576L141.286 28.3358L145.285 28.3842L145.541 7.26424L141.542 7.21576ZM141.288 28.4522L142.056 45.0922L146.051 44.9078L145.283 28.2678L141.288 28.4522ZM144.053 43H135.093V47H144.053V43ZM137.091 45.0986L137.859 29.5466L133.864 29.3494L133.096 44.9014L137.091 45.0986ZM137.861 29.4249L137.605 7.28088L133.606 7.32712L133.862 29.4711L137.861 29.4249ZM135.448 5.31022L124.12 6.20622L124.435 10.1938L135.763 9.29777L135.448 5.31022Z" fill="#FFFDF7"/>
</g>
<defs>
<filter id="filter0_d_21_16" x="0.16" y="0.391998" width="159.221" height="52.928" filterUnits="userSpaceOnUse" color-interpolation-filters="sRGB">
<feFlood flood-opacity="0" result="BackgroundImageFix"/>
<feColorMatrix in="SourceAlpha" type="matrix" values="0 0 0 0 0 0 0 0 0 0 0 0 0 0 0 0 0 0 127 0" result="hardAlpha"/>
<feOffset dy="4"/>
<feGaussianBlur stdDeviation="2"/>
<feComposite in2="hardAlpha" operator="out"/>
<feColorMatrix type="matrix" values="0 0 0 0 0 0 0 0 0 0 0 0 0 0 0 0 0 0 0.25 0"/>
<feBlend mode="normal" in2="BackgroundImageFix" result="effect1_dropShadow_21_16"/>
<feBlend mode="normal" in="SourceGraphic" in2="effect1_dropShadow_21_16" result="shape"/>
</filter>
</defs>
</svg>
