<svg width="74" height="74" viewBox="0 0 74 74" fill="none" xmlns="http://www.w3.org/2000/svg">
<path d="M20.9596 37.2968C20.9596 36.7501 21.4028 36.3069 21.9495 36.3069C22.4962 36.3069 22.9394 36.7501 22.9394 37.2968C22.9394 37.8435 22.4962 38.2867 21.9495 38.2867C21.4028 38.2867 20.9596 37.8435 20.9596 37.2968Z" fill="#3ADEFF"/>
<path d="M24.4243 29.0476C24.4243 29.0476 17 33.8122 17 37.2968C17 40.7813 24.4243 45.546 24.4243 45.546M24.4243 29.0476C24.4243 29.0476 26.899 31.3574 26.899 37.2968C26.899 43.2362 24.4243 45.546 24.4243 45.546M24.4243 29.0476C24.4243 29.0476 26.4018 27.861 29.2088 27.4782M24.4243 45.546C24.4243 45.546 26.4018 46.8314 29.2088 47.1823M29.2088 27.4782C30.0276 27.3665 30.917 27.3232 31.8485 27.3978C33.4325 27.5245 35.0609 27.9579 36.6515 28.5526M29.2088 27.4782C29.2088 27.4782 29.4169 25.771 30.0337 24.923C31.3536 23.1082 32.8965 23.7616 36.6515 22.4483C43.7273 19.9735 36.6515 28.5526 36.6515 28.5526M36.6515 28.5526C42.0814 30.5828 47.0708 34.492 48.3469 34.492C50.4916 34.492 56.926 26.0779 56.926 29.7075C56.926 32.7874 56.596 37.2968 54.1213 37.2968C56.596 37.2968 57 40.9264 57 44.721C57 48.5572 52.1764 39.8762 48.3469 40.1015C46.5706 40.206 41.8872 43.8513 36.6515 45.9096M29.2088 47.1823C30.0276 47.2847 30.917 47.3076 31.8485 47.1958C33.4568 47.0028 35.079 46.5278 36.6515 45.9096M29.2088 47.1823C29.5309 48.154 28.5488 48.6806 30.0337 50.0005C31.5185 51.3203 33.3634 51.4861 36.6515 52.3102C43.8923 54.1251 36.6515 45.9096 36.6515 45.9096M34.4882 41.5863L31.5185 33.0072M36.798 33.9971L39.1078 40.2665M20.9596 37.2968C20.9596 36.7501 21.4028 36.3069 21.9495 36.3069C22.4962 36.3069 22.9394 36.7501 22.9394 37.2968C22.9394 37.8435 22.4962 38.2867 21.9495 38.2867C21.4028 38.2867 20.9596 37.8435 20.9596 37.2968ZM1 37C1 56.8823 17.1177 73 37 73C56.8823 73 73 56.8823 73 37C73 17.1177 56.8823 1 37 1C17.1177 1 1 17.1177 1 37Z" stroke="#3ADEFF" stroke-width="2" stroke-linecap="round" stroke-linejoin="round"/>
</svg>
