<svg width="74" height="74" viewBox="0 0 74 74" fill="none" xmlns="http://www.w3.org/2000/svg">
<path d="M18.6664 25.8885C18.3595 25.8885 18.1108 26.1372 18.1108 26.4441C18.1108 26.7509 18.3595 26.9996 18.6664 26.9996C18.9732 26.9996 19.2219 26.7509 19.2219 26.4441C19.2219 26.1372 18.9732 25.8885 18.6664 25.8885Z" fill="#4CE166"/>
<path d="M30.7084 26.9255C36.315 26.9255 40.6863 26.9255 45.4139 26.9255M30.7084 26.9255C29.9074 26.9255 29.0444 26.6519 28.2227 26.2634M30.7084 26.9255H45.4139M54.4789 26.9255C51.1155 26.9255 48.2027 26.9255 45.4139 26.9255M54.4789 26.9255C54.4789 26.9255 55.8334 27.51 56.9397 28.8144M54.4789 26.9255H45.4139M47.2629 43.2957C47.2629 43.2957 48.351 43.6386 48.5363 44.5549C49.173 47.703 48.7485 53.1597 48.7485 53.1597L46.4139 55.8881H50.4464M47.2629 43.2957L51.7199 41.4068M47.2629 43.2957C47.2629 43.2957 42.6887 44.9479 39.6223 45.1845M51.7199 41.4068L49.3853 38.4686M51.7199 41.4068L52.3566 43.2957V53.1597L50.4464 55.8881M39.6223 45.1845C36.6325 45.4153 34.448 45.3354 31.9818 45.0412M39.6223 45.1845V42.6661L37.5611 40.5673L32.8919 41.8266H29.6055M30.0717 40.5673C30.0717 40.5673 29.8712 41.1101 29.6055 41.8266M27.5249 55.8881V47.2833C27.5249 47.2833 28.0887 45.8663 28.586 44.5549M27.5249 55.8881H22.2189L24.1291 53.1597M27.5249 55.8881H30.9206V47.2833L31.9818 45.0412M24.1291 53.1597C24.1291 49.5919 24.1291 43.9253 24.1291 43.9253M24.1291 53.1597V43.9253M22.2189 38.6785C22.2189 38.6785 24.1291 40.5673 24.1291 41.4068C24.1291 42.4562 24.1291 43.9253 24.1291 43.9253M28.586 44.5549C29.8256 44.751 30.9294 44.9156 31.9818 45.0412M28.586 44.5549C28.8594 43.8341 29.2811 42.701 29.6055 41.8266M24.1291 43.9253C24.1291 43.9253 20.4223 41.6209 18.8232 39.9377C16.6869 37.6891 18.7249 34.5335 16.4885 32.3822C14.8659 30.8213 12.4294 31.9421 11.1826 30.0736C10.6483 29.2729 10.3337 27.765 10.3337 27.765L18.8232 21.8886H20.0966M22.2189 25.4564L24.4474 23.6725M24.4474 23.6725C24.4474 23.6725 26.2814 22.9248 26.6759 21.8886C27.406 19.9709 21.37 21.8886 21.37 21.8886M24.4474 23.6725C24.4474 23.6725 26.2112 25.3123 28.2227 26.2634M21.37 21.8886L23.2801 20.2096V18.1108M21.37 21.8886H20.0966M20.0966 21.8886L20.521 20.8392L20.7333 18.9503M50.4464 55.8881H55.8135V47.703L57.2127 41.8266M55.1768 31.5428C55.1768 31.5428 52.3132 31.8551 51.7199 33.2217C50.9015 35.1065 54.6173 35.2342 55.1768 37.2093C55.5345 38.4721 54.4273 39.4855 55.1768 40.5673C55.7068 41.3323 57.2127 41.8266 57.2127 41.8266M57.2127 41.8266L57.6624 39.9377C57.6624 39.9377 59.2327 32.7512 57.6625 29.8638C57.4496 29.4724 57.2016 29.1232 56.9397 28.8144M45.4139 26.9255C45.4139 26.9255 43.8151 28.5349 43.5038 29.8638C42.9205 32.3531 46.902 33.2309 46.4139 35.7402C46.1637 37.0267 45.8603 37.9241 44.7772 38.6785C43.3542 39.6696 41.9788 39.2003 40.3202 38.6785C37.2858 37.7237 38.3646 32.9166 35.2265 32.3822C33.5375 32.0946 32.4356 32.4292 30.9206 33.2217C29.8794 33.7665 29.7451 34.9026 28.586 35.1106C26.4472 35.4944 25.2514 30.7033 25.2514 30.7033M28.2227 26.2634L26.6759 28.1848M56.9397 28.8144C56.9397 28.8144 59.0077 28.6151 60.2705 29.8638C62.6051 32.1724 59.959 38.888 61.9684 43.9253C62.5124 45.2892 63.6663 47.2833 63.6663 47.2833M18.6664 25.8885C18.3595 25.8885 18.1108 26.1372 18.1108 26.4441C18.1108 26.7509 18.3595 26.9996 18.6664 26.9996C18.9732 26.9996 19.2219 26.7509 19.2219 26.4441C19.2219 26.1372 18.9732 25.8885 18.6664 25.8885ZM37 1C17.1177 1 1 17.1177 1 37C1 56.8823 17.1177 73 37 73C56.8823 73 73 56.8823 73 37C73 17.1177 56.8823 1 37 1Z" stroke="#4CE166" stroke-width="2" stroke-linecap="round" stroke-linejoin="round"/>
</svg>
