<svg width="74" height="74" viewBox="0 0 74 74" fill="none" xmlns="http://www.w3.org/2000/svg">
<path fill-rule="evenodd" clip-rule="evenodd" d="M1 37C1 17.1177 17.1177 1 37 1C56.8823 1 73 17.1177 73 37C73 56.8823 56.8823 73 37 73C17.1177 73 1 56.8823 1 37ZM53.5 26.5C53.5 23 53 11 37 10C21.0001 9 15.5 31 24.5 31C33.5001 31 24.5 21 37 19C41.3713 18.3006 44.7762 23.0817 44.5 27.5C44.2416 31.6341 40 34 37 35C33.5049 36.1651 32.5 40.8769 32.5 45C32.5 48.5 33.539 50.8285 37 50.5C44 49.8356 38.5 44.75 44 42C49.9999 39 53.4999 34.1552 53.5 26.5ZM37 55C34.2386 55 32 57.2386 32 60C32 62.7614 34.2386 65 37 65C39.7614 65 42 62.7614 42 60C42 57.2386 39.7614 55 37 55Z" stroke="#994E37" stroke-width="2"/>
</svg>
