<svg width="74" height="74" viewBox="0 0 74 74" fill="none" xmlns="http://www.w3.org/2000/svg">
<path d="M22.0602 35.1084C21.6344 35.1084 21.2892 35.4537 21.2892 35.8795C21.2892 36.3054 21.6344 36.6506 22.0602 36.6506C22.4861 36.6506 22.8313 36.3054 22.8313 35.8795C22.8313 35.4537 22.4861 35.1084 22.0602 35.1084Z" fill="#FF7B8B"/>
<path d="M27.8434 51.3012H24.3735C24.3735 51.3012 24.3735 46.4819 24.3735 43.3976C18.2048 42.4337 13 41.4699 13 41.4699V37.4217C13 37.4217 15.066 37.1622 16.2771 36.6506C19.6411 35.2297 20.13 31.4082 21.0486 28.3614M27.8434 51.3012L29.7711 43.9759L31.506 44.5542M27.8434 51.3012H29.7711L31.506 44.5542M50.9759 42.4337C50.9759 42.4337 48.2771 40.6988 48.2771 38.3855M50.9759 42.4337C50.9759 42.4337 54.6386 44.5542 55.7952 45.7108C56.2733 46.1889 53.0964 51.3012 53.0964 51.3012M50.9759 42.4337C50.9759 42.4337 50.2048 43.3976 48.6627 43.9759M53.0964 51.3012H56.759L60.6145 45.7108C60.6145 45.7108 59.7683 43.7549 59.4578 42.4337C58.5612 38.6188 60.4113 38.0855 60.8906 33.3735M53.0964 51.3012H50.9759C50.9759 51.3012 53.2892 47.8313 53.2892 46.6747C53.2892 45.9036 50.5904 44.1687 48.6627 43.9759M31.506 44.5542C31.506 44.5542 37.1422 46.1349 40.759 45.7108C43.832 45.3506 45.7213 44.9358 48.6627 43.9759M31.506 25.0843C27.6506 25.2771 27.2651 27.5904 24.3735 29.3253C22.5363 30.4276 27.2539 31.4693 29.3855 31.253C31.0282 31.0864 33.241 29.7108 33.241 29.7108M23.2169 24.4939C25.0398 22.5559 26.9885 22 29.7711 22C33.0482 22 46.9277 22 51.9398 22C56.9436 22 61 26.0564 61 31.0602C61 31.9324 60.9594 32.6961 60.8906 33.3735M23.2169 24.4939C22.8929 24.8383 22.573 25.2263 22.253 25.6627C21.7178 26.3925 21.3587 27.3328 21.0486 28.3614M23.2169 24.4939C20.5181 22.3855 18.9305 22.8437 16.2771 22.5783C12.4217 22.1928 15.4622 25.075 16.6627 26.4337C17.7394 27.6525 21.0486 28.3614 21.0486 28.3614M54.253 31.6386C54.253 30.8675 54.253 28.9398 56.1807 29.5181C58.1084 30.0964 56.5488 33.5744 58.494 34.1446C59.6297 34.4775 60.8906 33.3735 60.8906 33.3735M22.0602 35.1084C21.6344 35.1084 21.2892 35.4537 21.2892 35.8795C21.2892 36.3054 21.6344 36.6506 22.0602 36.6506C22.4861 36.6506 22.8313 36.3054 22.8313 35.8795C22.8313 35.4537 22.4861 35.1084 22.0602 35.1084ZM37 1C17.1177 1 1 17.1177 1 37C1 56.8823 17.1177 73 37 73C56.8823 73 73 56.8823 73 37C73 17.1177 56.8823 1 37 1Z" stroke="#FF7B8B" stroke-width="2" stroke-linecap="round" stroke-linejoin="round"/>
</svg>
