<svg width="74" height="74" viewBox="0 0 74 74" fill="none" xmlns="http://www.w3.org/2000/svg">
<path d="M25.5 23C25.2239 23 25 23.2239 25 23.5C25 23.7761 25.2239 24 25.5 24C25.7761 24 26 23.7761 26 23.5C26 23.2239 25.7761 23 25.5 23Z" fill="#FFDB56"/>
<path d="M23.6132 29.7054C23.3855 32.0682 21.7867 33.1 21.691 35.4718C21.4863 40.5478 24.8452 42.9216 28.9952 45.8515C29.9455 46.485 30.79 46.9131 31.6862 47.3091M23.6132 29.7054C23.744 28.3477 23.6493 27.2937 23.4263 26.2455M23.6132 29.7054C23.6132 29.7054 21.6921 30.4206 20.9222 29.7054C19.9418 28.7946 21.691 26.3661 21.691 26.3661M27.8419 21.6323C27.8419 21.6323 31.6526 28.6541 36.2994 30.4742C39.9366 31.8989 42.5468 31.9597 46.2946 30.8587C48.9389 30.0819 53.3014 25.0678 52.83 27.7832C52.6229 28.9758 51.2922 30.4742 51.2922 30.4742C51.2922 30.4742 53.3201 30.0297 53.9833 30.8587C54.9211 32.031 51.6767 33.9341 51.6767 33.9341C51.6767 33.9341 53.2313 34.1233 53.9833 34.703C55.1366 35.592 53.1695 35.3851 51.6767 37.7784C51.2136 38.5208 50.5234 41.6227 48.9857 43.1605C45.4323 46.7139 42.1193 51.618 40.5282 51.618C40.3934 51.618 40.2654 51.6128 40.1437 51.6028M27.8419 21.6323C27.8419 21.6323 26.2932 20.4299 25.1509 20.479C23.9416 20.531 22.1274 21.6218 22.4599 22.7856M27.8419 21.6323C27.8419 21.6323 29.0367 20.332 28.9952 19.3257C28.9506 18.244 28.5389 16.9676 27.4575 17.0191C26.6092 17.0595 25.9198 18.5568 25.9198 18.5568C25.9198 18.5568 24.9333 16.7988 23.9976 17.0191C23.1455 17.2198 22.8443 18.9413 22.8443 18.9413C22.8443 18.9413 21.7099 17.9906 20.9222 18.1724C19.8081 18.4295 19.6553 19.7257 19.7689 20.8634C19.8853 22.03 21.508 23.3103 21.508 23.3103M22.4599 22.7856C22.846 24.1368 23.2014 25.1882 23.4263 26.2455M22.4599 22.7856C22.4599 22.7856 22.0518 22.9605 21.508 23.3103M23.4263 26.2455C23.4263 26.2455 22.6173 26.3157 21.691 26.3661M21.691 26.3661C20.4507 26.4336 19 26.4656 19 26.2455C19.4694 24.8371 20.6555 23.8587 21.508 23.3103M40.1437 51.6028V55.4623M40.1437 51.6028C38.3578 51.457 37.9119 50.2893 36.6839 49.5232M40.1437 55.4623L36.2994 57M40.1437 55.4623L42.0659 57M31.6862 47.3091C32.9655 47.8742 34.3504 48.3737 36.2994 49.3114C36.4364 49.3773 36.5638 49.4483 36.6839 49.5232M31.6862 47.3091C31.6862 47.3091 32.4177 51.8786 34.3773 51.6028M34.3773 51.6028C35.5783 51.4338 36.6839 49.5232 36.6839 49.5232M34.3773 51.6028V55.0778L30.9174 57M32.0707 31.6275C32.0707 31.6275 28.127 33.8134 27.8419 36.2407C27.5262 38.9287 29.5949 40.2891 31.6862 42.0072C33.9267 43.8477 35.7065 44.6982 38.606 44.6982C42.8348 44.6982 42.4503 40.8539 42.4503 40.8539M42.4503 40.8539L39.7593 40.085M42.4503 40.8539C42.4503 40.8539 43.291 41.2634 43.9881 40.8539C45.6458 39.88 49.0124 37.3582 47.4479 36.2407C44.7569 34.3185 41.6815 34.703 41.6815 34.703M25.5 23C25.2239 23 25 23.2239 25 23.5C25 23.7761 25.2239 24 25.5 24C25.7761 24 26 23.7761 26 23.5C26 23.2239 25.7761 23 25.5 23ZM37 1C17.1177 1 1 17.1177 1 37C1 56.8823 17.1177 73 37 73C56.8823 73 73 56.8823 73 37C73 17.1177 56.8823 1 37 1Z" stroke="#FFDB56" stroke-width="2" stroke-linecap="round" stroke-linejoin="round"/>
</svg>
